<?xml version="1.0" encoding="utf-8" ?>
<!-- Generator: Assembly 1.0 - http://assemblyapp.co -->
<svg version="1.1" xmlns="http://www.w3.org/2000/svg" xmlns:xlink="http://www.w3.org/1999/xlink" width="300" height="168.75" viewBox="0 0 300 168.75">
	<g id="widget" transform="matrix(1,0,0,1,150,84.375)">
		<path d="M-119.235,1.19767 L-119.235,1.19767 L-119.128,-46.8354 L-99.9147,-46.7926 L-100.022,1.24045 L-100.022,1.24045 C-100.081,27.7547 -121.647,49.2256 -148.162,49.1665 L-148.119,29.9533 C-132.172,29.9888 -119.27,17.1446 -119.235,1.19767 Z" fill="#a4dcb9" fill-opacity="1" />
		<path d="M89.2169,49.6862 L89.3667,-17.5601 C89.4022,-33.507 76.558,-46.4085 60.6111,-46.4441 C44.6641,-46.4796 31.7626,-33.6354 31.7271,-17.6884 L31.5773,49.5578 L50.7905,49.6006 L50.9403,-17.6456 C50.952,-22.9293 55.2846,-27.2426 60.5683,-27.2308 C65.8519,-27.2191 70.1652,-22.8865 70.1535,-17.6028 L70.0037,49.6434" fill="#2d97b7" fill-opacity="1" />
		<path d="M-99.9209,-46.7988 L-80.7077,-46.756 L-80.9216,49.3101 L-100.135,49.2673 Z" fill="#fdf4af" fill-opacity="1" />
		<path d="M-61.3452,1.33278 L-85.5562,1.27886 L-85.5023,-22.9321 C-85.473,-36.1072 -74.8022,-46.7305 -61.6272,-46.7011 L-37.4162,-46.6472 L-37.4701,-22.4362 C-37.4995,-9.26117 -48.1702,1.36212 -61.3452,1.33278 Z" fill="#fdf4af" fill-opacity="1" />
		<path d="M-61.8473,49.3436 L-37.6363,49.3975 L-37.5824,25.1865 C-37.553,12.0115 -48.1763,1.34076 -61.3514,1.31142 L-85.5624,1.25751 L-85.6163,25.4685 C-85.6456,38.6435 -75.0223,49.3142 -61.8473,49.3436 Z" fill="#fdf4af" fill-opacity="1" />
		<path d="M-62.0472,25.3355 L-90.8781,25.2713 L-90.7711,-22.7618 L-61.9402,-22.6976 L-62.0472,25.3355 L-62.0472,25.3355 Z" fill="#fdf4af" fill-opacity="1" />
		<path d="M-3.15583,-49.5112 L25.7713,-20.455 C41.7573,-4.39764 41.6995,21.5423 25.6421,37.5283 L25.6421,37.5283 C9.58475,53.5143 -16.3551,53.4565 -32.3412,37.3992 L-32.3412,37.3992 C-48.3272,21.3418 -48.2694,-4.59812 -32.212,-20.5841 L-3.15583,-49.5112 Z" fill="#5bcfbf" fill-opacity="1" />
		<path d="M-3.08168,-17.9546 L14.3755,-0.419556 C24.0229,9.27089 23.988,24.9253 14.2976,34.5727 L14.2976,34.5727 C4.60712,44.2201 -11.0473,44.1852 -20.6947,34.4948 L-20.6947,34.4948 C-30.3421,24.8043 -30.3072,9.1499 -20.6168,-0.497481 L-3.08168,-17.9546 Z" fill="#32b9be" fill-opacity="1" />
		<path d="M134.184,34.2287 C134.165,42.8257 127.172,49.7874 118.575,49.7683 C109.978,49.7491 103.016,42.7563 103.036,34.1593 C103.055,25.5623 110.048,18.6005 118.645,18.6197 C127.242,18.6388 134.203,25.6316 134.184,34.2287 Z M118.631,24.8494 C113.46,24.8379 109.277,29.0025 109.265,34.1732 C109.254,39.3438 113.418,43.527 118.589,43.5385 C123.76,43.5501 127.943,39.3854 127.954,34.2148 C127.966,29.0441 123.801,24.8609 118.631,24.8494 Z" fill="#84b6b8" fill-opacity="1" />
		<path d="M124.085,34.2062 C124.078,37.2282 121.62,39.6755 118.598,39.6688 C115.576,39.662 113.128,37.2039 113.135,34.1818 C113.142,31.1597 115.6,28.7124 118.622,28.7192 C121.644,28.7259 124.091,31.1841 124.085,34.2062 Z M118.617,30.9091 C116.8,30.905 115.329,32.369 115.325,34.1867 C115.321,36.0043 116.785,37.4748 118.603,37.4788 C120.42,37.4829 121.891,36.0189 121.895,34.2013 C121.899,32.3836 120.435,30.9131 118.617,30.9091 Z" fill="#84b6b8" fill-opacity="1" />
		<path d="M148.096,-19.7915 C148.06,-3.5815 134.875,9.54518 118.665,9.50908 C102.455,9.47299 89.3281,-3.71229 89.3642,-19.9223 C89.4003,-36.1324 102.586,-49.2591 118.796,-49.223 C135.006,-49.1869 148.132,-36.0016 148.096,-19.7915 Z M118.769,-37.4765 C109.02,-37.4983 101.132,-29.6457 101.111,-19.8962 C101.089,-10.1467 108.941,-2.25904 118.691,-2.23732 C128.441,-2.21561 136.328,-10.0682 136.35,-19.8177 C136.372,-29.5672 128.519,-37.4548 118.769,-37.4765 Z" fill="#84b6b8" fill-opacity="1" />
		<path d="M118.693,-4.28266 L118.693,-4.28266 C110.086,-4.30182 103.134,-11.2848 103.153,-19.8916 L103.153,-19.8916 C103.172,-28.4985 110.155,-35.4504 118.762,-35.4312 L118.762,-35.4312 C127.369,-35.4121 134.321,-28.4291 134.302,-19.8223 L134.302,-19.8223 C134.282,-11.2154 127.299,-4.26349 118.693,-4.28266 Z" fill="#84b6b8" fill-opacity="1" />
		<path d="M124.115,23.9204 L113.166,23.896 L113.206,5.65372 L124.156,5.6781 L124.115,23.9204 L124.115,23.9204 Z" fill="#84b6b8" fill-opacity="1" />
	</g>
</svg>