<?xml version="1.0" encoding="utf-8" ?>
<!-- Generator: Assembly 1.0 - http://assemblyapp.co -->
<svg version="1.1" xmlns="http://www.w3.org/2000/svg" xmlns:xlink="http://www.w3.org/1999/xlink" width="200" height="300" viewBox="0 0 200 300">
	<g id="widget" transform="matrix(1,0,0,1,100,150)">
		<path d="M-15.9308,-49.547 C-15.9308,5.82266 -26.9971,50.7086 -40.6481,50.7086 C-54.2992,50.7086 -65.3655,5.82266 -65.3655,-49.547 C-65.3655,-104.917 -54.2992,-149.803 -40.6481,-149.803 C-26.9971,-149.803 -15.9308,-104.917 -15.9308,-49.547 Z" fill="#ffd91f" fill-opacity="1" />
		<path d="M65.3358,-49.5389 C65.3358,5.83069 54.2694,50.7166 40.6184,50.7166 C26.9674,50.7166 15.901,5.83069 15.901,-49.5389 C15.901,-104.909 26.9674,-149.795 40.6184,-149.795 C54.2694,-149.795 65.3358,-104.909 65.3358,-49.5389 Z" fill="#ffd91f" fill-opacity="1" />
		<path d="M-27.2812,-54.2093 C-27.2812,-24.2659 -33.2658,0.0080748 -40.6481,0.0080748 C-48.0305,0.0080748 -54.0151,-24.2659 -54.0151,-54.2093 C-54.0151,-84.1527 -48.0305,-108.427 -40.6481,-108.427 C-33.2658,-108.427 -27.2812,-84.1527 -27.2812,-54.2093 Z" fill="#e66eba" fill-opacity="1" />
		<path d="M53.9853,-54.2173 C53.9853,-24.2739 48.0008,3.79654e-05 40.6184,3.79654e-05 C33.236,3.79654e-05 27.2514,-24.2739 27.2514,-54.2173 C27.2514,-84.1608 33.236,-108.435 40.6184,-108.435 C48.0008,-108.435 53.9853,-84.1608 53.9853,-54.2173 Z" fill="#e66eba" fill-opacity="1" />
		<path d="M0.000396767,-30.17 C49.7624,-30.17 89.9868,10.2616 89.9868,59.8164 C89.9868,109.578 49.5551,149.803 0.000396767,149.803 C-49.5544,149.803 -89.986,109.371 -89.986,59.8164 C-90.1933,10.2616 -49.7616,-30.17 0.000396767,-30.17 Z" fill="#ffe876" fill-opacity="1" />
		<path d="M-56.2497,50.7086 C-51.2132,50.7086 -47.1421,54.8008 -47.1421,59.8163 C-47.1421,64.8528 -51.2342,68.9239 -56.2497,68.9239 C-61.2653,68.9239 -65.3574,64.8318 -65.3574,59.8163 C-65.3784,54.8008 -61.2862,50.7086 -56.2497,50.7086 Z" fill="#000000" fill-opacity="1" />
		<path d="M56.2201,50.7006 C61.2566,50.7006 65.3277,54.7927 65.3277,59.8082 C65.3277,64.8447 61.2356,68.9159 56.2201,68.9159 C51.2045,68.9159 47.1124,64.8237 47.1124,59.8082 C47.0914,54.7927 51.1836,50.7006 56.2201,50.7006 Z" fill="#000000" fill-opacity="1" />
		<path d="M0,85.6839 L-3.64308,85.6839 L-3.64308,85.6839 L-3.64308,85.6839 C-3.64308,88.7076 -6.08395,91.1485 -9.10771,91.1485 C-12.1315,91.1485 -14.5723,88.7076 -14.5723,85.6839 L-14.5723,85.6839 L-18.2154,85.6839 L-18.2154,85.6839 L-18.2154,85.6839 C-18.2154,90.7113 -14.1352,94.7916 -9.10771,94.7916 C-4.08026,94.7916 0,90.7113 0,85.6839 L0,85.6839 Z" fill="#4d4d4d" fill-opacity="1" />
		<path d="M18.2074,85.6598 L14.5643,85.6598 L14.5643,85.6598 L14.5643,85.6598 C14.5643,88.6835 12.1234,91.1244 9.09967,91.1244 C6.07592,91.1244 3.63505,88.6835 3.63505,85.6598 L3.63505,85.6598 L-0.00803683,85.6598 L-0.00803683,85.6598 L-0.00803683,85.6598 C-0.00803683,90.6872 4.07222,94.7675 9.09967,94.7675 C14.1271,94.7675 18.2074,90.6872 18.2074,85.6598 L18.2074,85.6598 Z" fill="#4d4d4d" fill-opacity="1" />
		<path d="M-56.2417,76.5682 L-68.3955,76.5682 C-73.4417,76.5682 -77.5032,80.6297 -77.5032,85.6759 L-77.5032,85.6759 C-77.5032,90.722 -73.4417,94.7835 -68.3955,94.7835 L-56.2417,94.7835 C-51.1956,94.7835 -47.134,90.722 -47.134,85.6759 L-47.134,85.6759 C-47.134,80.6605 -51.1956,76.5682 -56.2417,76.5682 Z" fill="#ffb938" fill-opacity="1" />
		<path d="M68.3658,76.5602 L56.2119,76.5602 C51.1658,76.5602 47.1043,80.6217 47.1043,85.6678 L47.1043,85.6678 C47.1043,90.714 51.1658,94.7755 56.2119,94.7755 L68.3658,94.7755 C73.4119,94.7755 77.4734,90.714 77.4734,85.6678 L77.4734,85.6678 C77.4734,80.6525 73.4119,76.5602 68.3658,76.5602 Z" fill="#ffb938" fill-opacity="1" />
		<path d="M4.01574e-05,68.9159 C5.03654,68.9159 9.10771,73.008 9.10771,78.0236 C9.10771,83.0601 5.01556,87.1312 4.01574e-05,87.1312 C-5.01548,87.1312 -9.10763,83.0391 -9.10763,78.0236 C-9.12861,73.008 -5.03646,68.9159 4.01574e-05,68.9159 Z" fill="#000000" fill-opacity="1" />
	</g>
</svg>