<?xml version="1.0" encoding="utf-8"?>
<!-- Generator: Adobe Illustrator 16.0.0, SVG Export Plug-In . SVG Version: 6.00 Build 0)  -->
<!DOCTYPE svg PUBLIC "-//W3C//DTD SVG 1.1//EN" "http://www.w3.org/Graphics/SVG/1.1/DTD/svg11.dtd">
<svg version="1.1" id="Layer_1" xmlns="http://www.w3.org/2000/svg" xmlns:xlink="http://www.w3.org/1999/xlink" x="0px" y="0px"
	 width="400px" height="400px" viewBox="0 0 400 400" enable-background="new 0 0 400 400" xml:space="preserve">
<g id="XMLID_1_">
	<g>
		<polygon fill="#4990B7" points="188.398,0.091 188.398,250.852 125.599,313.651 125.599,62.454 126.035,62.454 		"/>
		<polygon fill="#486FB5" points="125.599,313.651 188.398,250.852 188.398,251.288 188.398,313.651 126.035,400 125.599,400 		"/>
		<polygon fill="#4A4ABA" points="125.599,313.651 125.599,400 125.163,400 0.436,345.051 0,345.051 0,258.702 0.436,258.702 
			125.163,313.651 		"/>
	</g>
	<g>
	</g>
</g>
<g id="XMLID_2_">
	<g>
		<polygon fill="#7C4ACC" points="400,31.227 289.307,203.419 259.085,250.432 265.705,148.923 266.551,148.976 337.2,39.077 		"/>
		<polygon fill="#A04CCC" points="257.515,274.496 259.085,250.432 289.307,203.419 290.101,203.925 392.149,329.523 400,400.173 
			258.701,274.574 		"/>
		<polygon fill="#4F49CE" points="250.852,376.623 211.165,313.823 211.165,-0.173 274.401,15.527 265.705,148.923 259.085,250.432 
			257.515,274.496 		"/>
	</g>
	<g>
	</g>
</g>
</svg>
