<?xml version="1.0" encoding="utf-8"?>
<!-- Generator: Adobe Illustrator 16.0.0, SVG Export Plug-In . SVG Version: 6.00 Build 0)  -->
<!DOCTYPE svg PUBLIC "-//W3C//DTD SVG 1.1//EN" "http://www.w3.org/Graphics/SVG/1.1/DTD/svg11.dtd">
<svg version="1.1" xmlns="http://www.w3.org/2000/svg" xmlns:xlink="http://www.w3.org/1999/xlink" x="0px" y="0px" width="400px"
	 height="400px" viewBox="0 0 400 400" enable-background="new 0 0 400 400" xml:space="preserve">
<g id="Layer_1" display="none">
	<g id="XMLID_1_" display="inline">
		<g>
			<polygon fill="#94ABAB" points="199,355.5 45,355.5 154.22,245.92 199.5,355 199.5,355.5 			"/>
			<polygon fill="#C6FAFA" points="44.5,356 44.5,200 154.22,245.92 45,355.5 			"/>
			<polygon fill="#94ABAB" points="355,355.5 199.5,355.5 199.5,355 246.72,245.92 355.5,355 			"/>
			<polygon fill="#708F8F" points="246.72,245.92 355.5,200 355.5,355 			"/>
			<polygon fill="#A9F7F7" points="355.5,44.5 355.5,45 246.72,153.42 199.5,45.64 199.5,44.5 			"/>
			<polygon fill="#708F8F" points="246.72,153.42 355.5,45 355.5,199.5 354.33,199.5 			"/>
			<polygon fill="#C6FAFA" points="355.5,200 246.72,245.92 200.47,199.67 200.64,199.5 354.33,199.5 			"/>
			<polygon fill="#A9F7F7" points="354.33,199.5 200.64,199.5 246.72,153.42 			"/>
			<polygon fill="#ADCFCF" points="199.5,45.64 246.72,153.42 200.64,199.5 200.3,199.5 199.5,198.7 			"/>
			<polygon fill="#A9F7F7" points="246.72,245.92 199.5,355 199.5,200.64 200.47,199.67 			"/>
			<polygon fill="#4D7D7D" points="199.5,200.64 199.5,355 154.22,245.92 			"/>
			<polygon fill="#A9F7F7" points="199.5,199.5 199.5,200.64 154.22,245.92 44.5,200 45.68,199.5 			"/>
			<polygon fill="#94ABAB" points="199.5,198.7 199.5,199.5 45.68,199.5 154.22,153.42 			"/>
			<polygon fill="#708F8F" points="199.5,45.64 199.5,198.7 154.22,153.42 199,44.5 			"/>
			<polygon fill="#A9F7F7" points="199,44.5 154.22,153.42 45,44.5 			"/>
			<polygon fill="#C6FAFA" points="45.68,199.5 44.5,200 44.5,44.5 45,44.5 154.22,153.42 			"/>
		</g>
		<g>
		</g>
	</g>
</g>
<g id="Layer_1_copy" display="none">
	<g id="XMLID_2_" display="inline">
		<g>
			<polygon fill="#B6FFFF" points="365.5,35 356,199.42 354.74,199.42 209.72,190.42 			"/>
			<polygon fill="#C8FFFF" points="356,199.5 365.5,365 209.72,208.92 			"/>
			<polygon fill="#B6FFFF" points="209.72,208.92 365.5,365 200.5,355.06 200.5,355 200.5,340.71 			"/>
			<polygon fill="#DAFFFF" points="365.5,35 209.72,190.42 200.5,58.33 200.5,44 200.5,43.95 			"/>
			<polygon fill="#B6FFFF" points="356,199.42 356,199.5 354.74,199.42 			"/>
			<polygon fill="#628080" points="356,199.5 209.72,208.92 200.5,199.7 200.5,199.67 354.74,199.42 			"/>
			<polygon fill="#3B8080" points="354.74,199.42 200.5,199.67 200.5,199.64 209.72,190.42 			"/>
			<polygon fill="#628080" points="200.5,58.33 209.72,190.42 200.5,199.64 			"/>
			<polygon fill="#528080" points="209.72,208.92 200.5,340.71 200.5,199.7 			"/>
			<polygon fill="#B6FFFF" points="200.5,355 200.5,355.06 199.5,355 200.5,340.71 			"/>
			<polygon fill="#7ABFBF" points="200.5,199.7 200.5,340.71 199.5,355 191.22,208.92 200.47,199.67 			"/>
			<polygon fill="#133030" points="200.5,199.67 200.5,199.7 200.47,199.67 			"/>
			<polygon fill="#1E4040" points="200.5,58.33 200.5,199.64 200.47,199.67 191.22,190.42 199.5,44 			"/>
			<polygon fill="#DAFFFF" points="200.5,44 200.5,58.33 199.5,44 200.5,43.95 			"/>
			<polygon fill="#628080" points="200.47,199.67 191.22,208.92 44.5,200 45.75,199.92 			"/>
			<polygon fill="#92BFBF" points="200.47,199.67 45.75,199.92 191.22,190.42 			"/>
			<polygon fill="#DAFFFF" points="199.5,44 191.22,190.42 34.5,34 			"/>
			<polygon fill="#B6FFFF" points="191.22,208.92 199.5,355 34.5,366 			"/>
			<polygon fill="#DAFFFF" points="191.22,208.92 34.5,366 44.5,200 			"/>
			<polygon fill="#C8FFFF" points="45.75,199.92 44.5,200 34.5,34 191.22,190.42 			"/>
		</g>
		<g>
		</g>
	</g>
</g>
<g id="Layer_1_copy_2" display="none">
	<g id="XMLID_3_" display="inline">
		<g>
			<polygon fill="#E1FFFF" points="199.5,49 307.72,190.42 199.5,199.67 			"/>
			<polygon fill="#375959" points="366,199.5 200.4,199.75 199.5,199.67 307.72,190.42 			"/>
			<polygon fill="#375959" points="366,199.5 307.72,208.92 200.4,199.75 			"/>
			<polygon fill="#375959" points="199.47,199.67 198.5,199.75 34.5,200 91.22,190.42 			"/>
			<polygon fill="#A8D1D1" points="355.5,35 307.72,190.42 199.5,49 			"/>
			<polygon fill="#8BC2C2" points="355.5,35 366,199.5 307.72,190.42 			"/>
			<polygon fill="#8BC2C2" points="307.72,208.92 355.5,365 199.5,350 			"/>
			<polygon fill="#6EB3B3" points="366,199.5 355.5,365 307.72,208.92 			"/>
			<polygon fill="#6EB3B3" points="91.22,208.92 199.5,350 45.5,366 			"/>
			<polygon fill="#8BC2C2" points="198.5,199.75 91.22,208.92 34.5,200 			"/>
			<polygon fill="#A5FFFF" points="199.5,49 199.5,199.67 199.47,199.67 91.22,190.42 			"/>
			<polygon fill="#A5FFFF" points="199.5,199.75 199.5,350 91.22,208.92 198.5,199.75 			"/>
			<polygon fill="#E1FFFF" points="307.72,208.92 199.5,350 199.5,199.75 200.4,199.75 			"/>
			<polygon fill="#E1FFFF" points="199.5,49 91.22,190.42 45.5,34 			"/>
			<polygon fill="#C3FFFF" points="45.5,34 91.22,190.42 34.5,200 			"/>
			<polygon fill="#C3FFFF" points="91.22,208.92 45.5,366 34.5,200 			"/>
		</g>
		<g>
		</g>
	</g>
</g>
<g id="Layer_1_copy_3">
	<g id="XMLID_4_">
		<g>
			<polygon fill="#92BFBF" points="351.25,199.25 350.92,199.5 200.6,199.5 200.58,199.22 209.83,90.97 			"/>
			<polygon fill="#ADD1D1" points="366.25,45.25 351.25,199.25 209.83,90.97 			"/>
			<polygon fill="#ADD1D1" points="350.92,199.5 351.25,199.25 365.25,355.25 209.83,307.47 			"/>
			<polygon fill="#C8FFFF" points="350.92,199.5 209.83,307.47 200.6,199.5 			"/>
			<polygon fill="#598686" points="200.6,199.5 209.83,307.47 200.75,365.75 200.5,200.15 200.56,199.5 			"/>
			<polygon fill="#59BFBF" points="200.5,200.15 200.75,365.75 191.33,307.47 			"/>
			<polygon fill="#314040" points="365.25,355.25 200.75,365.75 209.83,307.47 			"/>
			<polygon fill="#628080" points="191.33,307.47 200.75,365.75 35.25,355.25 			"/>
			<polygon fill="#DBFFFF" points="191.33,307.47 35.25,355.25 50.23,199.5 50.58,199.5 			"/>
			<polygon fill="#DBFFFF" points="191.33,90.97 50.25,199.25 34.25,45.25 			"/>
			<polygon fill="#C8FFFF" points="200.5,199.5 200.5,200.15 191.33,307.47 50.58,199.5 			"/>
			<polygon fill="#92BFBF" points="191.33,90.97 200.5,198.25 200.5,199.5 50.58,199.5 50.25,199.25 			"/>
			<polygon fill="#ADFFFF" points="200.5,198.25 191.33,90.97 200.25,34.25 			"/>
			<polygon fill="#C8E0E0" points="200.25,34.25 209.83,90.97 200.58,199.22 200.5,198.25 			"/>
			<polygon fill="#E4FFFF" points="366.25,45.25 209.83,90.97 200.25,34.25 			"/>
			<polygon fill="#C8FFFF" points="200.25,34.25 191.33,90.97 34.25,45.25 			"/>
		</g>
		<g>
		</g>
	</g>
</g>
</svg>
