<?xml version="1.0" encoding="utf-8" ?>
<!-- Generator: Assembly 1.0 - http://assemblyapp.co -->
<svg version="1.1" xmlns="http://www.w3.org/2000/svg" xmlns:xlink="http://www.w3.org/1999/xlink" width="300" height="300" viewBox="0 0 300 300">
	<g id="widget" transform="matrix(1,0,0,1,150,150)">
		<path d="M-50.7148,-5.38148 C-50.5804,-7.05126 -50.6264,-8.5675 -50.659,-10.2507 C-51.9265,-40.4355 -70.2163,-118.039 -71.6845,-120.678 C-71.6845,-120.678 -71.6845,-120.678 -71.6845,-120.678 C-73.6055,-126.043 -78.4995,-129.966 -84.6777,-130.463 C-90.689,-130.947 -96.161,-127.69 -99.0689,-122.883 L-99.0689,-122.883 C-99.0689,-122.883 -99.0689,-122.883 -99.0689,-122.883 C-99.2628,-122.562 -99.2762,-122.395 -99.4701,-122.075 C-103.702,-113.34 -132.665,-43.7418 -137.776,-15.751 C-138.023,-14.7625 -138.117,-13.5937 -138.198,-12.5918 C-138.238,-12.0909 -138.292,-11.4229 -138.332,-10.922 C-140.281,13.2898 -122.151,34.4124 -98.1058,36.348 C-74.0609,38.2835 -52.7714,20.1662 -50.8358,-3.87868 C-50.8089,-4.21261 -50.7686,-4.71358 -50.7148,-5.38148 Z" fill="#000000" fill-opacity="1" />
		<path d="M-77.4303,-19.3709 C-77.311,-20.422 -77.3088,-21.38 -77.2946,-22.443 C-77.4715,-41.521 -87.4137,-90.8798 -88.2859,-92.5758 C-88.2859,-92.5758 -88.2859,-92.5758 -88.2859,-92.5758 C-89.3877,-96.0014 -92.3956,-98.5786 -96.2849,-99.02 C-100.069,-99.4495 -103.59,-97.5069 -105.525,-94.5324 L-105.525,-94.5324 C-105.525,-94.5324 -105.525,-94.5324 -105.525,-94.5324 C-105.654,-94.3341 -105.666,-94.229 -105.795,-94.0307 C-108.646,-88.605 -128.363,-45.2744 -132.167,-27.7128 C-132.343,-27.0941 -132.427,-26.3583 -132.498,-25.7276 C-132.534,-25.4122 -132.582,-24.9918 -132.618,-24.6764 C-134.348,-9.43482 -123.34,4.27136 -108.204,5.98936 C-93.067,7.70736 -79.2557,-3.28833 -77.5377,-18.4248 C-77.5138,-18.6351 -77.478,-18.9504 -77.4303,-19.3709 Z" fill="#fec2c2" fill-opacity="1" />
		<path d="M42.1165,-9.99711 C41.8168,-11.6453 41.7119,-13.1586 41.577,-14.8367 C39.8379,-44.998 50.3234,-124.035 51.522,-126.807 C51.522,-126.807 51.522,-126.807 51.522,-126.807 C52.9003,-132.336 57.3801,-136.726 63.4783,-137.835 C69.4117,-138.914 75.1803,-136.218 78.5517,-131.723 L78.5517,-131.723 C78.5517,-131.723 78.5517,-131.723 78.5517,-131.723 C78.7765,-131.423 78.8064,-131.258 79.0312,-130.959 C84.1108,-122.688 119.848,-56.3132 127.715,-28.9689 C128.06,-28.01 128.27,-26.8563 128.45,-25.8674 C128.54,-25.3729 128.66,-24.7137 128.75,-24.2193 C133.095,-0.321037 117.154,22.4991 93.4206,26.8151 C69.6872,31.1311 46.7023,15.2196 42.3862,-8.51378 C42.3263,-8.84338 42.2364,-9.33786 42.1165,-9.99711 Z" fill="#000000" fill-opacity="1" />
		<path d="M67.7071,-26.5925 C67.4839,-27.6266 67.3864,-28.5796 67.2667,-29.636 C65.5464,-48.6371 70.5332,-98.7396 71.2325,-100.514 C71.2325,-100.514 71.2325,-100.514 71.2325,-100.514 C71.9883,-104.032 74.7252,-106.896 78.5513,-107.721 C82.274,-108.525 85.9707,-106.942 88.1914,-104.174 L88.1914,-104.174 C88.1914,-104.174 88.1914,-104.174 88.1914,-104.174 C88.3394,-103.99 88.3618,-103.886 88.5098,-103.702 C91.8867,-98.5866 115.813,-57.4304 121.343,-40.3339 C121.58,-39.7357 121.737,-39.0119 121.871,-38.3914 C121.938,-38.0812 122.027,-37.6676 122.094,-37.3573 C125.33,-22.3632 115.739,-7.6307 100.849,-4.41667 C85.9579,-1.20264 71.122,-10.7711 67.908,-25.6618 C67.8633,-25.8686 67.7964,-26.1789 67.7071,-26.5925 Z" fill="#fec2c2" fill-opacity="1" />
		<path d="M144.059,8.74868 C147.079,69.3712 84.2208,121.86 4.17213,125.848 C-76.2114,129.853 -143.641,83.8556 -146.661,23.2331 C-149.682,-37.3898 -86.8233,-89.8785 -6.7746,-93.8667 C73.2741,-97.855 141.039,-51.8742 144.059,8.74868 Z" fill="#000000" fill-opacity="1" />
		<path d="M-78.9076,-7.68654 C-57.0606,-8.77501 -38.5166,8.09581 -37.4326,29.8518 C-36.3442,51.6987 -53.215,70.2427 -74.971,71.3266 C-96.7269,72.4105 -115.362,55.5443 -116.446,33.7884 C-117.621,12.037 -100.755,-6.59807 -78.9076,-7.68654 Z" fill="#ffffff" fill-opacity="1" />
		<path d="M-58.9593,30.9242 C-58.0863,48.4453 -60.8805,62.8235 -65.2002,63.0387 C-69.5199,63.2539 -73.7294,49.2247 -74.6024,31.7036 C-75.4753,14.1825 -72.6811,-0.19564 -68.3614,-0.410859 C-64.0417,-0.626078 -59.8322,13.4031 -58.9593,30.9242 Z" fill="#000000" fill-opacity="1" />
		<path d="M81.1467,-15.6703 C59.2997,-14.5818 42.5245,4.04872 43.6084,25.8047 C44.6969,47.6517 63.3274,64.4268 85.0833,63.3429 C106.839,62.259 123.706,43.6239 122.622,21.8681 C121.629,0.107552 102.994,-16.7587 81.1467,-15.6703 Z" fill="#ffffff" fill-opacity="1" />
		<path d="M65.135,24.7321 C66.008,42.2532 70.2175,56.2824 74.5372,56.0672 C78.8569,55.852 81.6511,41.4739 80.7781,23.9527 C79.9052,6.43164 75.6957,-7.59756 71.376,-7.38234 C67.0563,-7.16712 64.2621,7.21101 65.135,24.7321 Z" fill="#000000" fill-opacity="1" />
		<path d="M13.147,57.9026 L1.3221,67.5067 L-11.3706,59.1241 L13.147,57.9026 Z" fill="#fec2c2" fill-opacity="1" />
	</g>
</svg>