<?xml version="1.0" encoding="utf-8"?>
<!-- Generator: Adobe Illustrator 16.0.0, SVG Export Plug-In . SVG Version: 6.00 Build 0)  -->
<!DOCTYPE svg PUBLIC "-//W3C//DTD SVG 1.1//EN" "http://www.w3.org/Graphics/SVG/1.1/DTD/svg11.dtd">
<svg version="1.1" xmlns="http://www.w3.org/2000/svg" xmlns:xlink="http://www.w3.org/1999/xlink" x="0px" y="0px" width="291px"
	 height="400px" viewBox="0 0 291 400" enable-background="new 0 0 291 400" xml:space="preserve">
<g id="Layer_5">
	<g>
		<path fill="#EFE0BD" d="M113.672,285.491c0,0-0.278,0.332-0.818,0.977c-0.542,0.643-1.315,1.616-2.463,2.785
			c-2.254,2.361-5.724,5.744-10.892,9.152c-5.173,3.332-12.021,6.829-20.583,8.726c-8.501,1.913-18.704,2.444-29.385-0.133
			c-2.679-0.586-5.341-1.478-8.033-2.446c-2.653-1.062-5.355-2.199-7.956-3.65c-1.333-0.669-2.591-1.493-3.899-2.261
			c-1.246-0.858-2.56-1.653-3.773-2.604c-0.617-0.463-1.236-0.928-1.857-1.395c-0.599-0.495-1.2-0.993-1.802-1.492l-0.453-0.376
			l-0.227-0.188c-0.109-0.101,0.084,0.092-0.274-0.25l-0.1-0.096l-0.797-0.767c-0.532-0.512-1.066-1.025-1.602-1.541l-0.805-0.775
			l-0.404-0.388l-0.414-0.477c-0.551-0.646-1.104-1.296-1.659-1.947c-0.549-0.659-1.1-1.321-1.652-1.984
			c-0.468-0.685-0.938-1.371-1.409-2.06c-0.468-0.691-0.938-1.386-1.409-2.082c-0.482-0.69-0.831-1.462-1.252-2.195
			c-0.794-1.493-1.679-2.96-2.287-4.565c-2.8-6.26-4.41-13.229-4.662-20.386c-0.267-7.157,0.909-14.514,3.538-21.453
			c0.714-1.711,1.301-3.49,2.23-5.116c0.884-1.644,1.656-3.365,2.75-4.898c1.048-1.558,2.007-3.194,3.259-4.61l1.797-2.192
			l0.452-0.548l0.226-0.273c-0.145,0.142,0.326-0.347,0.317-0.337l0.113-0.113l0.903-0.902l1.81-1.807
			c0.757-0.656,1.583-1.328,2.382-1.983c1.615-1.412,3.255-2.339,4.901-3.453c0.822-0.539,1.724-0.944,2.587-1.419
			c0.88-0.44,1.727-0.958,2.656-1.295l2.749-1.102c0.909-0.393,1.882-0.595,2.823-0.896c1.882-0.621,3.836-0.945,5.782-1.308
			c0.968-0.217,1.965-0.227,2.948-0.344c0.987-0.066,1.971-0.236,2.963-0.196l2.974,0.01c0.993-0.026,1.977,0.152,2.965,0.224
			c1.985,0.127,3.927,0.561,5.875,0.951c0.491,0.083,0.97,0.211,1.443,0.366l1.427,0.433l1.424,0.438l0.711,0.223l0.689,0.282
			c1.836,0.762,3.694,1.477,5.412,2.482c0.864,0.488,1.771,0.903,2.591,1.462l2.465,1.661c0.841,0.529,1.591,1.174,2.35,1.808
			l1.137,0.949l0.567,0.476l0.283,0.238l0.142,0.12c0.141,0.133-0.116-0.13,0.352,0.328l1.806,1.847l0.452,0.462l0.52,0.621
			l1.04,1.277l1.021,1.29c0.296,0.428,0.559,0.854,0.838,1.282c0.527,0.869,1.144,1.685,1.58,2.603
			c2.008,3.537,3.274,7.437,4.029,11.37c1.555,7.899,0.311,16.146-3.034,23.232c-0.917,1.73-1.8,3.482-2.959,5.048
			c-0.558,0.795-1.077,1.617-1.729,2.333l-0.936,1.104l-0.469,0.549l-0.235,0.274l-0.118,0.137c-0.125,0.134,0.114-0.107-0.31,0.335
			l-1.781,1.706c-0.725,0.637-1.649,1.346-2.477,1.988c-0.848,0.629-1.672,1.089-2.512,1.629c-0.833,0.523-1.742,0.91-2.611,1.358
			c-7.116,3.295-15.251,3.715-22.333,1.414c-3.546-1.128-6.831-2.896-9.672-5.12c-0.682-0.588-1.361-1.175-2.038-1.76l-0.126-0.11
			c-0.389-0.368-0.164-0.161-0.275-0.271l-0.194-0.207l-0.389-0.413l-0.775-0.826c-0.619-0.759-1.275-1.571-1.824-2.357
			c-0.474-0.783-0.993-1.536-1.402-2.346c-3.405-6.438-3.732-13.984-1.392-20.25c1.155-3.14,2.943-5.964,5.127-8.275l0.198-0.223
			c0.091-0.096-0.064,0.059,0.23-0.243l0.093-0.086l0.372-0.342l0.74-0.681c0.667-0.528,1.403-1.139,2.088-1.571
			c0.692-0.417,1.357-0.869,2.091-1.189l1.077-0.51l1.111-0.407c5.947-2.146,12.394-1.104,17.068,1.889
			c0.584,0.376,1.129,0.803,1.682,1.202c0.521,0.44,1.019,0.9,1.516,1.349c0.013,0.008,0.242,0.238,0.178,0.179l0.072,0.08
			l0.145,0.16l0.287,0.32c0.19,0.21,0.374,0.404,0.616,0.731c0.461,0.588,0.896,1.181,1.208,1.752
			c1.39,2.301,2.082,4.867,2.18,7.335c0.257,4.963-2.063,9.481-5.155,12.081c-3.384,2.845-7.52,3.349-10.767,2.489
			c-1.634-0.419-3.064-1.164-4.223-2.069c-1.154-0.907-2.059-1.958-2.674-3.116c-1.216-2.28-1.208-4.538-0.862-6.169
			c0.382-1.656,1.098-2.751,1.618-3.411c0.25-0.344,0.487-0.562,0.632-0.719c0.147-0.154,0.223-0.232,0.223-0.232
			s-0.063,0.088-0.188,0.262c-0.121,0.176-0.322,0.421-0.516,0.791c-0.419,0.711-0.923,1.862-1.087,3.417
			c-0.129,1.536,0.15,3.536,1.417,5.307c0.598,0.86,1.489,1.656,2.54,2.298c1.043,0.645,2.271,1.115,3.604,1.305
			c1.329,0.186,2.765,0.113,4.143-0.334c0.681-0.24,1.37-0.508,1.992-0.921c0.33-0.173,0.612-0.429,0.919-0.643
			c0.284-0.251,0.489-0.423,0.793-0.732c1.122-1.209,1.964-2.597,2.519-4.182c0.547-1.574,0.748-3.323,0.497-5.056
			c-0.23-1.73-0.874-3.445-1.953-4.894c-0.261-0.394-0.538-0.677-0.796-0.969c-0.184-0.24-0.885-0.851-1.062-1.017
			c-0.387-0.285-0.777-0.572-1.169-0.861c-0.424-0.238-0.829-0.509-1.261-0.734c-3.446-1.773-7.867-2.132-11.626-0.4l-0.702,0.315
			l-0.666,0.39c-0.461,0.229-0.859,0.567-1.287,0.854c-0.415,0.304-0.675,0.585-1.055,0.885l-0.694,0.729l-0.348,0.365l-0.087,0.092
			c0.235-0.242,0.029-0.02,0.065-0.052l-0.125,0.166c-1.413,1.713-2.488,3.716-3.119,5.879c-1.29,4.313-0.757,9.283,1.664,13.259
			c0.287,0.504,0.663,0.954,0.978,1.441c0.342,0.413,0.653,0.754,0.975,1.169l0.812,0.789l0.407,0.396l0.204,0.198
			c-0.043-0.044,0.241,0.237-0.072-0.074l0.093,0.071l1.473,1.154c2.039,1.438,4.332,2.528,6.769,3.178
			c4.863,1.303,10.304,0.846,14.893-1.511c0.553-0.329,1.15-0.58,1.677-0.953c0.509-0.371,1.109-0.723,1.556-1.09l1.333-1.114
			l1.736-1.752c-0.357,0.364-0.054,0.043-0.113,0.098l0.08-0.101l0.16-0.202l0.321-0.402l0.646-0.802
			c0.463-0.512,0.797-1.116,1.179-1.688c0.806-1.116,1.365-2.383,1.997-3.604c1.114-2.522,1.812-5.228,2.135-7.982
			c0.364-2.756,0.193-5.584-0.361-8.317c-0.577-2.724-1.47-5.42-2.91-7.827c-0.294-0.638-0.758-1.177-1.121-1.774l-0.576-0.87
			l-0.593-0.722l-0.575-0.735c-0.1-0.127-0.176-0.243-0.294-0.38l-0.454-0.459l-1.816-1.837c0.396,0.377,0.048,0.055,0.109,0.116
			l-0.107-0.087l-0.214-0.175l-0.428-0.35l-0.853-0.702c-0.566-0.472-1.12-0.962-1.754-1.338l-1.834-1.229
			c-0.605-0.42-1.291-0.702-1.93-1.066c-1.267-0.757-2.659-1.251-4.014-1.822l-0.509-0.213l-0.53-0.155l-1.059-0.314
			c-0.711-0.187-1.395-0.48-2.125-0.592c-1.446-0.281-2.88-0.639-4.357-0.723c-0.734-0.051-1.463-0.215-2.202-0.184l-2.212-0.019
			c-0.739-0.051-1.47,0.1-2.205,0.139c-0.73,0.091-1.477,0.065-2.196,0.239c-1.446,0.277-2.908,0.483-4.304,0.956
			c-2.851,0.739-5.519,2.008-8.08,3.408c-1.194,0.804-2.57,1.541-3.53,2.396l-1.604,1.234l-1.837,1.778l-0.917,0.888l-0.114,0.111
			c-0.086,0.083,0.314-0.326,0.103-0.102l-0.181,0.217l-0.363,0.434l-1.457,1.726c-1.04,1.1-1.778,2.414-2.66,3.623
			c-0.922,1.188-1.541,2.556-2.29,3.842c-0.795,1.269-1.267,2.688-1.886,4.035c-2.24,5.491-3.341,11.377-3.358,17.183
			c-0.017,5.814,1.128,11.53,3.162,16.774c0.423,1.352,1.114,2.575,1.707,3.839c0.321,0.618,0.566,1.279,0.944,1.861
			c0.365,0.592,0.728,1.181,1.09,1.769c0.361,0.59,0.721,1.179,1.08,1.765l1.185,1.553c0.388,0.523,0.774,1.046,1.16,1.566
			l0.292,0.395l0.381,0.41l0.761,0.818c0.506,0.545,1.011,1.087,1.514,1.628l0.753,0.81l0.094,0.102
			c-0.29-0.281-0.026-0.028-0.066-0.068l0.188,0.174l0.376,0.349c0.501,0.466,1.001,0.929,1.498,1.391
			c0.52,0.437,1.038,0.872,1.553,1.306c1.013,0.895,2.125,1.643,3.172,2.464c1.112,0.723,2.16,1.539,3.294,2.194
			c2.2,1.432,4.518,2.579,6.806,3.683c2.327,1.011,4.647,1.956,6.997,2.666c4.676,1.512,9.367,2.314,13.871,2.663
			c4.507,0.353,8.84,0.191,12.872-0.349c8.078-1.101,14.901-3.616,20.208-6.283c5.27-2.758,9.133-5.542,11.611-7.597
			c1.26-1.006,2.185-1.853,2.807-2.414C113.349,285.78,113.672,285.491,113.672,285.491z"/>
	</g>
</g>
<g id="Layer_1">
	<g id="XMLID_29_">
		<g>
			<path fill="#EAE4C3" d="M288.288,184.751c0,0.723-0.059,1.446-0.175,2.169c-3.126,2.426-5.82,6.776-7.791,12.398
				c-14.87,12.853-49.347,21.833-93.036,21.833c-44.471,0-79.927-9.295-94.61-22.533c-1.843-5.54-4.339-9.773-7.196-12.036
				c-0.093-0.606-0.128-1.213-0.128-1.831c0-20.107,43.071-36.412,101.935-36.412S288.288,164.644,288.288,184.751z"/>
			<path fill="#EAE4C3" d="M280.322,199.318c1.971-5.622,4.665-9.972,7.791-12.398C287.46,191.306,284.766,195.493,280.322,199.318z
				"/>
			<path fill="#EFE9D3" d="M280.322,199.318c-2.193,6.24-3.499,14.03-3.499,22.498v143.455c0,18.078-40.261,33.182-90.213,33.182
				c-50.373,0-90.563-15.104-90.563-33.182V221.816c0-8.794-1.26-16.854-3.371-23.198c14.684,13.238,50.139,22.533,94.61,22.533
				C230.976,221.151,265.452,212.171,280.322,199.318z"/>
			<path fill="#EAE4C3" d="M85.479,186.583c2.857,2.263,5.354,6.496,7.196,12.036C88.512,194.887,86.028,190.828,85.479,186.583z"/>
		</g>
		<g>
		</g>
	</g>
	<ellipse fill="#CEC7A7" cx="186.612" cy="186.967" rx="91.138" ry="31.133"/>
</g>
<g id="Layer_2">
	<g id="XMLID_5_">
		<g>
			<path fill="#8C35EF" d="M112.407,15.614c-0.05-1.959,3.897-3.658,8.817-3.783c4.92-0.125,8.948,1.371,8.998,3.33
				c0.05,1.958-3.897,3.646-8.817,3.771C116.485,19.057,112.457,17.572,112.407,15.614z"/>
			<path fill="#B573F4" d="M109.444,15.188c-0.067-2.658,5.299-4.965,12.003-5.136c6.692-0.17,12.169,1.861,12.237,4.519
				c0.068,2.67-5.298,4.977-11.991,5.146C114.989,19.888,109.512,17.857,109.444,15.188z M121.224,11.831
				c-4.92,0.125-8.867,1.824-8.817,3.783c0.05,1.958,4.078,3.443,8.998,3.318c4.92-0.125,8.867-1.812,8.817-3.771
				C130.172,13.202,126.145,11.706,121.224,11.831z"/>
			<path fill="#A252E2" d="M110.33,143.08c-1.798-70.655-2.191-127.859-0.886-127.892c0.068,2.67,5.545,4.701,12.249,4.53
				c6.692-0.17,12.059-2.477,11.991-5.146c1.317-0.034,3.821,57.117,5.619,127.771c2.585,101.599,3.7,184.393,2.543,188.937
				l-24.379,0.621l-0.07,0.013C116.027,327.562,112.917,244.771,110.33,143.08z"/>
		</g>
		<g>
		</g>
	</g>
	<g id="XMLID_12_">
		<g>
			<path fill="#BFE538" d="M139.625,5.948c0.087,2.669,5.578,4.662,12.281,4.443c6.691-0.217,12.041-2.562,11.954-5.231
				c1.317-0.042,4.225,57.088,6.521,127.729c3.303,101.578,5.003,184.362,3.891,188.914l-24.386,0.793l-0.07,0.014
				c-1.401-4.342-5.096-87.107-8.402-188.779C139.118,63.19,138.32,5.99,139.625,5.948z"/>
			<path fill="#C6DB03" d="M142.591,6.353c-0.064-1.958,3.871-3.685,8.79-3.845c4.919-0.16,8.958,1.308,9.021,3.266
				c0.063,1.958-3.872,3.673-8.791,3.833C146.693,9.767,142.655,8.312,142.591,6.353z"/>
			<path fill="#E2FC77" d="M160.403,5.774c-0.064-1.958-4.103-3.426-9.021-3.266c-4.919,0.16-8.854,1.887-8.79,3.845
				c0.063,1.958,4.102,3.414,9.021,3.254C156.531,9.447,160.466,7.732,160.403,5.774z M151.906,10.391
				c-6.703,0.218-12.194-1.774-12.281-4.443c-0.086-2.658,5.264-5.002,11.966-5.22c6.691-0.217,12.182,1.774,12.269,4.432
				C163.947,7.829,158.597,10.174,151.906,10.391z"/>
		</g>
		<g>
		</g>
	</g>
	<g id="XMLID_3_">
		<g>
			<path fill="#C911CE" d="M96.684,26.347c-0.075-1.958,3.85-3.707,8.768-3.895c4.918-0.188,8.965,1.256,9.04,3.214
				c0.075,1.958-3.851,3.695-8.769,3.883C100.805,29.738,96.759,28.305,96.684,26.347z"/>
			<path fill="#F255F2" d="M93.716,25.959c-0.102-2.657,5.235-5.032,11.936-5.289c6.689-0.255,12.192,1.705,12.293,4.362
				c0.102,2.669-5.234,5.044-11.924,5.299C99.32,30.588,93.818,28.628,93.716,25.959z M96.684,26.347
				c0.075,1.958,4.121,3.391,9.039,3.203c4.918-0.188,8.844-1.925,8.769-3.883c-0.075-1.958-4.122-3.402-9.04-3.214
				C100.534,22.64,96.609,24.39,96.684,26.347z"/>
			<path fill="#D830D0" d="M96.236,153.83c-2.7-70.626-3.825-127.821-2.52-127.871c0.102,2.669,5.604,4.629,12.306,4.373
				c6.689-0.255,12.026-2.63,11.924-5.299c1.317-0.05,4.551,57.063,7.251,127.689c3.883,101.557,6.055,184.331,4.958,188.889
				l-24.37,0.932l-0.069,0.015C104.29,338.224,100.122,255.479,96.236,153.83z"/>
		</g>
		<g>
		</g>
	</g>
	<g id="XMLID_7_">
		<g>
			<path fill="#C60A49" d="M156.798,152.017c5.893,101.461,9.715,184.174,8.708,188.754l-24.358,1.414l-0.069,0.016
				c-1.512-4.305-7.316-86.949-13.215-188.503c-4.098-70.559-6.354-127.72-5.051-127.796c0.155,2.667,5.695,4.518,12.39,4.129
				c6.683-0.388,11.972-2.868,11.816-5.535C148.336,24.419,152.7,81.458,156.798,152.017z"/>
			<path fill="#F40868" d="M134.478,22.163c4.914-0.285,8.988,1.079,9.102,3.035s-3.776,3.771-8.69,4.056
				c-4.914,0.286-8.988-1.067-9.101-3.023C125.675,24.275,129.564,22.449,134.478,22.163z"/>
			<path fill="#F25A94" d="M143.58,25.198c-0.114-1.956-4.188-3.32-9.102-3.035c-4.913,0.286-8.803,2.112-8.689,4.068
				c0.113,1.956,4.188,3.309,9.101,3.023C139.803,28.969,143.693,27.154,143.58,25.198z M147.02,24.496
				c0.155,2.667-5.133,5.146-11.816,5.535c-6.695,0.389-12.235-1.462-12.39-4.129c-0.154-2.654,5.134-5.135,11.829-5.523
				C141.326,19.99,146.866,21.841,147.02,24.496z"/>
		</g>
		<g>
		</g>
	</g>
	<g id="XMLID_13_">
		<g>
			<path fill="#B50000" d="M163.028,17.188c-0.05-1.959,3.885-3.657,8.805-3.783c4.92-0.125,8.96,1.371,8.999,3.33
				c0.05,1.959-3.886,3.646-8.806,3.771C167.106,20.631,163.078,19.147,163.028,17.188z"/>
			<path fill="#F44545" d="M172.026,20.506c4.92-0.125,8.856-1.812,8.806-3.771c-0.039-1.959-4.078-3.455-8.999-3.33
				c-4.92,0.125-8.855,1.824-8.805,3.783C163.078,19.147,167.106,20.631,172.026,20.506z M172.314,21.292
				c-6.704,0.171-12.181-1.86-12.249-4.53c-0.079-2.658,5.299-4.965,12.003-5.136c6.692-0.17,12.158,1.861,12.237,4.519
				C184.373,18.815,179.007,21.122,172.314,21.292z"/>
			<path fill="#EA2121" d="M160.951,144.654c-1.798-70.655-2.191-127.859-0.886-127.892c0.068,2.67,5.545,4.701,12.249,4.53
				c6.692-0.17,12.059-2.477,11.991-5.146c1.317-0.034,3.821,57.117,5.619,127.771c2.585,101.599,3.7,184.393,2.543,188.938
				l-24.379,0.62l-0.069,0.025C166.64,329.288,163.541,246.439,160.951,144.654z"/>
		</g>
		<g>
		</g>
	</g>
	<g id="XMLID_6_">
		<g>
			<path fill="#37B5ED" d="M147.686,42.133c4.92-0.125,8.96,1.371,8.998,3.33c0.05,1.958-3.886,3.646-8.806,3.771
				c-4.92,0.125-8.948-1.359-8.998-3.318C138.83,43.957,142.765,42.258,147.686,42.133z"/>
			<path fill="#94E2F7" d="M156.684,45.463c-0.038-1.959-4.078-3.455-8.998-3.33c-4.92,0.125-8.855,1.824-8.806,3.782
				c0.05,1.959,4.078,3.443,8.998,3.318C152.798,49.108,156.733,47.421,156.684,45.463z M160.157,44.873
				c0.068,2.67-5.298,4.977-11.991,5.147c-6.704,0.17-12.181-1.86-12.249-4.53c-0.08-2.658,5.298-4.965,12.002-5.135
				C154.612,40.184,160.078,42.215,160.157,44.873z"/>
			<path fill="#72C0DB" d="M165.776,172.645c2.585,101.599,3.7,184.393,2.543,188.938l-24.379,0.62l-0.069,0.025
				c-1.379-4.212-4.479-87.061-7.068-188.846c-1.797-70.655-2.191-127.859-0.885-127.893c0.068,2.67,5.544,4.701,12.249,4.53
				c6.692-0.17,12.059-2.477,11.991-5.147C161.474,44.839,163.979,101.989,165.776,172.645z"/>
		</g>
		<g>
		</g>
	</g>
	<g id="XMLID_14_">
		<g>
			<path fill="#076D07" d="M192.036,332.836c-1.153-4.418,0.077-87.257,2.804-188.945c1.895-70.653,4.489-127.799,5.795-127.764
				c-0.072,2.67,5.292,4.984,11.996,5.164c6.692,0.18,12.172-1.844,12.243-4.514c1.317,0.036,0.833,57.239-1.062,127.891
				c-2.725,101.595-5.936,184.334-7.315,188.812l-24.391-0.654L192.036,332.836z"/>
			<path fill="#0DBA0D" d="M212.562,13.39c4.92,0.132,8.876,1.836,8.812,3.795c-0.052,1.958-4.07,3.438-8.99,3.306
				s-8.865-1.825-8.812-3.783C203.624,14.749,207.643,13.258,212.562,13.39z"/>
			<path fill="#2D8C2D" d="M221.374,17.185c0.064-1.958-3.892-3.663-8.812-3.795s-8.938,1.358-8.991,3.317
				c-0.053,1.958,3.893,3.651,8.812,3.783S221.322,19.144,221.374,17.185z M224.874,16.777c-0.071,2.67-5.551,4.693-12.243,4.514
				c-6.704-0.18-12.067-2.494-11.996-5.164c0.06-2.659,5.55-4.681,12.254-4.501C219.582,11.805,224.934,14.119,224.874,16.777z"/>
		</g>
		<g>
		</g>
	</g>
	<g id="XMLID_15_">
		<g>
			<path fill="#4D6D23" d="M223.244,332.836c-1.153-4.418,0.076-87.258,2.804-188.946c1.895-70.652,4.489-127.799,5.795-127.764
				c-0.071,2.67,5.292,4.984,11.995,5.164c6.692,0.18,12.172-1.844,12.244-4.514c1.317,0.036,0.833,57.238-1.062,127.891
				c-2.726,101.595-5.936,184.334-7.316,188.812l-24.39-0.653L223.244,332.836z"/>
			<path fill="#7EB21B" d="M234.779,16.707c0.053-1.959,4.071-3.45,8.991-3.317c4.92,0.132,8.876,1.836,8.812,3.795
				c-0.053,1.958-4.07,3.438-8.99,3.306C238.671,20.358,234.727,18.666,234.779,16.707z"/>
			<path fill="#759345" d="M234.779,16.707c-0.053,1.958,3.892,3.651,8.812,3.783c4.92,0.132,8.938-1.347,8.99-3.306
				c0.064-1.958-3.892-3.663-8.812-3.795C238.851,13.257,234.832,14.748,234.779,16.707z M243.838,21.29
				c-6.703-0.18-12.066-2.494-11.995-5.164c0.06-2.659,5.551-4.681,12.255-4.501c6.692,0.179,12.044,2.493,11.984,5.151
				C256.01,19.446,250.53,21.47,243.838,21.29z"/>
		</g>
		<g>
		</g>
	</g>
	<g id="XMLID_8_">
		<g>
			<path fill="#1919DD" d="M176.116,21.769c-0.002-1.959,3.973-3.562,8.895-3.568s8.924,1.586,8.915,3.545
				c0.002,1.959-3.973,3.551-8.895,3.557C180.109,25.31,176.118,23.729,176.116,21.769z"/>
			<path fill="#4A4ACC" d="M193.925,21.746c0.009-1.959-3.993-3.552-8.915-3.545s-8.897,1.609-8.895,3.568s3.994,3.541,8.915,3.534
				C189.953,25.297,193.928,23.706,193.925,21.746z M197.412,21.24c0.003,2.671-5.417,4.847-12.112,4.856
				c-6.706,0.008-12.132-2.154-12.136-4.825c-0.015-2.659,5.417-4.835,12.123-4.844C191.982,16.419,197.397,18.581,197.412,21.24z"
				/>
			<path fill="#0E0E96" d="M199.944,149.11c0.131,101.632-0.754,184.429-2.02,188.943l-24.387,0.032l-0.07,0.022
				c-1.277-4.243-2.375-87.143-2.506-188.96c-0.091-70.678,0.897-127.875,2.203-127.876c0.003,2.671,5.43,4.833,12.136,4.825
				c6.694-0.009,12.115-2.185,12.112-4.856C198.73,21.239,199.853,78.433,199.944,149.11z"/>
		</g>
		<g>
		</g>
	</g>
	<g id="XMLID_9_">
		<g>
			<path fill="#FFBE2C" d="M232.852,32.221c1.317,0.036,0.833,57.238-1.062,127.891c-2.725,101.595-5.936,184.334-7.316,188.812
				l-24.39-0.653l-0.07,0.01c-1.153-4.418,0.077-87.257,2.804-188.946c1.895-70.652,4.489-127.799,5.795-127.764
				c-0.071,2.67,5.292,4.984,11.995,5.164C227.3,36.914,232.779,34.891,232.852,32.221z"/>
			<path fill="#FFA300" d="M211.549,32.151c0.053-1.959,4.071-3.449,8.991-3.317s8.876,1.836,8.812,3.795
				c-0.053,1.958-4.07,3.438-8.99,3.306C215.441,35.802,211.496,34.11,211.549,32.151z"/>
			<path fill="#FFD073" d="M211.549,32.151c-0.053,1.958,3.893,3.651,8.812,3.783c4.92,0.132,8.938-1.347,8.99-3.306
				c0.064-1.958-3.892-3.663-8.812-3.795S211.602,30.192,211.549,32.151z M220.607,36.734c-6.703-0.18-12.066-2.494-11.995-5.164
				c0.06-2.659,5.551-4.681,12.255-4.501c6.692,0.179,12.044,2.493,11.984,5.151C232.779,34.891,227.3,36.914,220.607,36.734z"/>
		</g>
		<g>
		</g>
	</g>
	<g id="XMLID_11_">
		<g>
			<path fill="#FF4A03" d="M261.771,25.12c0.12-1.956,4.181-3.33,9.083-3.057c4.926,0.274,8.831,2.092,8.699,4.047
				c-0.098,1.957-4.156,3.319-9.07,3.046C265.567,28.882,261.662,27.076,261.771,25.12z"/>
			<path fill="#F78A59" d="M270.694,29.961c-6.696-0.373-11.979-2.839-11.842-5.506c0.147-2.655,5.694-4.519,12.391-4.146
				c6.684,0.372,11.967,2.838,11.831,5.494C282.926,28.47,277.39,30.334,270.694,29.961z M270.854,22.062
				c-4.902-0.273-8.963,1.102-9.083,3.057c-0.108,1.957,3.797,3.762,8.712,4.036c4.914,0.273,8.973-1.089,9.07-3.046
				C279.685,24.154,275.779,22.336,270.854,22.062z"/>
			<path fill="#F96921" d="M241.146,340.786c-1.014-4.449,2.599-87.219,8.25-188.786c3.927-70.569,8.164-127.617,9.457-127.545
				c-0.137,2.667,5.146,5.134,11.842,5.506c6.695,0.373,12.231-1.492,12.38-4.159c1.304,0.073-0.826,57.238-4.74,127.808
				c-5.646,101.475-11.248,184.087-12.757,188.523l-24.361-1.355L241.146,340.786z"/>
		</g>
		<g>
		</g>
	</g>
	<g id="XMLID_10_">
		<g>
			<path fill="#37087C" d="M240.21,56.257c6.692,0.179,12.172-1.844,12.243-4.514c1.317,0.035,0.833,57.238-1.062,127.891
				c-2.725,101.595-5.936,184.335-7.315,188.812l-24.391-0.654l-0.07,0.01c-1.153-4.417,0.077-87.257,2.805-188.945
				c1.895-70.652,4.489-127.799,5.795-127.764C228.143,53.763,233.506,56.077,240.21,56.257z"/>
			<path fill="#3C10C4" d="M231.15,51.673c0.053-1.958,4.071-3.449,8.991-3.317c4.92,0.132,8.876,1.836,8.812,3.795
				c-0.053,1.958-4.071,3.438-8.991,3.306S231.099,53.632,231.15,51.673z"/>
			<path fill="#7359B2" d="M252.453,51.743c-0.071,2.67-5.551,4.693-12.243,4.514c-6.704-0.18-12.067-2.494-11.995-5.164
				c0.06-2.659,5.551-4.682,12.254-4.502C247.161,46.771,252.513,49.084,252.453,51.743z M239.963,55.457
				c4.92,0.132,8.938-1.347,8.991-3.306c0.063-1.958-3.893-3.663-8.812-3.795c-4.92-0.132-8.938,1.359-8.991,3.317
				C231.099,53.632,235.043,55.325,239.963,55.457z"/>
		</g>
		<g>
		</g>
	</g>
	<g>
		<g id="XMLID_2_">
			<g>
				<path fill="#EAE4C3" d="M187.286,221.151c-4.21,0-8.351-0.093-12.421-0.268l0.128-3.033c3.802,0.164,7.686,0.245,11.617,0.245
					c50.373,0,91.134-13.914,91.134-31.128l10.544-2.228C288.288,204.87,243.117,221.151,187.286,221.151z"/>
				<path fill="#EAE4C3" d="M95.475,186.967c0,15.874,34.639,28.936,79.518,30.883l-0.128,3.033
					c-50.478-2.182-89.514-17.519-89.514-36.144L95.475,186.967z"/>
			</g>
			<g>
			</g>
		</g>
	</g>
</g>
<g id="Layer_3">
	<g id="XMLID_1_">
		<g>
			<path fill="#EFE9D3" d="M280.521,197.616c-2.31,6.321-3.697,14.322-3.697,23.035h-0.583v143.455h0.583
				c0,18.077-40.261,33.181-90.213,33.181c-50.373,0-90.563-15.104-90.563-33.181h-0.583V220.65h0.583
				c0-8.992-1.318-17.227-3.511-23.629c14.054,12.794,47.947,22.964,94.75,22.964C229.308,219.985,265.3,210.76,280.521,197.616z"/>
		</g>
		<g>
		</g>
	</g>
</g>
<g id="Layer_4">
	
		<linearGradient id="SVGID_1_" gradientUnits="userSpaceOnUse" x1="68.9653" y1="268.1846" x2="150.924" y2="315.5034" gradientTransform="matrix(0.9998 -0.0205 0.0205 0.9998 -6.3096 4.1431)">
		<stop  offset="0" style="stop-color:#FFFFFF"/>
		<stop  offset="0.4532" style="stop-color:#EFE9D3"/>
	</linearGradient>
	<path opacity="0.7" fill="url(#SVGID_1_)" d="M122.393,361.429c0.145,7.058-1.889,13.381-5.574,13.456l-6.674,0.137
		c-3.686,0.075-7.431-6.129-7.575-13.188l-2.75-134.193c-0.144-7.058-3.322-21.787,8.17-15.644l6.828,2.959
		c5.323,5.578,4.681,5.221,4.825,12.277L122.393,361.429z"/>
	
		<linearGradient id="SVGID_2_" gradientUnits="userSpaceOnUse" x1="95.3999" y1="277.7178" x2="175.9081" y2="324.1992" gradientTransform="matrix(0.9998 -0.0205 0.0205 0.9998 -6.3096 4.1431)">
		<stop  offset="0" style="stop-color:#FFFFFF"/>
		<stop  offset="0.4532" style="stop-color:#EFE9D3"/>
	</linearGradient>
	<path opacity="0.6" fill="url(#SVGID_2_)" d="M147.075,370.401c0.144,7.058-1.745,13.231-5.43,13.307l-6.674,0.137
		c-3.685,0.076-7.574-5.979-7.718-13.037l-2.751-134.194c-0.144-7.057-1.067-18.953,9.476-15.669l6.768,1.774
		c4.451,3.838,3.436,6.432,3.58,13.486L147.075,370.401z"/>
	
		<linearGradient id="SVGID_3_" gradientUnits="userSpaceOnUse" x1="121.1567" y1="282.0586" x2="201.8485" y2="328.646" gradientTransform="matrix(0.9998 -0.0205 0.0205 0.9998 -6.3096 4.1431)">
		<stop  offset="0" style="stop-color:#FFFFFF"/>
		<stop  offset="0.4532" style="stop-color:#EFE9D3"/>
	</linearGradient>
	<path opacity="0.5" fill="url(#SVGID_3_)" d="M172.824,374.612c0.146,7.059-1.533,13.155-5.22,13.23l-6.672,0.136
		c-3.685,0.076-6.62-5.926-6.765-12.983l-2.75-134.194c-0.144-7.058-3.756-17.829,7.767-15.634l6.399,0.598
		c4.449,3.836,4.347,7.598,4.49,14.654L172.824,374.612z"/>
	
		<linearGradient id="SVGID_4_" gradientUnits="userSpaceOnUse" x1="145.8833" y1="283.4346" x2="226.3856" y2="329.9126" gradientTransform="matrix(0.9998 -0.0205 0.0205 0.9998 -6.3096 4.1431)">
		<stop  offset="0" style="stop-color:#FFFFFF"/>
		<stop  offset="0.4532" style="stop-color:#EFE9D3"/>
	</linearGradient>
	<path opacity="0.4" fill="url(#SVGID_4_)" d="M197.337,375.296c0.144,7.057-1.388,13.132-5.073,13.207l-6.673,0.137
		c-3.686,0.076-7.932-5.88-8.077-12.938l-2.75-134.193c-0.145-7.057-1.813-15.786,8.422-15.647l6.654,0.592
		c4.45,3.836,4.602,7.591,4.746,14.648L197.337,375.296z"/>
	
		<linearGradient id="SVGID_5_" gradientUnits="userSpaceOnUse" x1="176.1113" y1="283.2852" x2="256.9773" y2="329.9731" gradientTransform="matrix(-0.9998 0.0205 0.0205 0.9998 421.5073 -4.625)">
		<stop  offset="0" style="stop-color:#FFFFFF"/>
		<stop  offset="0.4532" style="stop-color:#EFE9D3"/>
	</linearGradient>
	<path opacity="0.3" fill="url(#SVGID_5_)" d="M202.001,375.2c0.144,7.058,2.888,13.044,6.574,12.97l6.674-0.138
		c3.685-0.075,7.886-6.205,7.741-13.263l-2.751-134.193c-0.144-7.058,1.065-15.848-9.157-15.29l-7.157,0.878
		c-4.287,4.014-4.819,7.783-4.674,14.841L202.001,375.2z"/>
	
		<linearGradient id="SVGID_6_" gradientUnits="userSpaceOnUse" x1="339.3955" y1="281.7715" x2="420.7639" y2="328.7495" gradientTransform="matrix(-0.9998 0.0205 0.0205 0.9998 611.2739 -8.5142)">
		<stop  offset="0" style="stop-color:#FFFFFF"/>
		<stop  offset="0.4532" style="stop-color:#EFE9D3"/>
	</linearGradient>
	<path opacity="0.2" fill="url(#SVGID_6_)" d="M228.796,373.465c0.146,7.059,1.698,13.088,5.385,13.013l6.674-0.137
		c3.687-0.074,7.909-6.223,7.764-13.281l-2.749-134.195c-0.146-7.056,2.253-17.951-9.168-15.286l-6.568,0.863
		c-4.291,4.015-4.232,7.773-4.087,14.83L228.796,373.465z"/>
	
		<linearGradient id="SVGID_7_" gradientUnits="userSpaceOnUse" x1="220.459" y1="277.7275" x2="300.9461" y2="324.1968" gradientTransform="matrix(-0.9998 0.0205 0.0205 0.9998 517.6675 -6.5957)">
		<stop  offset="0" style="stop-color:#FFFFFF"/>
		<stop  offset="0.4532" style="stop-color:#EFE9D3"/>
	</linearGradient>
	<path opacity="0.1" fill="url(#SVGID_7_)" d="M254.353,368.203c0.145,7.057,2.37,13.146,6.056,13.071l6.672-0.137
		c3.686-0.075,7.238-6.282,7.095-13.341l-2.751-134.196c-0.145-7.056,0.335-18.982-10.063-15.267l-6.713,2.052
		c-4.289,4.014-3.19,6.566-3.046,13.623L254.353,368.203z"/>
</g>
</svg>
