<?xml version="1.0" encoding="utf-8" ?>
<!-- Generator: Assembly 1.0 - http://assemblyapp.co -->
<svg version="1.1" xmlns="http://www.w3.org/2000/svg" xmlns:xlink="http://www.w3.org/1999/xlink" width="300" height="300" viewBox="0 0 300 300">
	<g id="widget" transform="matrix(1,0,0,1,150,150)">
		<path d="M-52.6044,-86.6493 C-52.6044,-84.0948 -54.6851,-82.0326 -57.2211,-82.0326 C-54.6758,-82.0326 -52.6044,-79.9704 -52.6044,-77.4159 C-52.6044,-79.9704 -50.5422,-82.0326 -47.9969,-82.0326 C-50.5515,-82.0326 -52.6044,-84.0948 -52.6044,-86.6493 Z" fill="#f7f9fe" fill-opacity="1" />
		<path d="M-68.0822,-66.7498 C-68.0822,-65.6929 -68.9431,-64.8396 -69.9924,-64.8396 C-68.9393,-64.8396 -68.0822,-63.9864 -68.0822,-62.9294 C-68.0822,-63.9864 -67.2289,-64.8396 -66.1758,-64.8396 C-67.2328,-64.8396 -68.0822,-65.6929 -68.0822,-66.7498 Z" fill="#f7f9fe" fill-opacity="1" />
		<path d="M-70.4596,-93.8071 C-70.4596,-90.3038 -73.3131,-87.4758 -76.7908,-87.4758 C-73.3004,-87.4758 -70.4596,-84.6477 -70.4596,-81.1445 C-70.4596,-84.6477 -67.6315,-87.4758 -64.141,-87.4758 C-67.6442,-87.4758 -70.4596,-90.3038 -70.4596,-93.8071 Z" fill="#f7f9fe" fill-opacity="1" />
		<path d="M-76.3096,-62.4593 C-76.3096,-58.9561 -79.1632,-56.128 -82.6409,-56.128 C-79.1504,-56.128 -76.3096,-53.2999 -76.3096,-49.7967 C-76.3096,-53.2999 -73.4816,-56.128 -69.9911,-56.128 C-73.4943,-56.128 -76.3096,-58.9561 -76.3096,-62.4593 Z" fill="#f7f9fe" fill-opacity="1" />
		<path d="M-91.0396,-75.8953 C-91.0396,-73.3408 -93.1204,-71.2786 -95.6563,-71.2786 C-93.1111,-71.2786 -91.0396,-69.2164 -91.0396,-66.6619 C-91.0396,-69.2164 -88.9774,-71.2786 -86.4322,-71.2786 C-88.9867,-71.2786 -91.0396,-73.3408 -91.0396,-75.8953 Z" fill="#f7f9fe" fill-opacity="1" />
		<path d="M-87.8533,-108.688 C-87.8533,-106.133 -89.9341,-104.071 -92.47,-104.071 C-89.9248,-104.071 -87.8533,-102.009 -87.8533,-99.4545 C-87.8533,-102.009 -85.7911,-104.071 -83.2459,-104.071 C-85.8004,-104.071 -87.8533,-106.133 -87.8533,-108.688 Z" fill="#f7f9fe" fill-opacity="1" />
		<path d="M-49.0996,-98.4132 C-51.6541,-98.4132 -53.7163,-100.494 -53.7163,-103.03 C-53.7163,-100.485 -55.7785,-98.4132 -58.333,-98.4132 C-55.7785,-98.4132 -53.7163,-96.351 -53.7163,-93.8058 C-53.7163,-96.3603 -51.6541,-98.4132 -49.0996,-98.4132 Z" fill="#f7f9fe" fill-opacity="1" />
		<path d="M-35.7915,-59.7192 C-35.7915,-57.7321 -37.4101,-56.128 -39.3827,-56.128 C-37.4028,-56.128 -35.7915,-54.5239 -35.7915,-52.5368 C-35.7915,-54.5239 -34.1873,-56.128 -32.2074,-56.128 C-34.1946,-56.128 -35.7915,-57.7321 -35.7915,-59.7192 Z" fill="#f7f9fe" fill-opacity="1" />
		<path d="M-47.8314,-44.2398 C-47.8314,-43.4176 -48.5011,-42.7539 -49.3173,-42.7539 C-48.4981,-42.7539 -47.8314,-42.0902 -47.8314,-41.268 C-47.8314,-42.0902 -47.1676,-42.7539 -46.3485,-42.7539 C-47.1706,-42.7539 -47.8314,-43.4176 -47.8314,-44.2398 Z" fill="#f7f9fe" fill-opacity="1" />
		<path d="M-49.6807,-65.2871 C-49.6807,-62.562 -51.9004,-60.3622 -54.6057,-60.3622 C-51.8905,-60.3622 -49.6807,-58.1623 -49.6807,-55.4372 C-49.6807,-58.1623 -47.4808,-60.3622 -44.7656,-60.3622 C-47.4907,-60.3622 -49.6807,-62.562 -49.6807,-65.2871 Z" fill="#f7f9fe" fill-opacity="1" />
		<path d="M-96.4486,-42.7555 C-99.0031,-42.7555 -101.065,-44.8363 -101.065,-47.3723 C-101.065,-44.827 -103.127,-42.7555 -105.682,-42.7555 C-103.127,-42.7555 -101.065,-40.6934 -101.065,-38.1481 C-101.065,-40.7026 -99.0031,-42.7555 -96.4486,-42.7555 Z" fill="#f7f9fe" fill-opacity="1" />
		<path d="M-116.348,-58.2334 C-117.405,-58.2334 -118.258,-59.0943 -118.258,-60.1436 C-118.258,-59.0905 -119.112,-58.2334 -120.168,-58.2334 C-119.112,-58.2334 -118.258,-57.3801 -118.258,-56.327 C-118.258,-57.384 -117.405,-58.2334 -116.348,-58.2334 Z" fill="#f7f9fe" fill-opacity="1" />
		<path d="M-89.2908,-60.6107 C-92.794,-60.6107 -95.6221,-63.4643 -95.6221,-66.942 C-95.6221,-63.4515 -98.4502,-60.6107 -101.953,-60.6107 C-98.4502,-60.6107 -95.6221,-57.7827 -95.6221,-54.2922 C-95.6221,-57.7954 -92.794,-60.6107 -89.2908,-60.6107 Z" fill="#f7f9fe" fill-opacity="1" />
		<path d="M-107.203,-81.1908 C-109.757,-81.1908 -111.819,-83.2716 -111.819,-85.8075 C-111.819,-83.2623 -113.881,-81.1908 -116.436,-81.1908 C-113.881,-81.1908 -111.819,-79.1286 -111.819,-76.5834 C-111.819,-79.1379 -109.757,-81.1908 -107.203,-81.1908 Z" fill="#f7f9fe" fill-opacity="1" />
		<path d="M-84.6847,-39.2508 C-84.6847,-41.8053 -82.6039,-43.8675 -80.068,-43.8675 C-82.6132,-43.8675 -84.6847,-45.9297 -84.6847,-48.4842 C-84.6847,-45.9297 -86.7469,-43.8675 -89.2921,-43.8675 C-86.7376,-43.8675 -84.6847,-41.8053 -84.6847,-39.2508 Z" fill="#f7f9fe" fill-opacity="1" />
		<path d="M-117.811,-39.8319 C-120.536,-39.8319 -122.736,-42.0516 -122.736,-44.7568 C-122.736,-42.0417 -124.936,-39.8319 -127.661,-39.8319 C-124.936,-39.8319 -122.736,-37.632 -122.736,-34.9168 C-122.736,-37.6419 -120.536,-39.8319 -117.811,-39.8319 Z" fill="#f7f9fe" fill-opacity="1" />
		<path d="M-33.0652,-68.8702 C-35.0523,-68.8702 -36.6564,-70.4887 -36.6564,-72.4614 C-36.6564,-70.4815 -38.2605,-68.8702 -40.2477,-68.8702 C-38.2605,-68.8702 -36.6564,-67.266 -36.6564,-65.2861 C-36.6564,-67.2732 -35.0523,-68.8702 -33.0652,-68.8702 Z" fill="#f7f9fe" fill-opacity="1" />
		<path d="M-68.9991,-113.891 C-70.056,-113.891 -70.9093,-114.752 -70.9093,-115.801 C-70.9093,-114.748 -71.7625,-113.891 -72.8195,-113.891 C-71.7625,-113.891 -70.9093,-113.038 -70.9093,-111.985 C-70.9093,-113.042 -70.056,-113.891 -68.9991,-113.891 Z" fill="#f7f9fe" fill-opacity="1" />
		<path d="M-41.9418,-116.268 C-45.445,-116.268 -48.2731,-119.122 -48.2731,-122.6 C-48.2731,-119.109 -51.1011,-116.268 -54.6044,-116.268 C-51.1011,-116.268 -48.2731,-113.44 -48.2731,-109.95 C-48.2731,-113.453 -45.445,-116.268 -41.9418,-116.268 Z" fill="#f7f9fe" fill-opacity="1" />
		<path d="M-59.8535,-136.848 C-62.408,-136.848 -64.4702,-138.929 -64.4702,-141.465 C-64.4702,-138.92 -66.5324,-136.848 -69.0869,-136.848 C-66.5324,-136.848 -64.4702,-134.786 -64.4702,-132.241 C-64.4702,-134.796 -62.408,-136.848 -59.8535,-136.848 Z" fill="#f7f9fe" fill-opacity="1" />
		<path d="M-27.0609,-133.662 C-29.6155,-133.662 -31.6777,-135.743 -31.6777,-138.279 C-31.6777,-135.734 -33.7398,-133.662 -36.2944,-133.662 C-33.7398,-133.662 -31.6777,-131.6 -31.6777,-129.055 C-31.6777,-131.609 -29.6155,-133.662 -27.0609,-133.662 Z" fill="#f7f9fe" fill-opacity="1" />
		<path d="M-131.414,-112.354 C-131.414,-114.213 -129.9,-115.714 -128.054,-115.714 C-129.907,-115.714 -131.414,-117.215 -131.414,-119.074 C-131.414,-117.215 -132.915,-115.714 -134.768,-115.714 C-132.908,-115.714 -131.414,-114.213 -131.414,-112.354 Z" fill="#f7f9fe" fill-opacity="1" />
		<path d="M-120.15,-126.837 C-120.15,-127.606 -119.523,-128.227 -118.759,-128.227 C-119.526,-128.227 -120.15,-128.848 -120.15,-129.617 C-120.15,-128.848 -120.771,-128.227 -121.537,-128.227 C-120.768,-128.227 -120.15,-127.606 -120.15,-126.837 Z" fill="#f7f9fe" fill-opacity="1" />
		<path d="M-118.419,-107.144 C-118.419,-109.694 -116.342,-111.752 -113.811,-111.752 C-116.352,-111.752 -118.419,-113.811 -118.419,-116.36 C-118.419,-113.811 -120.478,-111.752 -123.018,-111.752 C-120.468,-111.752 -118.419,-109.694 -118.419,-107.144 Z" fill="#f7f9fe" fill-opacity="1" />
		<path d="M-114.162,-129.959 C-114.162,-132.509 -112.085,-134.567 -109.554,-134.567 C-112.094,-134.567 -114.162,-136.626 -114.162,-139.175 C-114.162,-136.626 -116.22,-134.567 -118.76,-134.567 C-116.211,-134.567 -114.162,-132.509 -114.162,-129.959 Z" fill="#f7f9fe" fill-opacity="1" />
		<path d="M-103.441,-120.181 C-103.441,-122.04 -101.927,-123.541 -100.081,-123.541 C-101.933,-123.541 -103.441,-125.042 -103.441,-126.901 C-103.441,-125.042 -104.942,-123.541 -106.794,-123.541 C-104.935,-123.541 -103.441,-122.04 -103.441,-120.181 Z" fill="#f7f9fe" fill-opacity="1" />
		<path d="M-105.76,-96.314 C-105.76,-98.1731 -104.246,-99.674 -102.4,-99.674 C-104.252,-99.674 -105.76,-101.175 -105.76,-103.034 C-105.76,-101.175 -107.261,-99.674 -109.113,-99.674 C-107.254,-99.674 -105.76,-98.1731 -105.76,-96.314 Z" fill="#f7f9fe" fill-opacity="1" />
		<path d="M-133.965,-103.792 C-132.106,-103.792 -130.605,-102.278 -130.605,-100.432 C-130.605,-102.284 -129.104,-103.792 -127.245,-103.792 C-129.104,-103.792 -130.605,-105.293 -130.605,-107.145 C-130.605,-105.286 -132.106,-103.792 -133.965,-103.792 Z" fill="#f7f9fe" fill-opacity="1" />
		<path d="M-143.651,-131.954 C-143.651,-133.4 -142.473,-134.567 -141.037,-134.567 C-142.478,-134.567 -143.651,-135.735 -143.651,-137.181 C-143.651,-135.735 -144.818,-134.567 -146.259,-134.567 C-144.813,-134.567 -143.651,-133.4 -143.651,-131.954 Z" fill="#f7f9fe" fill-opacity="1" />
		<path d="M-134.888,-143.22 C-134.888,-143.818 -134.401,-144.301 -133.807,-144.301 C-134.403,-144.301 -134.888,-144.784 -134.888,-145.383 C-134.888,-144.784 -135.371,-144.301 -135.967,-144.301 C-135.369,-144.301 -134.888,-143.818 -134.888,-143.22 Z" fill="#f7f9fe" fill-opacity="1" />
		<path d="M-133.542,-127.901 C-133.542,-129.885 -131.927,-131.486 -129.958,-131.486 C-131.934,-131.486 -133.542,-133.087 -133.542,-135.07 C-133.542,-133.087 -135.143,-131.486 -137.119,-131.486 C-135.136,-131.486 -133.542,-129.885 -133.542,-127.901 Z" fill="#f7f9fe" fill-opacity="1" />
		<path d="M-99.5043,-144.3 C-97.6451,-144.3 -96.1442,-142.786 -96.1442,-140.94 C-96.1442,-142.792 -94.6434,-144.3 -92.7842,-144.3 C-94.6434,-144.3 -96.1442,-145.801 -96.1442,-147.653 C-96.1442,-145.794 -97.6451,-144.3 -99.5043,-144.3 Z" fill="#f7f9fe" fill-opacity="1" />
		<path d="M-85.0213,-133.035 C-84.2521,-133.035 -83.6311,-132.408 -83.6311,-131.645 C-83.6311,-132.411 -83.0101,-133.035 -82.2408,-133.035 C-83.0101,-133.035 -83.6311,-133.656 -83.6311,-134.423 C-83.6311,-133.653 -84.2521,-133.035 -85.0213,-133.035 Z" fill="#f7f9fe" fill-opacity="1" />
		<path d="M-104.714,-131.305 C-102.164,-131.305 -100.106,-129.228 -100.106,-126.697 C-100.106,-129.237 -98.0475,-131.305 -95.4979,-131.305 C-98.0475,-131.305 -100.106,-133.363 -100.106,-135.903 C-100.106,-133.354 -102.164,-131.305 -104.714,-131.305 Z" fill="#f7f9fe" fill-opacity="1" />
		<path d="M-91.6775,-116.327 C-89.8183,-116.327 -88.3174,-114.812 -88.3174,-112.966 C-88.3174,-114.819 -86.8166,-116.327 -84.9574,-116.327 C-86.8166,-116.327 -88.3174,-117.827 -88.3174,-119.68 C-88.3174,-117.821 -89.8183,-116.327 -91.6775,-116.327 Z" fill="#f7f9fe" fill-opacity="1" />
		<path d="M-108.066,-146.851 C-108.066,-144.992 -109.581,-143.491 -111.426,-143.491 C-109.574,-143.491 -108.066,-141.99 -108.066,-140.131 C-108.066,-141.99 -106.565,-143.491 -104.713,-143.491 C-106.572,-143.491 -108.066,-144.992 -108.066,-146.851 Z" fill="#f7f9fe" fill-opacity="1" />
		<path d="M-83.9568,-146.428 C-81.9735,-146.428 -80.3724,-144.812 -80.3724,-142.843 C-80.3724,-144.819 -78.7713,-146.428 -76.7879,-146.428 C-78.7713,-146.428 -80.3724,-148.029 -80.3724,-150.005 C-80.3724,-148.022 -81.9735,-146.428 -83.9568,-146.428 Z" fill="#f7f9fe" fill-opacity="1" />
		<path d="M-145.635,-125.294 C-144.189,-125.294 -143.021,-124.116 -143.021,-122.68 C-143.021,-124.121 -141.854,-125.294 -140.408,-125.294 C-141.854,-125.294 -143.021,-126.461 -143.021,-127.902 C-143.021,-126.456 -144.189,-125.294 -145.635,-125.294 Z" fill="#f7f9fe" fill-opacity="1" />
		<path d="M-119.482,-92.5271 C-118.713,-92.5271 -118.092,-91.9005 -118.092,-91.1369 C-118.092,-91.9033 -117.471,-92.5271 -116.702,-92.5271 C-117.471,-92.5271 -118.092,-93.1481 -118.092,-93.9146 C-118.092,-93.1453 -118.713,-92.5271 -119.482,-92.5271 Z" fill="#f7f9fe" fill-opacity="1" />
		<path d="M-139.175,-90.7969 C-136.625,-90.7969 -134.567,-88.72 -134.567,-86.1889 C-134.567,-88.7293 -132.508,-90.7969 -129.959,-90.7969 C-132.508,-90.7969 -134.567,-92.8551 -134.567,-95.3955 C-134.567,-92.8459 -136.625,-90.7969 -139.175,-90.7969 Z" fill="#f7f9fe" fill-opacity="1" />
		<path d="M-126.138,-75.8186 C-124.279,-75.8186 -122.778,-74.3042 -122.778,-72.4585 C-122.778,-74.3109 -121.277,-75.8186 -119.418,-75.8186 C-121.277,-75.8186 -122.778,-77.3194 -122.778,-79.1719 C-122.778,-77.3127 -124.279,-75.8186 -126.138,-75.8186 Z" fill="#f7f9fe" fill-opacity="1" />
		<path d="M-150.005,-78.1376 C-148.146,-78.1376 -146.645,-76.6232 -146.645,-74.7775 C-146.645,-76.63 -145.144,-78.1376 -143.285,-78.1376 C-145.144,-78.1376 -146.645,-79.6385 -146.645,-81.4909 C-146.645,-79.6317 -148.146,-78.1376 -150.005,-78.1376 Z" fill="#f7f9fe" fill-opacity="1" />
		<path d="M19.5201,-31.6591 C16.9655,-31.6591 14.9034,-33.7399 14.9034,-36.2758 C14.9034,-33.7306 12.8412,-31.6591 10.2866,-31.6591 C12.8412,-31.6591 14.9034,-29.5969 14.9034,-27.0517 C14.9034,-29.6062 16.9655,-31.6591 19.5201,-31.6591 Z" fill="#f7f9fe" fill-opacity="1" />
		<path d="M-0.379438,-47.1369 C-1.43639,-47.1369 -2.28963,-47.9978 -2.28963,-49.0471 C-2.28963,-47.994 -3.14288,-47.1369 -4.19982,-47.1369 C-3.14288,-47.1369 -2.28963,-46.2837 -2.28963,-45.2306 C-2.28963,-46.2875 -1.43639,-47.1369 -0.379438,-47.1369 Z" fill="#f7f9fe" fill-opacity="1" />
		<path d="M26.6778,-49.5143 C23.1746,-49.5143 20.3465,-52.3678 20.3465,-55.8456 C20.3465,-52.3551 17.5185,-49.5143 14.0153,-49.5143 C17.5185,-49.5143 20.3465,-46.6862 20.3465,-43.1957 C20.3465,-46.699 23.1746,-49.5143 26.6778,-49.5143 Z" fill="#f7f9fe" fill-opacity="1" />
		<path d="M-4.66995,-55.3644 C-8.17318,-55.3644 -11.0012,-58.2179 -11.0012,-61.6956 C-11.0012,-58.2052 -13.8293,-55.3644 -17.3325,-55.3644 C-13.8293,-55.3644 -11.0012,-52.5363 -11.0012,-49.0458 C-11.0012,-52.549 -8.17318,-55.3644 -4.66995,-55.3644 Z" fill="#f7f9fe" fill-opacity="1" />
		<path d="M8.76611,-70.0943 C6.21159,-70.0943 4.1494,-72.1751 4.1494,-74.7111 C4.1494,-72.1658 2.08721,-70.0943 -0.467307,-70.0943 C2.08721,-70.0943 4.1494,-68.0322 4.1494,-65.4869 C4.1494,-68.0414 6.21159,-70.0943 8.76611,-70.0943 Z" fill="#f7f9fe" fill-opacity="1" />
		<path d="M41.5587,-66.908 C39.0042,-66.908 36.942,-68.9888 36.942,-71.5247 C36.942,-68.9795 34.8798,-66.908 32.3253,-66.908 C34.8798,-66.908 36.942,-64.8458 36.942,-62.3006 C36.942,-64.8551 39.0042,-66.908 41.5587,-66.908 Z" fill="#f7f9fe" fill-opacity="1" />
		<path d="M31.284,-28.1543 C31.284,-30.7088 33.3647,-32.771 35.9007,-32.771 C33.3554,-32.771 31.284,-34.8332 31.284,-37.3877 C31.284,-34.8332 29.2218,-32.771 26.6765,-32.771 C29.2311,-32.771 31.284,-30.7088 31.284,-28.1543 Z" fill="#f7f9fe" fill-opacity="1" />
		<path d="M-7.40999,-14.8462 C-9.39709,-14.8462 -11.0012,-16.4648 -11.0012,-18.4374 C-11.0012,-16.4575 -12.6054,-14.8462 -14.5925,-14.8462 C-12.6054,-14.8462 -11.0012,-13.242 -11.0012,-11.2622 C-11.0012,-13.2493 -9.39709,-14.8462 -7.40999,-14.8462 Z" fill="#f7f9fe" fill-opacity="1" />
		<path d="M-22.8894,-26.8861 C-23.7116,-26.8861 -24.3753,-27.5558 -24.3753,-28.372 C-24.3753,-27.5528 -25.039,-26.8861 -25.8612,-26.8861 C-25.039,-26.8861 -24.3753,-26.2224 -24.3753,-25.4032 C-24.3753,-26.2253 -23.7116,-26.8861 -22.8894,-26.8861 Z" fill="#f7f9fe" fill-opacity="1" />
		<path d="M-1.8421,-28.7354 C-4.56719,-28.7354 -6.76708,-30.9551 -6.76708,-33.6604 C-6.76708,-30.9452 -8.96697,-28.7354 -11.6921,-28.7354 C-8.96697,-28.7354 -6.76708,-26.5355 -6.76708,-23.8203 C-6.76708,-26.5454 -4.56719,-28.7354 -1.8421,-28.7354 Z" fill="#f7f9fe" fill-opacity="1" />
		<path d="M-24.3737,-75.5033 C-24.3737,-78.0578 -22.2929,-80.12 -19.757,-80.12 C-22.3022,-80.12 -24.3737,-82.1822 -24.3737,-84.7367 C-24.3737,-82.1822 -26.4359,-80.12 -28.9811,-80.12 C-26.4266,-80.12 -24.3737,-78.0578 -24.3737,-75.5033 Z" fill="#f7f9fe" fill-opacity="1" />
		<path d="M-8.89586,-95.4028 C-8.89586,-96.4597 -8.03493,-97.313 -6.98567,-97.313 C-8.03877,-97.313 -8.89586,-98.1662 -8.89586,-99.2232 C-8.89586,-98.1662 -9.74911,-97.313 -10.8022,-97.313 C-9.74526,-97.313 -8.89586,-96.4597 -8.89586,-95.4028 Z" fill="#f7f9fe" fill-opacity="1" />
		<path d="M-6.51849,-68.3455 C-6.51849,-71.8488 -3.66496,-74.6768 -0.18721,-74.6768 C-3.67769,-74.6768 -6.51849,-77.5049 -6.51849,-81.0081 C-6.51849,-77.5049 -9.34655,-74.6768 -12.837,-74.6768 C-9.33381,-74.6768 -6.51849,-71.8488 -6.51849,-68.3455 Z" fill="#f7f9fe" fill-opacity="1" />
		<path d="M14.0616,-86.2573 C14.0616,-88.8118 16.1423,-90.874 18.6783,-90.874 C16.1331,-90.874 14.0616,-92.9362 14.0616,-95.4907 C14.0616,-92.9362 11.9994,-90.874 9.45416,-90.874 C12.0087,-90.874 14.0616,-88.8118 14.0616,-86.2573 Z" fill="#f7f9fe" fill-opacity="1" />
		<path d="M-27.8785,-63.7394 C-25.324,-63.7394 -23.2618,-61.6586 -23.2618,-59.1227 C-23.2618,-61.6679 -21.1996,-63.7394 -18.6451,-63.7394 C-21.1996,-63.7394 -23.2618,-65.8016 -23.2618,-68.3468 C-23.2618,-65.7923 -25.324,-63.7394 -27.8785,-63.7394 Z" fill="#f7f9fe" fill-opacity="1" />
		<path d="M-27.2974,-96.8655 C-27.2974,-99.5906 -25.0777,-101.79 -22.3724,-101.79 C-25.0876,-101.79 -27.2974,-103.99 -27.2974,-106.715 C-27.2974,-103.99 -29.4973,-101.79 -32.2124,-101.79 C-29.4874,-101.79 -27.2974,-99.5906 -27.2974,-96.8655 Z" fill="#f7f9fe" fill-opacity="1" />
		<path d="M1.74092,-12.1199 C1.74092,-14.107 3.35951,-15.7111 5.33217,-15.7111 C3.35229,-15.7111 1.74092,-17.3153 1.74092,-19.3024 C1.74092,-17.3153 0.136783,-15.7111 -1.8431,-15.7111 C0.144009,-15.7111 1.74092,-14.107 1.74092,-12.1199 Z" fill="#f7f9fe" fill-opacity="1" />
		<path d="M46.7618,-48.0538 C46.7618,-49.1107 47.6227,-49.964 48.672,-49.964 C47.6189,-49.964 46.7618,-50.8172 46.7618,-51.8742 C46.7618,-50.8172 45.9085,-49.964 44.8554,-49.964 C45.9124,-49.964 46.7618,-49.1107 46.7618,-48.0538 Z" fill="#f7f9fe" fill-opacity="1" />
		<path d="M49.1392,-20.9965 C49.1392,-24.4998 51.9927,-27.3278 55.4704,-27.3278 C51.98,-27.3278 49.1392,-30.1559 49.1392,-33.6591 C49.1392,-30.1559 46.3111,-27.3278 42.8206,-27.3278 C46.3238,-27.3278 49.1392,-24.4998 49.1392,-20.9965 Z" fill="#f7f9fe" fill-opacity="1" />
		<path d="M69.7192,-38.9082 C69.7192,-41.4628 71.8,-43.525 74.3359,-43.525 C71.7907,-43.525 69.7192,-45.5871 69.7192,-48.1417 C69.7192,-45.5871 67.657,-43.525 65.1118,-43.525 C67.6663,-43.525 69.7192,-41.4628 69.7192,-38.9082 Z" fill="#f7f9fe" fill-opacity="1" />
		<path d="M66.5329,-6.11567 C66.5329,-8.67018 68.6137,-10.7324 71.1496,-10.7324 C68.6044,-10.7324 66.5329,-12.7946 66.5329,-15.3491 C66.5329,-12.7946 64.4707,-10.7324 61.9255,-10.7324 C64.48,-10.7324 66.5329,-8.67018 66.5329,-6.11567 Z" fill="#f7f9fe" fill-opacity="1" />
		<path d="M45.2246,-110.469 C47.0837,-110.469 48.5846,-108.955 48.5846,-107.109 C48.5846,-108.961 50.0855,-110.469 51.9447,-110.469 C50.0855,-110.469 48.5846,-111.97 48.5846,-113.822 C48.5846,-111.963 47.0837,-110.469 45.2246,-110.469 Z" fill="#f7f9fe" fill-opacity="1" />
		<path d="M59.7075,-99.2042 C60.4768,-99.2042 61.0978,-98.5776 61.0978,-97.814 C61.0978,-98.5804 61.7188,-99.2042 62.488,-99.2042 C61.7188,-99.2042 61.0978,-99.8252 61.0978,-100.592 C61.0978,-99.8224 60.4768,-99.2042 59.7075,-99.2042 Z" fill="#f7f9fe" fill-opacity="1" />
		<path d="M40.0151,-97.474 C42.5648,-97.474 44.623,-95.3971 44.623,-92.866 C44.623,-95.4064 46.6813,-97.474 49.231,-97.474 C46.6813,-97.474 44.623,-99.5322 44.623,-102.073 C44.623,-99.523 42.5648,-97.474 40.0151,-97.474 Z" fill="#f7f9fe" fill-opacity="1" />
		<path d="M62.8302,-93.2162 C65.3799,-93.2162 67.4381,-91.1394 67.4381,-88.6083 C67.4381,-91.1487 69.4964,-93.2162 72.0461,-93.2162 C69.4964,-93.2162 67.4381,-95.2745 67.4381,-97.8149 C67.4381,-95.2652 65.3799,-93.2162 62.8302,-93.2162 Z" fill="#f7f9fe" fill-opacity="1" />
		<path d="M53.0513,-82.4957 C54.9105,-82.4957 56.4114,-80.9813 56.4114,-79.1356 C56.4114,-80.988 57.9123,-82.4957 59.7715,-82.4957 C57.9123,-82.4957 56.4114,-83.9966 56.4114,-85.849 C56.4114,-83.9898 54.9105,-82.4957 53.0513,-82.4957 Z" fill="#f7f9fe" fill-opacity="1" />
		<path d="M29.1847,-84.8147 C31.0439,-84.8147 32.5448,-83.3003 32.5448,-81.4546 C32.5448,-83.3071 34.0457,-84.8147 35.9049,-84.8147 C34.0457,-84.8147 32.5448,-86.3156 32.5448,-88.168 C32.5448,-86.3088 31.0439,-84.8147 29.1847,-84.8147 Z" fill="#f7f9fe" fill-opacity="1" />
		<path d="M36.6627,-113.02 C36.6627,-111.161 35.1483,-109.66 33.3027,-109.66 C35.1551,-109.66 36.6627,-108.159 36.6627,-106.3 C36.6627,-108.159 38.1636,-109.66 40.016,-109.66 C38.1568,-109.66 36.6627,-111.161 36.6627,-113.02 Z" fill="#f7f9fe" fill-opacity="1" />
		<path d="M64.8244,-122.706 C66.2706,-122.706 67.4381,-121.528 67.4381,-120.092 C67.4381,-121.533 68.6056,-122.706 70.0519,-122.706 C68.6056,-122.706 67.4381,-123.873 67.4381,-125.314 C67.4381,-123.868 66.2706,-122.706 64.8244,-122.706 Z" fill="#f7f9fe" fill-opacity="1" />
		<path d="M76.0904,-113.943 C76.6888,-113.943 77.1719,-113.455 77.1719,-112.861 C77.1719,-113.458 77.6549,-113.943 78.2533,-113.943 C77.6549,-113.943 77.1719,-114.426 77.1719,-115.022 C77.1719,-114.424 76.6888,-113.943 76.0904,-113.943 Z" fill="#f7f9fe" fill-opacity="1" />
		<path d="M60.7721,-112.597 C62.7554,-112.597 64.3565,-110.981 64.3565,-109.013 C64.3565,-110.989 65.9576,-112.597 67.9409,-112.597 C65.9576,-112.597 64.3565,-114.198 64.3565,-116.174 C64.3565,-114.191 62.7554,-112.597 60.7721,-112.597 Z" fill="#f7f9fe" fill-opacity="1" />
		<path d="M77.1707,-78.559 C77.1707,-76.6998 75.6563,-75.1989 73.8106,-75.1989 C75.663,-75.1989 77.1707,-73.6981 77.1707,-71.8389 C77.1707,-73.6981 78.6715,-75.1989 80.524,-75.1989 C78.6648,-75.1989 77.1707,-76.6998 77.1707,-78.559 Z" fill="#f7f9fe" fill-opacity="1" />
		<path d="M65.9058,-64.076 C65.9058,-63.3068 65.2792,-62.6858 64.5156,-62.6858 C65.282,-62.6858 65.9058,-62.0648 65.9058,-61.2955 C65.9058,-62.0648 66.5268,-62.6858 67.2933,-62.6858 C66.524,-62.6858 65.9058,-63.3068 65.9058,-64.076 Z" fill="#f7f9fe" fill-opacity="1" />
		<path d="M64.1756,-83.7685 C64.1756,-81.2188 62.0987,-79.1605 59.5676,-79.1605 C62.108,-79.1605 64.1756,-77.1023 64.1756,-74.5526 C64.1756,-77.1023 66.2338,-79.1605 68.7742,-79.1605 C66.2246,-79.1605 64.1756,-81.2188 64.1756,-83.7685 Z" fill="#f7f9fe" fill-opacity="1" />
		<path d="M49.1973,-70.7322 C49.1973,-68.873 47.6829,-67.3722 45.8372,-67.3722 C47.6896,-67.3722 49.1973,-65.8713 49.1973,-64.0121 C49.1973,-65.8713 50.6981,-67.3722 52.5506,-67.3722 C50.6914,-67.3722 49.1973,-68.873 49.1973,-70.7322 Z" fill="#f7f9fe" fill-opacity="1" />
		<path d="M79.7215,-87.1208 C77.8623,-87.1208 76.3614,-88.6352 76.3614,-90.4809 C76.3614,-88.6285 74.8605,-87.1208 73.0013,-87.1208 C74.8605,-87.1208 76.3614,-85.62 76.3614,-83.7675 C76.3614,-85.6267 77.8623,-87.1208 79.7215,-87.1208 Z" fill="#f7f9fe" fill-opacity="1" />
		<path d="M79.2985,-63.0115 C79.2985,-61.0282 77.683,-59.4271 75.7141,-59.4271 C77.6902,-59.4271 79.2985,-57.826 79.2985,-55.8427 C79.2985,-57.826 80.8996,-59.4271 82.8758,-59.4271 C80.8924,-59.4271 79.2985,-61.0282 79.2985,-63.0115 Z" fill="#f7f9fe" fill-opacity="1" />
		<path d="M58.1643,-124.69 C58.1643,-123.244 56.9863,-122.076 55.5506,-122.076 C56.9916,-122.076 58.1643,-120.909 58.1643,-119.462 C58.1643,-120.909 59.3318,-122.076 60.7728,-122.076 C59.3266,-122.076 58.1643,-123.244 58.1643,-124.69 Z" fill="#f7f9fe" fill-opacity="1" />
		<path d="M25.3979,-98.5369 C25.3979,-97.7677 24.7713,-97.1467 24.0076,-97.1467 C24.7741,-97.1467 25.3979,-96.5257 25.3979,-95.7564 C25.3979,-96.5257 26.0189,-97.1467 26.7853,-97.1467 C26.0161,-97.1467 25.3979,-97.7677 25.3979,-98.5369 Z" fill="#f7f9fe" fill-opacity="1" />
		<path d="M23.6676,-118.229 C23.6676,-115.68 21.5908,-113.621 19.0597,-113.621 C21.6001,-113.621 23.6676,-111.563 23.6676,-109.013 C23.6676,-111.563 25.7259,-113.621 28.2663,-113.621 C25.7166,-113.621 23.6676,-115.68 23.6676,-118.229 Z" fill="#f7f9fe" fill-opacity="1" />
		<path d="M8.68933,-105.193 C8.68933,-103.334 7.17493,-101.833 5.32926,-101.833 C7.18169,-101.833 8.68933,-100.332 8.68933,-98.473 C8.68933,-100.332 10.1902,-101.833 12.0426,-101.833 C10.1834,-101.833 8.68933,-103.334 8.68933,-105.193 Z" fill="#f7f9fe" fill-opacity="1" />
		<path d="M11.0084,-129.06 C11.0084,-127.201 9.49396,-125.7 7.64829,-125.7 C9.50072,-125.7 11.0084,-124.199 11.0084,-122.34 C11.0084,-124.199 12.5092,-125.7 14.3617,-125.7 C12.5025,-125.7 11.0084,-127.201 11.0084,-129.06 Z" fill="#f7f9fe" fill-opacity="1" />
		<path d="M-43.5936,-129.845 C-43.5936,-127.291 -45.6744,-125.229 -48.2103,-125.229 C-45.6651,-125.229 -43.5936,-123.166 -43.5936,-120.612 C-43.5936,-123.166 -41.5314,-125.229 -38.9862,-125.229 C-41.5407,-125.229 -43.5936,-127.291 -43.5936,-129.845 Z" fill="#f7f9fe" fill-opacity="1" />
		<path d="M-40.0888,-141.609 C-42.6434,-141.609 -44.7056,-143.69 -44.7056,-146.226 C-44.7056,-143.681 -46.7677,-141.609 -49.3223,-141.609 C-46.7677,-141.609 -44.7056,-139.547 -44.7056,-137.002 C-44.7056,-139.556 -42.6434,-141.609 -40.0888,-141.609 Z" fill="#f7f9fe" fill-opacity="1" />
		<path d="M17.7768,-113.29 C15.2223,-113.29 13.1601,-115.371 13.1601,-117.907 C13.1601,-115.362 11.0979,-113.29 8.54342,-113.29 C11.0979,-113.29 13.1601,-111.228 13.1601,-108.683 C13.1601,-111.237 15.2223,-113.29 17.7768,-113.29 Z" fill="#f7f9fe" fill-opacity="1" />
		<path d="M-15.363,-118.699 C-15.363,-121.254 -13.2822,-123.316 -10.7463,-123.316 C-13.2915,-123.316 -15.363,-125.378 -15.363,-127.933 C-15.363,-125.378 -17.4252,-123.316 -19.9704,-123.316 C-17.4159,-123.316 -15.363,-121.254 -15.363,-118.699 Z" fill="#f7f9fe" fill-opacity="1" />
		<path d="M0.114865,-138.599 C0.114865,-139.656 0.975797,-140.509 2.02506,-140.509 C0.971954,-140.509 0.114865,-141.362 0.114865,-142.419 C0.114865,-141.362 -0.73838,-140.509 -1.79148,-140.509 C-0.734536,-140.509 0.114865,-139.656 0.114865,-138.599 Z" fill="#f7f9fe" fill-opacity="1" />
		<path d="M2.49224,-111.542 C2.49224,-115.045 5.34577,-117.873 8.82352,-117.873 C5.33303,-117.873 2.49224,-120.701 2.49224,-124.204 C2.49224,-120.701 -0.335818,-117.873 -3.8263,-117.873 C-0.323078,-117.873 2.49224,-115.045 2.49224,-111.542 Z" fill="#f7f9fe" fill-opacity="1" />
		<path d="M23.0723,-129.453 C23.0723,-132.008 25.1531,-134.07 27.689,-134.07 C25.1438,-134.07 23.0723,-136.132 23.0723,-138.687 C23.0723,-136.132 21.0101,-134.07 18.4649,-134.07 C21.0194,-134.07 23.0723,-132.008 23.0723,-129.453 Z" fill="#f7f9fe" fill-opacity="1" />
		<path d="M-18.2866,-140.061 C-18.2866,-142.787 -16.0669,-144.986 -13.3617,-144.986 C-16.0768,-144.986 -18.2866,-147.186 -18.2866,-149.911 C-18.2866,-147.186 -20.4865,-144.986 -23.2017,-144.986 C-20.4766,-144.986 -18.2866,-142.787 -18.2866,-140.061 Z" fill="#f7f9fe" fill-opacity="1" />
		<path d="M68.7183,-142.4 C69.4875,-142.4 70.1085,-141.774 70.1085,-141.01 C70.1085,-141.776 70.7295,-142.4 71.4988,-142.4 C70.7295,-142.4 70.1085,-143.021 70.1085,-143.788 C70.1085,-143.018 69.4875,-142.4 68.7183,-142.4 Z" fill="#f7f9fe" fill-opacity="1" />
		<path d="M49.0258,-140.67 C51.5755,-140.67 53.6338,-138.593 53.6338,-136.062 C53.6338,-138.602 55.692,-140.67 58.2417,-140.67 C55.692,-140.67 53.6338,-142.728 53.6338,-145.269 C53.6338,-142.719 51.5755,-140.67 49.0258,-140.67 Z" fill="#f7f9fe" fill-opacity="1" />
		<path d="M71.8409,-136.412 C74.3906,-136.412 76.4489,-134.335 76.4489,-131.804 C76.4489,-134.345 78.5071,-136.412 81.0568,-136.412 C78.5071,-136.412 76.4489,-138.471 76.4489,-141.011 C76.4489,-138.461 74.3906,-136.412 71.8409,-136.412 Z" fill="#f7f9fe" fill-opacity="1" />
		<path d="M62.0621,-125.692 C63.9213,-125.692 65.4221,-124.177 65.4221,-122.332 C65.4221,-124.184 66.923,-125.692 68.7822,-125.692 C66.923,-125.692 65.4221,-127.193 65.4221,-129.045 C65.4221,-127.186 63.9213,-125.692 62.0621,-125.692 Z" fill="#f7f9fe" fill-opacity="1" />
		<path d="M38.1954,-128.011 C40.0546,-128.011 41.5555,-126.496 41.5555,-124.651 C41.5555,-126.503 43.0564,-128.011 44.9156,-128.011 C43.0564,-128.011 41.5555,-129.512 41.5555,-131.364 C41.5555,-129.505 40.0546,-128.011 38.1954,-128.011 Z" fill="#f7f9fe" fill-opacity="1" />
		<path d="M86.1814,-121.755 C86.1814,-119.896 84.667,-118.395 82.8213,-118.395 C84.6738,-118.395 86.1814,-116.894 86.1814,-115.035 C86.1814,-116.894 87.6823,-118.395 89.5347,-118.395 C87.6755,-118.395 86.1814,-119.896 86.1814,-121.755 Z" fill="#f7f9fe" fill-opacity="1" />
		<path d="M73.1863,-126.964 C73.1863,-124.415 71.1095,-122.357 68.5783,-122.357 C71.1187,-122.357 73.1863,-120.298 73.1863,-117.749 C73.1863,-120.298 75.2446,-122.357 77.785,-122.357 C75.2353,-122.357 73.1863,-124.415 73.1863,-126.964 Z" fill="#f7f9fe" fill-opacity="1" />
		<path d="M88.7322,-130.317 C86.873,-130.317 85.3721,-131.831 85.3721,-133.677 C85.3721,-131.824 83.8713,-130.317 82.0121,-130.317 C83.8713,-130.317 85.3721,-128.816 85.3721,-126.964 C85.3721,-128.823 86.873,-130.317 88.7322,-130.317 Z" fill="#f7f9fe" fill-opacity="1" />
		<path d="M34.4086,-141.733 C34.4086,-140.964 33.782,-140.343 33.0184,-140.343 C33.7848,-140.343 34.4086,-139.722 34.4086,-138.952 C34.4086,-139.722 35.0296,-140.343 35.7961,-140.343 C35.0268,-140.343 34.4086,-140.964 34.4086,-141.733 Z" fill="#f7f9fe" fill-opacity="1" />
		<path d="M17.7001,-148.389 C17.7001,-146.53 16.1857,-145.029 14.34,-145.029 C16.1924,-145.029 17.7001,-143.528 17.7001,-141.669 C17.7001,-143.528 19.2009,-145.029 21.0534,-145.029 C19.1942,-145.029 17.7001,-146.53 17.7001,-148.389 Z" fill="#f7f9fe" fill-opacity="1" />
		<path d="M-24.1851,-2.82479 C-26.7396,-2.82479 -28.8018,-4.90556 -28.8018,-7.4415 C-28.8018,-4.89627 -30.864,-2.82479 -33.4185,-2.82479 C-30.864,-2.82479 -28.8018,-0.7626 -28.8018,1.78263 C-28.8018,-0.771889 -26.7396,-2.82479 -24.1851,-2.82479 Z" fill="#f7f9fe" fill-opacity="1" />
		<path d="M-12.4212,0.679997 C-12.4212,-1.87452 -10.3405,-3.93671 -7.80451,-3.93671 C-10.3497,-3.93671 -12.4212,-5.9989 -12.4212,-8.55342 C-12.4212,-5.9989 -14.4834,-3.93671 -17.0286,-3.93671 C-14.4741,-3.93671 -12.4212,-1.87452 -12.4212,0.679997 Z" fill="#f7f9fe" fill-opacity="1" />
		<path d="M-51.1152,13.9881 C-53.1023,13.9881 -54.7064,12.3695 -54.7064,10.3969 C-54.7064,12.3767 -56.3106,13.9881 -58.2977,13.9881 C-56.3106,13.9881 -54.7064,15.5922 -54.7064,17.5721 C-54.7064,15.585 -53.1023,13.9881 -51.1152,13.9881 Z" fill="#f7f9fe" fill-opacity="1" />
		<path d="M-66.5946,1.94821 C-67.4168,1.94821 -68.0805,1.27851 -68.0805,0.462309 C-68.0805,1.2815 -68.7442,1.94821 -69.5664,1.94821 C-68.7442,1.94821 -68.0805,2.61193 -68.0805,3.43112 C-68.0805,2.60894 -67.4168,1.94821 -66.5946,1.94821 Z" fill="#f7f9fe" fill-opacity="1" />
		<path d="M-45.5473,0.0988989 C-48.2724,0.0988989 -50.4723,-2.12081 -50.4723,-4.82608 C-50.4723,-2.1109 -52.6722,0.0988989 -55.3972,0.0988989 C-52.6722,0.0988989 -50.4723,2.29879 -50.4723,5.01397 C-50.4723,2.28888 -48.2724,0.0988989 -45.5473,0.0988989 Z" fill="#f7f9fe" fill-opacity="1" />
		<path d="M-41.9643,16.7144 C-41.9643,14.7273 -40.3457,13.1232 -38.373,13.1232 C-40.3529,13.1232 -41.9643,11.519 -41.9643,9.53192 C-41.9643,11.519 -43.5684,13.1232 -45.5483,13.1232 C-43.5612,13.1232 -41.9643,14.7273 -41.9643,16.7144 Z" fill="#f7f9fe" fill-opacity="1" />
		<path d="M5.43398,7.83776 C5.43398,4.33454 8.28751,1.50648 11.7653,1.50648 C8.27477,1.50648 5.43398,-1.32158 5.43398,-4.8248 C5.43398,-1.32158 2.60592,1.50648 -0.884563,1.50648 C2.61866,1.50648 5.43398,4.33454 5.43398,7.83776 Z" fill="#f7f9fe" fill-opacity="1" />
		<path d="M26.014,-10.074 C26.014,-12.6285 28.0948,-14.6907 30.6307,-14.6907 C28.0855,-14.6907 26.014,-16.7529 26.014,-19.3074 C26.014,-16.7529 23.9518,-14.6907 21.4066,-14.6907 C23.9611,-14.6907 26.014,-12.6285 26.014,-10.074 Z" fill="#f7f9fe" fill-opacity="1" />
		<path d="M22.8277,22.7186 C22.8277,20.1641 24.9085,18.1019 27.4444,18.1019 C24.8992,18.1019 22.8277,16.0397 22.8277,13.4852 C22.8277,16.0397 20.7655,18.1019 18.2203,18.1019 C20.7748,18.1019 22.8277,20.1641 22.8277,22.7186 Z" fill="#f7f9fe" fill-opacity="1" />
		<path d="M-79.1753,69.2996 C-79.1753,66.7451 -77.0946,64.6829 -74.5586,64.6829 C-77.1039,64.6829 -79.1753,62.6207 -79.1753,60.0662 C-79.1753,62.6207 -81.2375,64.6829 -83.7828,64.6829 C-81.2282,64.6829 -79.1753,66.7451 -79.1753,69.2996 Z" fill="#f7f9fe" fill-opacity="1" />
		<path d="M-63.6975,49.4001 C-63.6975,48.3432 -62.8366,47.4899 -61.7873,47.4899 C-62.8404,47.4899 -63.6975,46.6367 -63.6975,45.5797 C-63.6975,46.6367 -64.5508,47.4899 -65.6039,47.4899 C-64.5469,47.4899 -63.6975,48.3432 -63.6975,49.4001 Z" fill="#f7f9fe" fill-opacity="1" />
		<path d="M-61.3201,76.4574 C-61.3201,72.9542 -58.4666,70.1261 -54.9889,70.1261 C-58.4793,70.1261 -61.3201,67.2981 -61.3201,63.7948 C-61.3201,67.2981 -64.1482,70.1261 -67.6387,70.1261 C-64.1355,70.1261 -61.3201,72.9542 -61.3201,76.4574 Z" fill="#f7f9fe" fill-opacity="1" />
		<path d="M-81.1051,129.73 C-81.1051,126.227 -78.2516,123.399 -74.7739,123.399 C-78.2643,123.399 -81.1051,120.571 -81.1051,117.068 C-81.1051,120.571 -83.9332,123.399 -87.4237,123.399 C-83.9205,123.399 -81.1051,126.227 -81.1051,129.73 Z" fill="#f7f9fe" fill-opacity="1" />
		<path d="M-40.7401,58.5457 C-40.7401,55.9912 -38.6593,53.929 -36.1234,53.929 C-38.6686,53.929 -40.7401,51.8668 -40.7401,49.3123 C-40.7401,51.8668 -42.8023,53.929 -45.3475,53.929 C-42.793,53.929 -40.7401,55.9912 -40.7401,58.5457 Z" fill="#f7f9fe" fill-opacity="1" />
		<path d="M-43.9264,91.3383 C-43.9264,88.7837 -41.8456,86.7216 -39.3097,86.7216 C-41.8549,86.7216 -43.9264,84.6594 -43.9264,82.1048 C-43.9264,84.6594 -45.9886,86.7216 -48.5338,86.7216 C-45.9793,86.7216 -43.9264,88.7837 -43.9264,91.3383 Z" fill="#f7f9fe" fill-opacity="1" />
		<path d="M-82.6801,81.0635 C-80.1256,81.0635 -78.0634,83.1443 -78.0634,85.6802 C-78.0634,83.135 -76.0012,81.0635 -73.4467,81.0635 C-76.0012,81.0635 -78.0634,79.0013 -78.0634,76.4561 C-78.0634,79.0106 -80.1256,81.0635 -82.6801,81.0635 Z" fill="#f7f9fe" fill-opacity="1" />
		<path d="M-95.9882,42.3696 C-95.9882,40.3825 -94.3696,38.7783 -92.397,38.7783 C-94.3769,38.7783 -95.9882,37.1742 -95.9882,35.1871 C-95.9882,37.1742 -97.5924,38.7783 -99.5723,38.7783 C-97.5851,38.7783 -95.9882,40.3825 -95.9882,42.3696 Z" fill="#f7f9fe" fill-opacity="1" />
		<path d="M-83.9483,26.8902 C-83.9483,26.068 -83.2786,25.4043 -82.4624,25.4043 C-83.2816,25.4043 -83.9483,24.7405 -83.9483,23.9184 C-83.9483,24.7405 -84.6121,25.4043 -85.4312,25.4043 C-84.6091,25.4043 -83.9483,26.068 -83.9483,26.8902 Z" fill="#f7f9fe" fill-opacity="1" />
		<path d="M-82.099,47.9375 C-82.099,45.2124 -79.8793,43.0125 -77.174,43.0125 C-79.8892,43.0125 -82.099,40.8126 -82.099,38.0875 C-82.099,40.8126 -84.2989,43.0125 -87.0141,43.0125 C-84.289,43.0125 -82.099,45.2124 -82.099,47.9375 Z" fill="#f7f9fe" fill-opacity="1" />
		<path d="M-35.3311,25.4059 C-32.7766,25.4059 -30.7144,27.4867 -30.7144,30.0226 C-30.7144,27.4774 -28.6522,25.4059 -26.0977,25.4059 C-28.6522,25.4059 -30.7144,23.3437 -30.7144,20.7985 C-30.7144,23.353 -32.7766,25.4059 -35.3311,25.4059 Z" fill="#f7f9fe" fill-opacity="1" />
		<path d="M-15.4316,40.8837 C-14.3747,40.8837 -13.5214,41.7446 -13.5214,42.7939 C-13.5214,41.7408 -12.6682,40.8837 -11.6112,40.8837 C-12.6682,40.8837 -13.5214,40.0305 -13.5214,38.9774 C-13.5214,40.0343 -14.3747,40.8837 -15.4316,40.8837 Z" fill="#f7f9fe" fill-opacity="1" />
		<path d="M-42.4889,43.2611 C-38.9857,43.2611 -36.1576,46.1146 -36.1576,49.5924 C-36.1576,46.1019 -33.3295,43.2611 -29.8263,43.2611 C-33.3295,43.2611 -36.1576,40.433 -36.1576,36.9425 C-36.1576,40.4458 -38.9857,43.2611 -42.4889,43.2611 Z" fill="#f7f9fe" fill-opacity="1" />
		<path d="M-24.5772,63.8411 C-22.0226,63.8411 -19.9605,65.9219 -19.9605,68.4579 C-19.9605,65.9126 -17.8983,63.8411 -15.3437,63.8411 C-17.8983,63.8411 -19.9605,61.779 -19.9605,59.2337 C-19.9605,61.7882 -22.0226,63.8411 -24.5772,63.8411 Z" fill="#f7f9fe" fill-opacity="1" />
		<path d="M-47.095,21.9011 C-47.095,24.4556 -49.1758,26.5178 -51.7117,26.5178 C-49.1665,26.5178 -47.095,28.58 -47.095,31.1345 C-47.095,28.58 -45.0328,26.5178 -42.4876,26.5178 C-45.0421,26.5178 -47.095,24.4556 -47.095,21.9011 Z" fill="#f7f9fe" fill-opacity="1" />
		<path d="M-13.969,22.4822 C-11.2439,22.4822 -9.04397,24.7019 -9.04397,27.4072 C-9.04397,24.692 -6.84408,22.4822 -4.11899,22.4822 C-6.84408,22.4822 -9.04397,20.2823 -9.04397,17.5671 C-9.04397,20.2922 -11.2439,22.4822 -13.969,22.4822 Z" fill="#f7f9fe" fill-opacity="1" />
		<path d="M-98.7145,51.5205 C-96.7274,51.5205 -95.1233,53.1391 -95.1233,55.1117 C-95.1233,53.1319 -93.5192,51.5205 -91.532,51.5205 C-93.5192,51.5205 -95.1233,49.9164 -95.1233,47.9365 C-95.1233,49.9236 -96.7274,51.5205 -98.7145,51.5205 Z" fill="#f7f9fe" fill-opacity="1" />
		<path d="M-62.7806,96.5414 C-61.7237,96.5414 -60.8704,97.4023 -60.8704,98.4516 C-60.8704,97.3984 -60.0172,96.5414 -58.9602,96.5414 C-60.0172,96.5414 -60.8704,95.6881 -60.8704,94.635 C-60.8704,95.692 -61.7237,96.5414 -62.7806,96.5414 Z" fill="#f7f9fe" fill-opacity="1" />
		<path d="M-110.568,-19.0952 C-109.511,-19.0952 -108.658,-18.2343 -108.658,-17.185 C-108.658,-18.2381 -107.804,-19.0952 -106.747,-19.0952 C-107.804,-19.0952 -108.658,-19.9484 -108.658,-21.0015 C-108.658,-19.9446 -109.511,-19.0952 -110.568,-19.0952 Z" fill="#f7f9fe" fill-opacity="1" />
		<path d="M-89.8379,98.9187 C-86.3347,98.9187 -83.5066,101.772 -83.5066,105.25 C-83.5066,101.76 -80.6785,98.9187 -77.1753,98.9187 C-80.6785,98.9187 -83.5066,96.0907 -83.5066,92.6002 C-83.5066,96.1034 -86.3347,98.9187 -89.8379,98.9187 Z" fill="#f7f9fe" fill-opacity="1" />
		<path d="M-71.9262,119.499 C-69.3717,119.499 -67.3095,121.58 -67.3095,124.116 C-67.3095,121.57 -65.2473,119.499 -62.6928,119.499 C-65.2473,119.499 -67.3095,117.437 -67.3095,114.891 C-67.3095,117.446 -69.3717,119.499 -71.9262,119.499 Z" fill="#f7f9fe" fill-opacity="1" />
		<path d="M-104.719,116.312 C-102.164,116.312 -100.102,118.393 -100.102,120.929 C-100.102,118.384 -98.0399,116.312 -95.4853,116.312 C-98.0399,116.312 -100.102,114.25 -100.102,111.705 C-100.102,114.26 -102.164,116.312 -104.719,116.312 Z" fill="#f7f9fe" fill-opacity="1" />
		<path d="M-0.36534,95.0041 C-0.36534,96.8633 -1.87974,98.3642 -3.72541,98.3642 C-1.87298,98.3642 -0.36534,99.8651 -0.36534,101.724 C-0.36534,99.8651 1.13553,98.3642 2.98796,98.3642 C1.12877,98.3642 -0.36534,96.8633 -0.36534,95.0041 Z" fill="#f7f9fe" fill-opacity="1" />
		<path d="M-11.6302,109.487 C-11.6302,110.256 -12.2568,110.877 -13.0204,110.877 C-12.254,110.877 -11.6302,111.498 -11.6302,112.268 C-11.6302,111.498 -11.0092,110.877 -10.2427,110.877 C-11.012,110.877 -11.6302,110.256 -11.6302,109.487 Z" fill="#f7f9fe" fill-opacity="1" />
		<path d="M-13.3605,89.7947 C-13.3605,92.3443 -15.4373,94.4026 -17.9684,94.4026 C-15.428,94.4026 -13.3605,96.4609 -13.3605,99.0106 C-13.3605,96.4609 -11.3022,94.4026 -8.76178,94.4026 C-11.3114,94.4026 -13.3605,92.3443 -13.3605,89.7947 Z" fill="#f7f9fe" fill-opacity="1" />
		<path d="M-17.6182,112.61 C-17.6182,115.159 -19.695,117.218 -22.2261,117.218 C-19.6857,117.218 -17.6182,119.276 -17.6182,121.826 C-17.6182,119.276 -15.5599,117.218 -13.0195,117.218 C-15.5692,117.218 -17.6182,115.159 -17.6182,112.61 Z" fill="#f7f9fe" fill-opacity="1" />
		<path d="M-28.3387,102.831 C-28.3387,104.69 -29.8531,106.191 -31.6988,106.191 C-29.8464,106.191 -28.3387,107.692 -28.3387,109.551 C-28.3387,107.692 -26.8379,106.191 -24.9854,106.191 C-26.8446,106.191 -28.3387,104.69 -28.3387,102.831 Z" fill="#f7f9fe" fill-opacity="1" />
		<path d="M-26.0197,78.9643 C-26.0197,80.8235 -27.5341,82.3244 -29.3798,82.3244 C-27.5274,82.3244 -26.0197,83.8252 -26.0197,85.6844 C-26.0197,83.8252 -24.5188,82.3244 -22.6664,82.3244 C-24.5256,82.3244 -26.0197,80.8235 -26.0197,78.9643 Z" fill="#f7f9fe" fill-opacity="1" />
		<path d="M2.18546,86.4423 C0.326273,86.4423 -1.1746,84.9279 -1.1746,83.0822 C-1.1746,84.9347 -2.67548,86.4423 -4.53467,86.4423 C-2.67548,86.4423 -1.1746,87.9432 -1.1746,89.7956 C-1.1746,87.9364 0.326273,86.4423 2.18546,86.4423 Z" fill="#f7f9fe" fill-opacity="1" />
		<path d="M11.8712,114.604 C11.8712,116.05 10.6932,117.218 9.25745,117.218 C10.6984,117.218 11.8712,118.385 11.8712,119.831 C11.8712,118.385 13.0387,117.218 14.4797,117.218 C13.0334,117.218 11.8712,116.05 11.8712,114.604 Z" fill="#f7f9fe" fill-opacity="1" />
		<path d="M3.10848,125.87 C3.10848,126.468 2.62106,126.951 2.02703,126.951 C2.62324,126.951 3.10848,127.434 3.10848,128.033 C3.10848,127.434 3.59154,126.951 4.18775,126.951 C3.58936,126.951 3.10848,126.468 3.10848,125.87 Z" fill="#f7f9fe" fill-opacity="1" />
		<path d="M1.76254,110.552 C1.76254,112.535 0.147022,114.136 -1.82189,114.136 C0.154234,114.136 1.76254,115.737 1.76254,117.72 C1.76254,115.737 3.36363,114.136 5.33975,114.136 C3.35642,114.136 1.76254,112.535 1.76254,110.552 Z" fill="#f7f9fe" fill-opacity="1" />
		<path d="M-32.2754,126.95 C-34.1346,126.95 -35.6355,125.436 -35.6355,123.59 C-35.6355,125.443 -37.1363,126.95 -38.9955,126.95 C-37.1363,126.95 -35.6355,128.451 -35.6355,130.304 C-35.6355,128.444 -34.1346,126.95 -32.2754,126.95 Z" fill="#f7f9fe" fill-opacity="1" />
		<path d="M-46.7584,115.685 C-47.5276,115.685 -48.1486,115.059 -48.1486,114.295 C-48.1486,115.062 -48.7696,115.685 -49.5389,115.685 C-48.7696,115.685 -48.1486,116.306 -48.1486,117.073 C-48.1486,116.304 -47.5276,115.685 -46.7584,115.685 Z" fill="#f7f9fe" fill-opacity="1" />
		<path d="M-27.0659,113.955 C-29.6156,113.955 -31.6739,111.878 -31.6739,109.347 C-31.6739,111.888 -33.7322,113.955 -36.2818,113.955 C-33.7322,113.955 -31.6739,116.013 -31.6739,118.554 C-31.6739,116.004 -29.6156,113.955 -27.0659,113.955 Z" fill="#f7f9fe" fill-opacity="1" />
		<path d="M-40.1022,98.9768 C-41.9614,98.9768 -43.4623,97.4625 -43.4623,95.6168 C-43.4623,97.4692 -44.9631,98.9768 -46.8223,98.9768 C-44.9631,98.9768 -43.4623,100.478 -43.4623,102.33 C-43.4623,100.471 -41.9614,98.9768 -40.1022,98.9768 Z" fill="#f7f9fe" fill-opacity="1" />
		<path d="M-23.7136,129.501 C-23.7136,127.642 -22.1992,126.141 -20.3535,126.141 C-22.2059,126.141 -23.7136,124.64 -23.7136,122.781 C-23.7136,124.64 -25.2145,126.141 -27.0669,126.141 C-25.2077,126.141 -23.7136,127.642 -23.7136,129.501 Z" fill="#f7f9fe" fill-opacity="1" />
		<path d="M-47.8229,129.078 C-49.8062,129.078 -51.4073,127.463 -51.4073,125.494 C-51.4073,127.47 -53.0084,129.078 -54.9918,129.078 C-53.0084,129.078 -51.4073,130.679 -51.4073,132.655 C-51.4073,130.672 -49.8062,129.078 -47.8229,129.078 Z" fill="#f7f9fe" fill-opacity="1" />
		<path d="M-139.8,75.8069 C-141.784,75.8069 -143.385,74.1914 -143.385,72.2225 C-143.385,74.1986 -144.986,75.8069 -146.969,75.8069 C-144.986,75.8069 -143.385,77.408 -143.385,79.3841 C-143.385,77.4008 -141.784,75.8069 -139.8,75.8069 Z" fill="#f7f9fe" fill-opacity="1" />
		<path d="M-138.496,105.304 C-140.48,105.304 -142.081,103.688 -142.081,101.719 C-142.081,103.695 -143.682,105.304 -145.665,105.304 C-143.682,105.304 -142.081,106.905 -142.081,108.881 C-142.081,106.898 -140.48,105.304 -138.496,105.304 Z" fill="#f7f9fe" fill-opacity="1" />
		<path d="M13.8554,107.944 C12.4092,107.944 11.2417,106.766 11.2417,105.33 C11.2417,106.771 10.0742,107.944 8.62794,107.944 C10.0742,107.944 11.2417,109.111 11.2417,110.552 C11.2417,109.106 12.4092,107.944 13.8554,107.944 Z" fill="#f7f9fe" fill-opacity="1" />
		<path d="M-12.2975,75.1775 C-13.0668,75.1775 -13.6878,74.5509 -13.6878,73.7872 C-13.6878,74.5537 -14.3087,75.1775 -15.078,75.1775 C-14.3087,75.1775 -13.6878,75.7985 -13.6878,76.5649 C-13.6878,75.7957 -13.0668,75.1775 -12.2975,75.1775 Z" fill="#f7f9fe" fill-opacity="1" />
		<path d="M7.39492,73.4472 C4.84526,73.4472 2.78698,71.3704 2.78698,68.8392 C2.78698,71.3796 0.728709,73.4472 -1.82096,73.4472 C0.728709,73.4472 2.78698,75.5055 2.78698,78.0459 C2.78698,75.4962 4.84526,73.4472 7.39492,73.4472 Z" fill="#f7f9fe" fill-opacity="1" />
		<path d="M-5.64132,58.4689 C-7.50051,58.4689 -9.00139,56.9545 -9.00139,55.1088 C-9.00139,56.9613 -10.5023,58.4689 -12.3615,58.4689 C-10.5023,58.4689 -9.00139,59.9698 -9.00139,61.8222 C-9.00139,59.963 -7.50051,58.4689 -5.64132,58.4689 Z" fill="#f7f9fe" fill-opacity="1" />
		<path d="M18.2253,60.7879 C16.3661,60.7879 14.8652,59.2735 14.8652,57.4279 C14.8652,59.2803 13.3644,60.7879 11.5052,60.7879 C13.3644,60.7879 14.8652,62.2888 14.8652,64.1412 C14.8652,62.282 16.3661,60.7879 18.2253,60.7879 Z" fill="#f7f9fe" fill-opacity="1" />
		<path d="M19.0109,6.18594 C16.4564,6.18594 14.3942,4.10517 14.3942,1.56923 C14.3942,4.11446 12.332,6.18594 9.77746,6.18594 C12.332,6.18594 14.3942,8.24813 14.3942,10.7934 C14.3942,8.23884 16.4564,6.18594 19.0109,6.18594 Z" fill="#f7f9fe" fill-opacity="1" />
		<path d="M30.7748,9.69072 C30.7748,7.13621 32.8555,5.07402 35.3915,5.07402 C32.8463,5.07402 30.7748,3.01183 30.7748,0.457309 C30.7748,3.01183 28.7126,5.07402 26.1674,5.07402 C28.7219,5.07402 30.7748,7.13621 30.7748,9.69072 Z" fill="#f7f9fe" fill-opacity="1" />
		<path d="M2.45593,67.5564 C2.45593,65.0019 4.5367,62.9397 7.07263,62.9397 C4.52741,62.9397 2.45593,60.8775 2.45593,58.323 C2.45593,60.8775 0.393735,62.9397 -2.15149,62.9397 C0.403025,62.9397 2.45593,65.0019 2.45593,67.5564 Z" fill="#f7f9fe" fill-opacity="1" />
		<path d="M7.86488,34.4166 C10.4194,34.4166 12.4816,36.4974 12.4816,39.0333 C12.4816,36.4881 14.5438,34.4166 17.0983,34.4166 C14.5438,34.4166 12.4816,32.3544 12.4816,29.8092 C12.4816,32.3637 10.4194,34.4166 7.86488,34.4166 Z" fill="#f7f9fe" fill-opacity="1" />
		<path d="M27.7644,49.8944 C28.8213,49.8944 29.6746,50.7554 29.6746,51.8046 C29.6746,50.7515 30.5278,49.8944 31.5848,49.8944 C30.5278,49.8944 29.6746,49.0412 29.6746,47.9881 C29.6746,49.045 28.8213,49.8944 27.7644,49.8944 Z" fill="#f7f9fe" fill-opacity="1" />
		<path d="M0.707122,52.2718 C4.21034,52.2718 7.0384,55.1253 7.0384,58.6031 C7.0384,55.1126 9.86646,52.2718 13.3697,52.2718 C9.86646,52.2718 7.0384,49.4438 7.0384,45.9533 C7.0384,49.4565 4.21034,52.2718 0.707122,52.2718 Z" fill="#f7f9fe" fill-opacity="1" />
		<path d="M18.6188,72.8519 C21.1734,72.8519 23.2355,74.9326 23.2355,77.4686 C23.2355,74.9234 25.2977,72.8519 27.8523,72.8519 C25.2977,72.8519 23.2355,70.7897 23.2355,68.2445 C23.2355,70.799 21.1734,72.8519 18.6188,72.8519 Z" fill="#f7f9fe" fill-opacity="1" />
		<path d="M29.227,31.4929 C31.9521,31.4929 34.152,33.7126 34.152,36.4179 C34.152,33.7027 36.3519,31.4929 39.077,31.4929 C36.3519,31.4929 34.152,29.293 34.152,26.5779 C34.152,29.3029 31.9521,31.4929 29.227,31.4929 Z" fill="#f7f9fe" fill-opacity="1" />
		<path d="M31.5658,118.498 C31.5658,119.267 30.9392,119.888 30.1756,119.888 C30.942,119.888 31.5658,120.509 31.5658,121.278 C31.5658,120.509 32.1868,119.888 32.9533,119.888 C32.184,119.888 31.5658,119.267 31.5658,118.498 Z" fill="#f7f9fe" fill-opacity="1" />
		<path d="M29.8355,98.8054 C29.8355,101.355 27.7587,103.413 25.2276,103.413 C27.768,103.413 29.8355,105.472 29.8355,108.021 C29.8355,105.472 31.8938,103.413 34.4342,103.413 C31.8845,103.413 29.8355,101.355 29.8355,98.8054 Z" fill="#f7f9fe" fill-opacity="1" />
		<path d="M25.5778,121.62 C25.5778,124.17 23.501,126.228 20.9699,126.228 C23.5103,126.228 25.5778,128.287 25.5778,130.836 C25.5778,128.287 27.6361,126.228 30.1765,126.228 C27.6268,126.228 25.5778,124.17 25.5778,121.62 Z" fill="#f7f9fe" fill-opacity="1" />
		<path d="M33.9858,136.928 C33.9858,138.788 32.4714,140.289 30.6257,140.289 C32.4782,140.289 33.9858,141.789 33.9858,143.649 C33.9858,141.789 35.4867,140.289 37.3391,140.289 C35.4799,140.289 33.9858,138.788 33.9858,136.928 Z" fill="#f7f9fe" fill-opacity="1" />
		<path d="M17.1763,87.975 C17.1763,89.8342 15.6619,91.3351 13.8162,91.3351 C15.6686,91.3351 17.1763,92.836 17.1763,94.6952 C17.1763,92.836 18.6772,91.3351 20.5296,91.3351 C18.6704,91.3351 17.1763,89.8342 17.1763,87.975 Z" fill="#f7f9fe" fill-opacity="1" />
		<path d="M10.9206,135.961 C9.0614,135.961 7.56053,134.447 7.56053,132.601 C7.56053,134.453 6.05965,135.961 4.20046,135.961 C6.05965,135.961 7.56053,137.462 7.56053,139.314 C7.56053,137.455 9.0614,135.961 10.9206,135.961 Z" fill="#f7f9fe" fill-opacity="1" />
		<path d="M16.1341,124.434 C13.5845,124.434 11.5262,122.358 11.5262,119.826 C11.5262,122.367 9.4679,124.434 6.91824,124.434 C9.4679,124.434 11.5262,126.493 11.5262,129.033 C11.5262,126.483 13.5845,124.434 16.1341,124.434 Z" fill="#f7f9fe" fill-opacity="1" />
		<path d="M19.4824,138.512 C19.4824,136.653 20.9968,135.152 22.8425,135.152 C20.9901,135.152 19.4824,133.651 19.4824,131.792 C19.4824,133.651 17.9815,135.152 16.1291,135.152 C17.9883,135.152 19.4824,136.653 19.4824,138.512 Z" fill="#f7f9fe" fill-opacity="1" />
		<path d="M30.8985,84.1882 C30.1292,84.1882 29.5082,83.5616 29.5082,82.7979 C29.5082,83.5644 28.8873,84.1882 28.118,84.1882 C28.8873,84.1882 29.5082,84.8092 29.5082,85.5756 C29.5082,84.8064 30.1292,84.1882 30.8985,84.1882 Z" fill="#f7f9fe" fill-opacity="1" />
		<path d="M37.5547,67.4796 C35.6955,67.4796 34.1946,65.9652 34.1946,64.1196 C34.1946,65.972 32.6937,67.4796 30.8345,67.4796 C32.6937,67.4796 34.1946,68.9805 34.1946,70.8329 C34.1946,68.9737 35.6955,67.4796 37.5547,67.4796 Z" fill="#f7f9fe" fill-opacity="1" />
		<path d="M94.3292,54.031 C91.7747,54.031 89.7125,51.9502 89.7125,49.4142 C89.7125,51.9595 87.6503,54.031 85.0958,54.031 C87.6503,54.031 89.7125,56.0931 89.7125,58.6384 C89.7125,56.0839 91.7747,54.031 94.3292,54.031 Z" fill="#f7f9fe" fill-opacity="1" />
		<path d="M74.4297,38.5531 C73.3728,38.5531 72.5195,37.6922 72.5195,36.6429 C72.5195,37.696 71.6663,38.5531 70.6093,38.5531 C71.6663,38.5531 72.5195,39.4064 72.5195,40.4595 C72.5195,39.4025 73.3728,38.5531 74.4297,38.5531 Z" fill="#f7f9fe" fill-opacity="1" />
		<path d="M101.487,36.1758 C97.9838,36.1758 95.1557,33.3222 95.1557,29.8445 C95.1557,33.335 92.3276,36.1758 88.8244,36.1758 C92.3276,36.1758 95.1557,39.0038 95.1557,42.4943 C95.1557,38.9911 97.9838,36.1758 101.487,36.1758 Z" fill="#f7f9fe" fill-opacity="1" />
		<path d="M70.1392,30.3257 C66.636,30.3257 63.8079,27.4721 63.8079,23.9944 C63.8079,27.4849 60.9799,30.3257 57.4766,30.3257 C60.9799,30.3257 63.8079,33.1537 63.8079,36.6442 C63.8079,33.141 66.636,30.3257 70.1392,30.3257 Z" fill="#f7f9fe" fill-opacity="1" />
		<path d="M83.5753,15.5957 C81.0207,15.5957 78.9586,13.5149 78.9586,10.979 C78.9586,13.5242 76.8964,15.5957 74.3418,15.5957 C76.8964,15.5957 78.9586,17.6579 78.9586,20.2031 C78.9586,17.6486 81.0207,15.5957 83.5753,15.5957 Z" fill="#f7f9fe" fill-opacity="1" />
		<path d="M116.368,18.782 C113.813,18.782 111.751,16.7012 111.751,14.1653 C111.751,16.7105 109.689,18.782 107.134,18.782 C109.689,18.782 111.751,20.8442 111.751,23.3894 C111.751,20.8349 113.813,18.782 116.368,18.782 Z" fill="#f7f9fe" fill-opacity="1" />
		<path d="M106.093,57.5357 C106.093,54.9812 108.174,52.919 110.71,52.919 C108.165,52.919 106.093,50.8568 106.093,48.3023 C106.093,50.8568 104.031,52.919 101.486,52.919 C104.04,52.919 106.093,54.9812 106.093,57.5357 Z" fill="#f7f9fe" fill-opacity="1" />
		<path d="M67.3992,70.8439 C65.4121,70.8439 63.8079,69.2253 63.8079,67.2526 C63.8079,69.2325 62.2038,70.8439 60.2167,70.8439 C62.2038,70.8439 63.8079,72.448 63.8079,74.4279 C63.8079,72.4408 65.4121,70.8439 67.3992,70.8439 Z" fill="#f7f9fe" fill-opacity="1" />
		<path d="M51.9197,58.804 C51.0976,58.804 50.4338,58.1343 50.4338,57.3181 C50.4338,58.1372 49.7701,58.804 48.9479,58.804 C49.7701,58.804 50.4338,59.4677 50.4338,60.2869 C50.4338,59.4647 51.0976,58.804 51.9197,58.804 Z" fill="#f7f9fe" fill-opacity="1" />
		<path d="M72.967,56.9546 C70.242,56.9546 68.0421,54.7349 68.0421,52.0297 C68.0421,54.7448 65.8422,56.9546 63.1171,56.9546 C65.8422,56.9546 68.0421,59.1545 68.0421,61.8697 C68.0421,59.1446 70.242,56.9546 72.967,56.9546 Z" fill="#f7f9fe" fill-opacity="1" />
		<path d="M50.4355,10.1867 C50.4355,7.63222 52.5162,5.57002 55.0522,5.57002 C52.5069,5.57002 50.4355,3.50783 50.4355,0.953318 C50.4355,3.50783 48.3733,5.57002 45.828,5.57002 C48.3826,5.57002 50.4355,7.63222 50.4355,10.1867 Z" fill="#f7f9fe" fill-opacity="1" />
		<path d="M68.2907,17.3445 C68.2907,13.8413 71.1442,11.0132 74.6219,11.0132 C71.1315,11.0132 68.2907,8.18516 68.2907,4.68194 C68.2907,8.18516 65.4626,11.0132 61.9721,11.0132 C65.4753,11.0132 68.2907,13.8413 68.2907,17.3445 Z" fill="#f7f9fe" fill-opacity="1" />
		<path d="M88.8707,-0.567221 C88.8707,-3.12174 90.9515,-5.18393 93.4874,-5.18393 C90.9422,-5.18393 88.8707,-7.24612 88.8707,-9.80064 C88.8707,-7.24612 86.8085,-5.18393 84.2633,-5.18393 C86.8178,-5.18393 88.8707,-3.12174 88.8707,-0.567221 Z" fill="#f7f9fe" fill-opacity="1" />
		<path d="M46.9307,21.9506 C49.4852,21.9506 51.5474,24.0314 51.5474,26.5673 C51.5474,24.0221 53.6096,21.9506 56.1641,21.9506 C53.6096,21.9506 51.5474,19.8884 51.5474,17.3432 C51.5474,19.8977 49.4852,21.9506 46.9307,21.9506 Z" fill="#f7f9fe" fill-opacity="1" />
		<path d="M76.5501,73.5702 C76.5501,71.583 78.1687,69.9789 80.1413,69.9789 C78.1614,69.9789 76.5501,68.3748 76.5501,66.3877 C76.5501,68.3748 74.9459,69.9789 72.9661,69.9789 C74.9532,69.9789 76.5501,71.583 76.5501,73.5702 Z" fill="#f7f9fe" fill-opacity="1" />
		<path d="M121.571,37.6362 C121.571,36.5793 122.432,35.726 123.481,35.726 C122.428,35.726 121.571,34.8728 121.571,33.8159 C121.571,34.8728 120.718,35.726 119.665,35.726 C120.722,35.726 121.571,36.5793 121.571,37.6362 Z" fill="#f7f9fe" fill-opacity="1" />
		<path d="M123.948,64.6935 C123.948,61.1903 126.802,58.3622 130.28,58.3622 C126.789,58.3622 123.948,55.5342 123.948,52.0309 C123.948,55.5342 121.12,58.3622 117.63,58.3622 C121.133,58.3622 123.948,61.1903 123.948,64.6935 Z" fill="#f7f9fe" fill-opacity="1" />
		<path d="M144.528,46.7818 C144.528,44.2273 146.609,42.1651 149.145,42.1651 C146.6,42.1651 144.528,40.1029 144.528,37.5484 C144.528,40.1029 142.466,42.1651 139.921,42.1651 C142.475,42.1651 144.528,44.2273 144.528,46.7818 Z" fill="#f7f9fe" fill-opacity="1" />
		<path d="M141.342,79.5744 C141.342,77.0199 143.423,74.9577 145.959,74.9577 C143.414,74.9577 141.342,72.8955 141.342,70.341 C141.342,72.8955 139.28,74.9577 136.735,74.9577 C139.289,74.9577 141.342,77.0199 141.342,79.5744 Z" fill="#f7f9fe" fill-opacity="1" />
		<path d="M137.639,-7.52621 C140.189,-7.52621 142.247,-5.44939 142.247,-2.91827 C142.247,-5.45866 144.306,-7.52621 146.855,-7.52621 C144.306,-7.52621 142.247,-9.58449 142.247,-12.1249 C142.247,-9.57521 140.189,-7.52621 137.639,-7.52621 Z" fill="#f7f9fe" fill-opacity="1" />
		<path d="M127.86,3.19436 C129.72,3.19436 131.221,4.70875 131.221,6.55442 C131.221,4.70199 132.721,3.19436 134.581,3.19436 C132.721,3.19436 131.221,1.69348 131.221,-0.158948 C131.221,1.70024 129.72,3.19436 127.86,3.19436 Z" fill="#f7f9fe" fill-opacity="1" />
		<path d="M103.994,0.875335 C105.853,0.875335 107.354,2.38973 107.354,4.2354 C107.354,2.38297 108.855,0.875335 110.714,0.875335 C108.855,0.875335 107.354,-0.62554 107.354,-2.47797 C107.354,-0.618779 105.853,0.875335 103.994,0.875335 Z" fill="#f7f9fe" fill-opacity="1" />
		<path d="M140.715,21.614 C140.715,22.3832 140.088,23.0042 139.325,23.0042 C140.091,23.0042 140.715,23.6252 140.715,24.3945 C140.715,23.6252 141.336,23.0042 142.102,23.0042 C141.333,23.0042 140.715,22.3832 140.715,21.614 Z" fill="#f7f9fe" fill-opacity="1" />
		<path d="M138.985,1.92157 C138.985,4.47123 136.908,6.52951 134.377,6.52951 C136.917,6.52951 138.985,8.58778 138.985,11.1374 C138.985,8.58778 141.043,6.52951 143.583,6.52951 C141.034,6.52951 138.985,4.47123 138.985,1.92157 Z" fill="#f7f9fe" fill-opacity="1" />
		<path d="M124.006,14.9578 C124.006,16.817 122.492,18.3179 120.646,18.3179 C122.499,18.3179 124.006,19.8188 124.006,21.6779 C124.006,19.8188 125.507,18.3179 127.36,18.3179 C125.501,18.3179 124.006,16.817 124.006,14.9578 Z" fill="#f7f9fe" fill-opacity="1" />
		<path d="M50.624,82.8652 C48.0695,82.8652 46.0073,80.7845 46.0073,78.2485 C46.0073,80.7938 43.9451,82.8652 41.3906,82.8652 C43.9451,82.8652 46.0073,84.9274 46.0073,87.4727 C46.0073,84.9181 48.0695,82.8652 50.624,82.8652 Z" fill="#f7f9fe" fill-opacity="1" />
		<path d="M-110.382,139.836 C-110.382,141.696 -111.897,143.196 -113.742,143.196 C-111.89,143.196 -110.382,144.697 -110.382,146.557 C-110.382,144.697 -108.881,143.196 -107.029,143.196 C-108.888,143.196 -110.382,141.696 -110.382,139.836 Z" fill="#f7f9fe" fill-opacity="1" />
		<path d="M-123.377,134.627 C-123.377,137.177 -125.454,139.235 -127.985,139.235 C-125.445,139.235 -123.377,141.293 -123.377,143.843 C-123.377,141.293 -121.319,139.235 -118.779,139.235 C-121.328,139.235 -123.377,137.177 -123.377,134.627 Z" fill="#f7f9fe" fill-opacity="1" />
		<path d="M-144.888,139.309 C-144.888,141.859 -146.965,143.917 -149.496,143.917 C-146.956,143.917 -144.888,145.975 -144.888,148.525 C-144.888,145.975 -142.83,143.917 -140.289,143.917 C-142.839,143.917 -144.888,141.859 -144.888,139.309 Z" fill="#f7f9fe" fill-opacity="1" />
		<path d="M-136.037,123.797 C-136.037,125.656 -137.551,127.157 -139.397,127.157 C-137.544,127.157 -136.037,128.658 -136.037,130.517 C-136.037,128.658 -134.536,127.157 -132.683,127.157 C-134.542,127.157 -136.037,125.656 -136.037,123.797 Z" fill="#f7f9fe" fill-opacity="1" />
		<path d="M-129.268,139.566 C-131.823,139.566 -133.885,137.485 -133.885,134.949 C-133.885,137.494 -135.947,139.566 -138.501,139.566 C-135.947,139.566 -133.885,141.628 -133.885,144.173 C-133.885,141.619 -131.823,139.566 -129.268,139.566 Z" fill="#f7f9fe" fill-opacity="1" />
		<path d="M-146.93,114.258 C-146.93,113.201 -146.069,112.347 -145.02,112.347 C-146.073,112.347 -146.93,111.494 -146.93,110.437 C-146.93,111.494 -147.783,112.347 -148.836,112.347 C-147.779,112.347 -146.93,113.201 -146.93,114.258 Z" fill="#f7f9fe" fill-opacity="1" />
		<path d="M-123.973,123.403 C-123.973,120.849 -121.892,118.786 -119.356,118.786 C-121.901,118.786 -123.973,116.724 -123.973,114.17 C-123.973,116.724 -126.035,118.786 -128.58,118.786 C-126.025,118.786 -123.973,120.849 -123.973,123.403 Z" fill="#f7f9fe" fill-opacity="1" />
		<path d="M-109.278,129.3 C-111.137,129.3 -112.638,130.815 -112.638,132.66 C-112.638,130.808 -114.139,129.3 -115.998,129.3 C-114.139,129.3 -112.638,127.799 -112.638,125.947 C-112.638,127.806 -111.137,129.3 -109.278,129.3 Z" fill="#f7f9fe" fill-opacity="1" />
		<path d="M-100.629,126.375 C-102.488,126.375 -103.989,127.89 -103.989,129.735 C-103.989,127.883 -105.49,126.375 -107.349,126.375 C-105.49,126.375 -103.989,124.874 -103.989,123.022 C-103.989,124.881 -102.488,126.375 -100.629,126.375 Z" fill="#f7f9fe" fill-opacity="1" />
		<path d="M-112.636,111.123 C-112.636,111.893 -113.263,112.514 -114.027,112.514 C-113.26,112.514 -112.636,113.135 -112.636,113.904 C-112.636,113.135 -112.015,112.514 -111.249,112.514 C-112.018,112.514 -112.636,111.893 -112.636,111.123 Z" fill="#f7f9fe" fill-opacity="1" />
		<path d="M-129.345,104.467 C-129.345,106.326 -130.859,107.827 -132.705,107.827 C-130.852,107.827 -129.345,109.328 -129.345,111.187 C-129.345,109.328 -127.844,107.827 -125.992,107.827 C-127.851,107.827 -129.345,106.326 -129.345,104.467 Z" fill="#f7f9fe" fill-opacity="1" />
		<path d="M-138.02,90.1022 C-138.02,90.9243 -138.69,91.5881 -139.506,91.5881 C-138.687,91.5881 -138.02,92.2518 -138.02,93.074 C-138.02,92.2518 -137.357,91.5881 -136.538,91.5881 C-137.36,91.5881 -138.02,90.9243 -138.02,90.1022 Z" fill="#f7f9fe" fill-opacity="1" />
		<path d="M-113.959,91.3979 C-113.959,93.9524 -116.04,96.0146 -118.576,96.0146 C-116.031,96.0146 -113.959,98.0768 -113.959,100.631 C-113.959,98.0768 -111.897,96.0146 -109.352,96.0146 C-111.906,96.0146 -113.959,93.9524 -113.959,91.3979 Z" fill="#f7f9fe" fill-opacity="1" />
		<path d="M62.3879,86.37 C62.3879,83.8155 64.4687,81.7533 67.0046,81.7533 C64.4594,81.7533 62.3879,79.6911 62.3879,77.1366 C62.3879,79.6911 60.3257,81.7533 57.7805,81.7533 C60.335,81.7533 62.3879,83.8155 62.3879,86.37 Z" fill="#f7f9fe" fill-opacity="1" />
		<path d="M119.372,-121.254 C117.385,-121.254 115.781,-122.872 115.781,-124.845 C115.781,-122.865 114.177,-121.254 112.19,-121.254 C114.177,-121.254 115.781,-119.649 115.781,-117.67 C115.781,-119.657 117.385,-121.254 119.372,-121.254 Z" fill="#f7f9fe" fill-opacity="1" />
		<path d="M128.523,-118.527 C128.523,-120.514 130.142,-122.118 132.114,-122.118 C130.134,-122.118 128.523,-123.723 128.523,-125.71 C128.523,-123.723 126.919,-122.118 124.939,-122.118 C126.926,-122.118 128.523,-120.514 128.523,-118.527 Z" fill="#f7f9fe" fill-opacity="1" />
		<path d="M102.597,-109.232 C100.042,-109.232 97.9803,-111.313 97.9803,-113.849 C97.9803,-111.304 95.9181,-109.232 93.3636,-109.232 C95.9181,-109.232 97.9803,-107.17 97.9803,-104.625 C97.9803,-107.179 100.042,-109.232 102.597,-109.232 Z" fill="#f7f9fe" fill-opacity="1" />
		<path d="M114.361,-105.727 C114.361,-108.282 116.442,-110.344 118.978,-110.344 C116.432,-110.344 114.361,-112.406 114.361,-114.961 C114.361,-112.406 112.299,-110.344 109.753,-110.344 C112.308,-110.344 114.361,-108.282 114.361,-105.727 Z" fill="#f7f9fe" fill-opacity="1" />
		<path d="M84.8179,-89.693 C84.8179,-91.6801 86.4364,-93.2842 88.4091,-93.2842 C86.4292,-93.2842 84.8179,-94.8883 84.8179,-96.8755 C84.8179,-94.8883 83.2137,-93.2842 81.2338,-93.2842 C83.2209,-93.2842 84.8179,-91.6801 84.8179,-89.693 Z" fill="#f7f9fe" fill-opacity="1" />
		<path d="M132.216,-98.5696 C132.216,-102.073 135.07,-104.901 138.547,-104.901 C135.057,-104.901 132.216,-107.729 132.216,-111.232 C132.216,-107.729 129.388,-104.901 125.898,-104.901 C129.401,-104.901 132.216,-102.073 132.216,-98.5696 Z" fill="#f7f9fe" fill-opacity="1" />
		<path d="M86.042,-47.8617 C86.042,-50.4162 88.1228,-52.4784 90.6588,-52.4784 C88.1135,-52.4784 86.042,-54.5406 86.042,-57.0951 C86.042,-54.5406 83.9799,-52.4784 81.4346,-52.4784 C83.9891,-52.4784 86.042,-50.4162 86.042,-47.8617 Z" fill="#f7f9fe" fill-opacity="1" />
		<path d="M82.8557,-15.0691 C82.8557,-17.6236 84.9365,-19.6858 87.4724,-19.6858 C84.9272,-19.6858 82.8557,-21.748 82.8557,-24.3025 C82.8557,-21.748 80.7935,-19.6858 78.2483,-19.6858 C80.8028,-19.6858 82.8557,-17.6236 82.8557,-15.0691 Z" fill="#f7f9fe" fill-opacity="1" />
		<path d="M91.451,-81.0015 C94.0055,-81.0015 96.0677,-78.9207 96.0677,-76.3848 C96.0677,-78.93 98.1299,-81.0015 100.684,-81.0015 C98.1299,-81.0015 96.0677,-83.0637 96.0677,-85.6089 C96.0677,-83.0544 94.0055,-81.0015 91.451,-81.0015 Z" fill="#f7f9fe" fill-opacity="1" />
		<path d="M111.351,-65.5237 C112.407,-65.5237 113.261,-64.6627 113.261,-63.6135 C113.261,-64.6666 114.114,-65.5237 115.171,-65.5237 C114.114,-65.5237 113.261,-66.3769 113.261,-67.43 C113.261,-66.3731 112.407,-65.5237 111.351,-65.5237 Z" fill="#f7f9fe" fill-opacity="1" />
		<path d="M138.282,-146.088 C139.339,-146.088 140.192,-145.227 140.192,-144.178 C140.192,-145.231 141.046,-146.088 142.103,-146.088 C141.046,-146.088 140.192,-146.941 140.192,-147.994 C140.192,-146.937 139.339,-146.088 138.282,-146.088 Z" fill="#f7f9fe" fill-opacity="1" />
		<path d="M142.098,-114.273 C143.155,-114.273 144.008,-113.412 144.008,-112.363 C144.008,-113.416 144.861,-114.273 145.918,-114.273 C144.861,-114.273 144.008,-115.126 144.008,-116.179 C144.008,-115.122 143.155,-114.273 142.098,-114.273 Z" fill="#f7f9fe" fill-opacity="1" />
		<path d="M81.4296,-146.687 C82.4866,-146.687 83.3398,-145.826 83.3398,-144.777 C83.3398,-145.83 84.1931,-146.687 85.25,-146.687 C84.1931,-146.687 83.3398,-147.54 83.3398,-148.593 C83.3398,-147.537 82.4866,-146.687 81.4296,-146.687 Z" fill="#f7f9fe" fill-opacity="1" />
		<path d="M84.2932,-63.1463 C87.7965,-63.1463 90.6245,-60.2928 90.6245,-56.815 C90.6245,-60.3055 93.4526,-63.1463 96.9558,-63.1463 C93.4526,-63.1463 90.6245,-65.9743 90.6245,-69.4648 C90.6245,-65.9616 87.7965,-63.1463 84.2932,-63.1463 Z" fill="#f7f9fe" fill-opacity="1" />
		<path d="M102.205,-42.5662 C104.759,-42.5662 106.822,-40.4855 106.822,-37.9495 C106.822,-40.4947 108.884,-42.5662 111.438,-42.5662 C108.884,-42.5662 106.822,-44.6284 106.822,-47.1736 C106.822,-44.6191 104.759,-42.5662 102.205,-42.5662 Z" fill="#f7f9fe" fill-opacity="1" />
		<path d="M112.813,-83.9252 C115.538,-83.9252 117.738,-81.7055 117.738,-79.0002 C117.738,-81.7154 119.938,-83.9252 122.663,-83.9252 C119.938,-83.9252 117.738,-86.1251 117.738,-88.8402 C117.738,-86.1152 115.538,-83.9252 112.813,-83.9252 Z" fill="#f7f9fe" fill-opacity="1" />
		<path d="M100.762,-27.4431 C100.762,-25.5839 99.248,-24.083 97.4023,-24.083 C99.2548,-24.083 100.762,-22.5821 100.762,-20.7229 C100.762,-22.5821 102.263,-24.083 104.116,-24.083 C102.257,-24.083 100.762,-25.5839 100.762,-27.4431 Z" fill="#f7f9fe" fill-opacity="1" />
		<path d="M128.968,-19.9651 C127.108,-19.9651 125.608,-21.4795 125.608,-23.3251 C125.608,-21.4727 124.107,-19.9651 122.247,-19.9651 C124.107,-19.9651 125.608,-18.4642 125.608,-16.6118 C125.608,-18.471 127.108,-19.9651 128.968,-19.9651 Z" fill="#f7f9fe" fill-opacity="1" />
		<path d="M114.485,-31.2299 C113.715,-31.2299 113.094,-31.8565 113.094,-32.6202 C113.094,-31.8537 112.473,-31.2299 111.704,-31.2299 C112.473,-31.2299 113.094,-30.6089 113.094,-29.8425 C113.094,-30.6117 113.715,-31.2299 114.485,-31.2299 Z" fill="#f7f9fe" fill-opacity="1" />
		<path d="M134.177,-32.9602 C131.627,-32.9602 129.569,-35.037 129.569,-37.5681 C129.569,-35.0277 127.511,-32.9602 124.961,-32.9602 C127.511,-32.9602 129.569,-30.9019 129.569,-28.3615 C129.569,-30.9112 131.627,-32.9602 134.177,-32.9602 Z" fill="#f7f9fe" fill-opacity="1" />
		<path d="M121.141,-47.9385 C119.282,-47.9385 117.781,-49.4529 117.781,-51.2985 C117.781,-49.4461 116.28,-47.9385 114.421,-47.9385 C116.28,-47.9385 117.781,-46.4376 117.781,-44.5852 C117.781,-46.4444 119.282,-47.9385 121.141,-47.9385 Z" fill="#f7f9fe" fill-opacity="1" />
		<path d="M145.007,-45.6194 C143.148,-45.6194 141.647,-47.1338 141.647,-48.9795 C141.647,-47.1271 140.146,-45.6194 138.287,-45.6194 C140.146,-45.6194 141.647,-44.1186 141.647,-42.2661 C141.647,-44.1253 143.148,-45.6194 145.007,-45.6194 Z" fill="#f7f9fe" fill-opacity="1" />
		<path d="M145.793,-100.221 C143.238,-100.221 141.176,-102.302 141.176,-104.838 C141.176,-102.293 139.114,-100.221 136.56,-100.221 C139.114,-100.221 141.176,-98.1592 141.176,-95.614 C141.176,-98.1685 143.238,-100.221 145.793,-100.221 Z" fill="#f7f9fe" fill-opacity="1" />
		<path d="M129.238,-38.851 C129.238,-41.4055 131.319,-43.4677 133.855,-43.4677 C131.31,-43.4677 129.238,-45.5299 129.238,-48.0844 C129.238,-45.5299 127.176,-43.4677 124.631,-43.4677 C127.185,-43.4677 129.238,-41.4055 129.238,-38.851 Z" fill="#f7f9fe" fill-opacity="1" />
		<path d="M134.647,-71.9908 C137.202,-71.9908 139.264,-69.91 139.264,-67.3741 C139.264,-69.9193 141.326,-71.9908 143.88,-71.9908 C141.326,-71.9908 139.264,-74.053 139.264,-76.5982 C139.264,-74.0437 137.202,-71.9908 134.647,-71.9908 Z" fill="#f7f9fe" fill-opacity="1" />
		<path d="M127.489,-54.1356 C130.992,-54.1356 133.821,-51.282 133.821,-47.8043 C133.821,-51.2948 136.649,-54.1356 140.152,-54.1356 C136.649,-54.1356 133.821,-56.9636 133.821,-60.4541 C133.821,-56.9509 130.992,-54.1356 127.489,-54.1356 Z" fill="#f7f9fe" fill-opacity="1" />
		<path d="M80.2431,93.5278 C80.2431,90.0246 83.0967,87.1965 86.5744,87.1965 C83.0839,87.1965 80.2431,84.3685 80.2431,80.8652 C80.2431,84.3685 77.4151,87.1965 73.9246,87.1965 C77.4278,87.1965 80.2431,90.0246 80.2431,93.5278 Z" fill="#f7f9fe" fill-opacity="1" />
		<path d="M100.823,75.6161 C100.823,73.0616 102.904,70.9994 105.44,70.9994 C102.895,70.9994 100.823,68.9372 100.823,66.3827 C100.823,68.9372 98.761,70.9994 96.2158,70.9994 C98.7703,70.9994 100.823,73.0616 100.823,75.6161 Z" fill="#f7f9fe" fill-opacity="1" />
		<path d="M97.6369,108.409 C97.6369,105.854 99.7176,103.792 102.254,103.792 C99.7084,103.792 97.6369,101.73 97.6369,99.1752 C97.6369,101.73 95.5747,103.792 93.0295,103.792 C95.584,103.792 97.6369,105.854 97.6369,108.409 Z" fill="#f7f9fe" fill-opacity="1" />
		<path d="M39.478,111.096 C42.0326,111.096 44.0947,113.177 44.0947,115.713 C44.0947,113.167 46.1569,111.096 48.7115,111.096 C46.1569,111.096 44.0947,109.034 44.0947,106.489 C44.0947,109.043 42.0326,111.096 39.478,111.096 Z" fill="#f7f9fe" fill-opacity="1" />
		<path d="M59.3775,126.574 C60.4345,126.574 61.2877,127.435 61.2877,128.484 C61.2877,127.431 62.141,126.574 63.1979,126.574 C62.141,126.574 61.2877,125.721 61.2877,124.667 C61.2877,125.724 60.4345,126.574 59.3775,126.574 Z" fill="#f7f9fe" fill-opacity="1" />
		<path d="M47.2353,145.55 C48.2923,145.55 49.1455,146.411 49.1455,147.46 C49.1455,146.407 49.9988,145.55 51.0557,145.55 C49.9988,145.55 49.1455,144.697 49.1455,143.644 C49.1455,144.701 48.2923,145.55 47.2353,145.55 Z" fill="#f7f9fe" fill-opacity="1" />
		<path d="M32.3203,128.951 C35.8235,128.951 38.6516,131.805 38.6516,135.282 C38.6516,131.792 41.4796,128.951 44.9828,128.951 C41.4796,128.951 38.6516,126.123 38.6516,122.633 C38.6516,126.136 35.8235,128.951 32.3203,128.951 Z" fill="#f7f9fe" fill-opacity="1" />
		<path d="M60.8402,108.172 C63.5653,108.172 65.7652,110.392 65.7652,113.097 C65.7652,110.382 67.9651,108.172 70.6902,108.172 C67.9651,108.172 65.7652,105.972 65.7652,103.257 C65.7652,105.982 63.5653,108.172 60.8402,108.172 Z" fill="#f7f9fe" fill-opacity="1" />
		<path d="M69.1678,144.159 C67.3086,144.159 65.8078,142.645 65.8078,140.799 C65.8078,142.651 64.3069,144.159 62.4477,144.159 C64.3069,144.159 65.8078,145.66 65.8078,147.512 C65.8078,145.653 67.3086,144.159 69.1678,144.159 Z" fill="#f7f9fe" fill-opacity="1" />
		<path d="M93.82,91.876 C91.2655,91.876 89.2033,89.7952 89.2033,87.2593 C89.2033,89.8045 87.1411,91.876 84.5866,91.876 C87.1411,91.876 89.2033,93.9382 89.2033,96.4834 C89.2033,93.9289 91.2655,91.876 93.82,91.876 Z" fill="#f7f9fe" fill-opacity="1" />
		<path d="M105.584,95.3808 C105.584,92.8262 107.665,90.7641 110.201,90.7641 C107.655,90.7641 105.584,88.7019 105.584,86.1473 C105.584,88.7019 103.522,90.7641 100.977,90.7641 C103.531,90.7641 105.584,92.8262 105.584,95.3808 Z" fill="#f7f9fe" fill-opacity="1" />
		<path d="M82.674,120.107 C85.2286,120.107 87.2907,122.187 87.2907,124.723 C87.2907,122.178 89.3529,120.107 91.9075,120.107 C89.3529,120.107 87.2907,118.044 87.2907,115.499 C87.2907,118.054 85.2286,120.107 82.674,120.107 Z" fill="#f7f9fe" fill-opacity="1" />
		<path d="M102.574,135.584 C103.63,135.584 104.484,136.445 104.484,137.495 C104.484,136.442 105.337,135.584 106.394,135.584 C105.337,135.584 104.484,134.731 104.484,133.678 C104.484,134.735 103.63,135.584 102.574,135.584 Z" fill="#f7f9fe" fill-opacity="1" />
		<path d="M75.5163,137.962 C79.0195,137.962 81.8476,140.815 81.8476,144.293 C81.8476,140.803 84.6756,137.962 88.1788,137.962 C84.6756,137.962 81.8476,135.134 81.8476,131.643 C81.8476,135.147 79.0195,137.962 75.5163,137.962 Z" fill="#f7f9fe" fill-opacity="1" />
		<path d="M104.036,117.183 C106.761,117.183 108.961,119.403 108.961,122.108 C108.961,119.393 111.161,117.183 113.886,117.183 C111.161,117.183 108.961,114.983 108.961,112.268 C108.961,114.993 106.761,117.183 104.036,117.183 Z" fill="#f7f9fe" fill-opacity="1" />
		<path d="M98.9316,95.5326 C98.9316,92.978 101.012,90.9158 103.548,90.9158 C101.003,90.9158 98.9316,88.8537 98.9316,86.2991 C98.9316,88.8537 96.8694,90.9158 94.3242,90.9158 C96.8787,90.9158 98.9316,92.978 98.9316,95.5326 Z" fill="#f7f9fe" fill-opacity="1" />
		<path d="M106.879,82.5046 C106.879,79.9501 108.959,77.8879 111.495,77.8879 C108.95,77.8879 106.879,75.8257 106.879,73.2712 C106.879,75.8257 104.816,77.8879 102.271,77.8879 C104.826,77.8879 106.879,79.9501 106.879,82.5046 Z" fill="#f7f9fe" fill-opacity="1" />
		<path d="M103.868,122.708 C104.925,122.708 105.778,123.569 105.778,124.619 C105.778,123.565 106.632,122.708 107.689,122.708 C106.632,122.708 105.778,121.855 105.778,120.802 C105.778,121.859 104.925,122.708 103.868,122.708 Z" fill="#f7f9fe" fill-opacity="1" />
		<path d="M94.7227,145.666 C97.2773,145.666 99.3395,147.747 99.3395,150.283 C99.3395,147.737 101.402,145.666 103.956,145.666 C101.402,145.666 99.3395,143.604 99.3395,141.058 C99.3395,143.613 97.2773,145.666 94.7227,145.666 Z" fill="#f7f9fe" fill-opacity="1" />
		<path d="M-143.954,-55.5764 C-143.954,-58.131 -141.873,-60.1932 -139.337,-60.1932 C-141.882,-60.1932 -143.954,-62.2553 -143.954,-64.8099 C-143.954,-62.2553 -146.016,-60.1932 -148.561,-60.1932 C-146.007,-60.1932 -143.954,-58.131 -143.954,-55.5764 Z" fill="#f7f9fe" fill-opacity="1" />
		<path d="M-126.099,-48.4187 C-126.099,-51.9219 -123.245,-54.75 -119.767,-54.75 C-123.258,-54.75 -126.099,-57.578 -126.099,-61.0812 C-126.099,-57.578 -128.927,-54.75 -132.417,-54.75 C-128.914,-54.75 -126.099,-51.9219 -126.099,-48.4187 Z" fill="#f7f9fe" fill-opacity="1" />
		<path d="M-108.705,-33.5378 C-108.705,-36.0923 -106.624,-38.1545 -104.088,-38.1545 C-106.633,-38.1545 -108.705,-40.2167 -108.705,-42.7712 C-108.705,-40.2167 -110.767,-38.1545 -113.312,-38.1545 C-110.758,-38.1545 -108.705,-36.0923 -108.705,-33.5378 Z" fill="#f7f9fe" fill-opacity="1" />
		<path d="M-146.964,-15.3727 C-145.907,-15.3727 -145.054,-14.5118 -145.054,-13.4625 C-145.054,-14.5156 -144.201,-15.3727 -143.144,-15.3727 C-144.201,-15.3727 -145.054,-16.226 -145.054,-17.2791 C-145.054,-16.2221 -145.907,-15.3727 -146.964,-15.3727 Z" fill="#f7f9fe" fill-opacity="1" />
		<path d="M-145.502,-33.7742 C-142.776,-33.7742 -140.577,-31.5545 -140.577,-28.8493 C-140.577,-31.5644 -138.377,-33.7742 -135.652,-33.7742 C-138.377,-33.7742 -140.577,-35.9741 -140.577,-38.6893 C-140.577,-35.9642 -142.776,-33.7742 -145.502,-33.7742 Z" fill="#f7f9fe" fill-opacity="1" />
		<path d="M-131.898,38.7477 C-131.898,40.6069 -133.412,42.1078 -135.258,42.1078 C-133.406,42.1078 -131.898,43.6086 -131.898,45.4678 C-131.898,43.6086 -130.397,42.1078 -128.545,42.1078 C-130.404,42.1078 -131.898,40.6069 -131.898,38.7477 Z" fill="#f7f9fe" fill-opacity="1" />
		<path d="M-143.163,53.2307 C-143.163,53.9999 -143.789,54.6209 -144.553,54.6209 C-143.787,54.6209 -143.163,55.2419 -143.163,56.0112 C-143.163,55.2419 -142.542,54.6209 -141.775,54.6209 C-142.545,54.6209 -143.163,53.9999 -143.163,53.2307 Z" fill="#f7f9fe" fill-opacity="1" />
		<path d="M-144.893,33.5382 C-144.893,36.0879 -146.97,38.1462 -149.501,38.1462 C-146.961,38.1462 -144.893,40.2044 -144.893,42.7541 C-144.893,40.2044 -142.835,38.1462 -140.294,38.1462 C-142.844,38.1462 -144.893,36.0879 -144.893,33.5382 Z" fill="#f7f9fe" fill-opacity="1" />
		<path d="M-129.347,30.1859 C-131.206,30.1859 -132.707,28.6715 -132.707,26.8258 C-132.707,28.6782 -134.208,30.1859 -136.067,30.1859 C-134.208,30.1859 -132.707,31.6867 -132.707,33.5392 C-132.707,31.68 -131.206,30.1859 -129.347,30.1859 Z" fill="#f7f9fe" fill-opacity="1" />
		<path d="M-119.661,58.3475 C-119.661,59.7938 -120.839,60.9613 -122.275,60.9613 C-120.834,60.9613 -119.661,62.1288 -119.661,63.575 C-119.661,62.1288 -118.494,60.9613 -117.053,60.9613 C-118.499,60.9613 -119.661,59.7938 -119.661,58.3475 Z" fill="#f7f9fe" fill-opacity="1" />
		<path d="M-128.424,69.6135 C-128.424,70.2119 -128.912,70.695 -129.506,70.695 C-128.909,70.695 -128.424,71.1781 -128.424,71.7764 C-128.424,71.1781 -127.941,70.695 -127.345,70.695 C-127.943,70.695 -128.424,70.2119 -128.424,69.6135 Z" fill="#f7f9fe" fill-opacity="1" />
		<path d="M-129.77,54.2952 C-129.77,56.2785 -131.386,57.8796 -133.354,57.8796 C-131.378,57.8796 -129.77,59.4807 -129.77,61.464 C-129.77,59.4807 -128.169,57.8796 -126.193,57.8796 C-128.176,57.8796 -129.77,56.2785 -129.77,54.2952 Z" fill="#f7f9fe" fill-opacity="1" />
		<path d="M-117.677,51.6874 C-119.123,51.6874 -120.291,50.5094 -120.291,49.0737 C-120.291,50.5147 -121.458,51.6874 -122.905,51.6874 C-121.458,51.6874 -120.291,52.8549 -120.291,54.2959 C-120.291,52.8497 -119.123,51.6874 -117.677,51.6874 Z" fill="#f7f9fe" fill-opacity="1" />
		<path d="M-143.83,18.921 C-144.599,18.921 -145.22,18.2944 -145.22,17.5308 C-145.22,18.2972 -145.841,18.921 -146.611,18.921 C-145.841,18.921 -145.22,19.542 -145.22,20.3085 C-145.22,19.5392 -144.599,18.921 -143.83,18.921 Z" fill="#f7f9fe" fill-opacity="1" />
		<path d="M-124.138,17.1907 C-126.687,17.1907 -128.746,15.1139 -128.746,12.5828 C-128.746,15.1232 -130.804,17.1907 -133.354,17.1907 C-130.804,17.1907 -128.746,19.249 -128.746,21.7894 C-128.746,19.2398 -126.687,17.1907 -124.138,17.1907 Z" fill="#f7f9fe" fill-opacity="1" />
		<path d="M-137.174,2.21246 C-139.033,2.21246 -140.534,0.698066 -140.534,-1.1476 C-140.534,0.704827 -142.035,2.21246 -143.894,2.21246 C-142.035,2.21246 -140.534,3.71334 -140.534,5.56577 C-140.534,3.70658 -139.033,2.21246 -137.174,2.21246 Z" fill="#f7f9fe" fill-opacity="1" />
		<path d="M-113.307,4.53148 C-115.166,4.53148 -116.667,3.01709 -116.667,1.17142 C-116.667,3.02385 -118.168,4.53148 -120.027,4.53148 C-118.168,4.53148 -116.667,6.03236 -116.667,7.88479 C-116.667,6.0256 -115.166,4.53148 -113.307,4.53148 Z" fill="#f7f9fe" fill-opacity="1" />
		<path d="M-112.522,-50.0705 C-115.076,-50.0705 -117.138,-52.1513 -117.138,-54.6872 C-117.138,-52.142 -119.201,-50.0705 -121.755,-50.0705 C-119.201,-50.0705 -117.138,-48.0083 -117.138,-45.4631 C-117.138,-48.0176 -115.076,-50.0705 -112.522,-50.0705 Z" fill="#f7f9fe" fill-opacity="1" />
		<path d="M-91.6258,3.43612 C-91.6258,0.881608 -89.545,-1.18058 -87.0091,-1.18058 C-89.5543,-1.18058 -91.6258,-3.24277 -91.6258,-5.79729 C-91.6258,-3.24277 -93.688,-1.18058 -96.2332,-1.18058 C-93.6787,-1.18058 -91.6258,0.881608 -91.6258,3.43612 Z" fill="#f7f9fe" fill-opacity="1" />
		<path d="M-129.077,11.3 C-129.077,8.74545 -126.996,6.68326 -124.46,6.68326 C-127.005,6.68326 -129.077,4.62107 -129.077,2.06655 C-129.077,4.62107 -131.139,6.68326 -133.684,6.68326 C-131.13,6.68326 -129.077,8.74545 -129.077,11.3 Z" fill="#f7f9fe" fill-opacity="1" />
		<path d="M-123.668,-21.8398 C-121.113,-21.8398 -119.051,-19.7591 -119.051,-17.2231 C-119.051,-19.7683 -116.989,-21.8398 -114.434,-21.8398 C-116.989,-21.8398 -119.051,-23.902 -119.051,-26.4472 C-119.051,-23.8927 -121.113,-21.8398 -123.668,-21.8398 Z" fill="#f7f9fe" fill-opacity="1" />
		<path d="M-103.768,-6.362 C-102.711,-6.362 -101.858,-5.50107 -101.858,-4.45181 C-101.858,-5.50491 -101.005,-6.362 -99.9478,-6.362 C-101.005,-6.362 -101.858,-7.21525 -101.858,-8.26835 C-101.858,-7.2114 -102.711,-6.362 -103.768,-6.362 Z" fill="#f7f9fe" fill-opacity="1" />
		<path d="M-130.825,-3.98463 C-127.322,-3.98463 -124.494,-1.13109 -124.494,2.34665 C-124.494,-1.14383 -121.666,-3.98463 -118.163,-3.98463 C-121.666,-3.98463 -124.494,-6.81268 -124.494,-10.3032 C-124.494,-6.79994 -127.322,-3.98463 -130.825,-3.98463 Z" fill="#f7f9fe" fill-opacity="1" />
		<path d="M-112.914,16.5954 C-110.359,16.5954 -108.297,18.6762 -108.297,21.2121 C-108.297,18.6669 -106.235,16.5954 -103.68,16.5954 C-106.235,16.5954 -108.297,14.5332 -108.297,11.988 C-108.297,14.5425 -110.359,16.5954 -112.914,16.5954 Z" fill="#f7f9fe" fill-opacity="1" />
		<path d="M-102.306,-24.7635 C-99.5805,-24.7635 -97.3806,-22.5438 -97.3806,-19.8385 C-97.3806,-22.5537 -95.1807,-24.7635 -92.4556,-24.7635 C-95.1807,-24.7635 -97.3806,-26.9634 -97.3806,-29.6786 C-97.3806,-26.9535 -99.5805,-24.7635 -102.306,-24.7635 Z" fill="#f7f9fe" fill-opacity="1" />
		<path d="M-99.9668,62.2414 C-99.9668,63.0106 -100.593,63.6316 -101.357,63.6316 C-100.591,63.6316 -99.9668,64.2526 -99.9668,65.0219 C-99.9668,64.2526 -99.3458,63.6316 -98.5793,63.6316 C-99.3486,63.6316 -99.9668,63.0106 -99.9668,62.2414 Z" fill="#f7f9fe" fill-opacity="1" />
		<path d="M-101.697,42.549 C-101.697,45.0986 -103.774,47.1569 -106.305,47.1569 C-103.765,47.1569 -101.697,49.2152 -101.697,51.7648 C-101.697,49.2152 -99.6388,47.1569 -97.0984,47.1569 C-99.648,47.1569 -101.697,45.0986 -101.697,42.549 Z" fill="#f7f9fe" fill-opacity="1" />
		<path d="M-105.955,65.364 C-105.955,67.9137 -108.032,69.972 -110.563,69.972 C-108.022,69.972 -105.955,72.0303 -105.955,74.5799 C-105.955,72.0303 -103.896,69.972 -101.356,69.972 C-103.906,69.972 -105.955,67.9137 -105.955,65.364 Z" fill="#f7f9fe" fill-opacity="1" />
		<path d="M-116.675,55.5852 C-116.675,57.4444 -118.19,58.9453 -120.035,58.9453 C-118.183,58.9453 -116.675,60.4461 -116.675,62.3053 C-116.675,60.4461 -115.174,58.9453 -113.322,58.9453 C-115.181,58.9453 -116.675,57.4444 -116.675,55.5852 Z" fill="#f7f9fe" fill-opacity="1" />
		<path d="M-114.356,31.7186 C-114.356,33.5778 -115.871,35.0786 -117.716,35.0786 C-115.864,35.0786 -114.356,36.5795 -114.356,38.4387 C-114.356,36.5795 -112.855,35.0786 -111.003,35.0786 C-112.862,35.0786 -114.356,33.5778 -114.356,31.7186 Z" fill="#f7f9fe" fill-opacity="1" />
		<path d="M-120.612,79.7045 C-122.471,79.7045 -123.972,78.1901 -123.972,76.3445 C-123.972,78.1969 -125.473,79.7045 -127.332,79.7045 C-125.473,79.7045 -123.972,81.2054 -123.972,83.0578 C-123.972,81.1986 -122.471,79.7045 -120.612,79.7045 Z" fill="#f7f9fe" fill-opacity="1" />
		<path d="M-115.403,66.7094 C-117.952,66.7094 -120.01,64.6326 -120.01,62.1015 C-120.01,64.6419 -122.069,66.7094 -124.618,66.7094 C-122.069,66.7094 -120.01,68.7677 -120.01,71.3081 C-120.01,68.7584 -117.952,66.7094 -115.403,66.7094 Z" fill="#f7f9fe" fill-opacity="1" />
		<path d="M-112.05,82.2553 C-112.05,80.3961 -110.536,78.8953 -108.69,78.8953 C-110.543,78.8953 -112.05,77.3944 -112.05,75.5352 C-112.05,77.3944 -113.551,78.8953 -115.403,78.8953 C-113.544,78.8953 -112.05,80.3961 -112.05,82.2553 Z" fill="#f7f9fe" fill-opacity="1" />
		<path d="M-100.634,27.9317 C-101.403,27.9317 -102.024,27.3051 -102.024,26.5415 C-102.024,27.3079 -102.645,27.9317 -103.415,27.9317 C-102.645,27.9317 -102.024,28.5527 -102.024,29.3192 C-102.024,28.5499 -101.403,27.9317 -100.634,27.9317 Z" fill="#f7f9fe" fill-opacity="1" />
		<path d="M-93.9779,11.2232 C-95.8371,11.2232 -97.338,9.70879 -97.338,7.86312 C-97.338,9.71555 -98.8389,11.2232 -100.698,11.2232 C-98.8389,11.2232 -97.338,12.7241 -97.338,14.5765 C-97.338,12.7173 -95.8371,11.2232 -93.9779,11.2232 Z" fill="#f7f9fe" fill-opacity="1" />
		<path d="M-37.2034,-2.22549 C-39.7579,-2.22549 -41.8201,-4.30626 -41.8201,-6.8422 C-41.8201,-4.29697 -43.8823,-2.22549 -46.4368,-2.22549 C-43.8823,-2.22549 -41.8201,-0.163298 -41.8201,2.38193 C-41.8201,-0.172587 -39.7579,-2.22549 -37.2034,-2.22549 Z" fill="#f7f9fe" fill-opacity="1" />
		<path d="M-57.1029,-17.7033 C-58.1598,-17.7033 -59.0131,-18.5642 -59.0131,-19.6135 C-59.0131,-18.5604 -59.8663,-17.7033 -60.9233,-17.7033 C-59.8663,-17.7033 -59.0131,-16.8501 -59.0131,-15.797 C-59.0131,-16.8539 -58.1598,-17.7033 -57.1029,-17.7033 Z" fill="#f7f9fe" fill-opacity="1" />
		<path d="M-30.0456,-20.0807 C-33.5488,-20.0807 -36.3769,-22.9342 -36.3769,-26.412 C-36.3769,-22.9215 -39.205,-20.0807 -42.7082,-20.0807 C-39.205,-20.0807 -36.3769,-17.2526 -36.3769,-13.7621 C-36.3769,-17.2654 -33.5488,-20.0807 -30.0456,-20.0807 Z" fill="#f7f9fe" fill-opacity="1" />
		<path d="M-61.3934,-25.9308 C-64.8966,-25.9308 -67.7247,-28.7843 -67.7247,-32.262 C-67.7247,-28.7716 -70.5527,-25.9308 -74.056,-25.9308 C-70.5527,-25.9308 -67.7247,-23.1027 -67.7247,-19.6122 C-67.7247,-23.1154 -64.8966,-25.9308 -61.3934,-25.9308 Z" fill="#f7f9fe" fill-opacity="1" />
		<path d="M-47.9573,-40.6608 C-50.5119,-40.6608 -52.574,-42.7415 -52.574,-45.2775 C-52.574,-42.7322 -54.6362,-40.6608 -57.1908,-40.6608 C-54.6362,-40.6608 -52.574,-38.5986 -52.574,-36.0533 C-52.574,-38.6078 -50.5119,-40.6608 -47.9573,-40.6608 Z" fill="#f7f9fe" fill-opacity="1" />
		<path d="M-64.1334,14.5874 C-66.1205,14.5874 -67.7247,12.9688 -67.7247,10.9962 C-67.7247,12.976 -69.3288,14.5874 -71.3159,14.5874 C-69.3288,14.5874 -67.7247,16.1915 -67.7247,18.1714 C-67.7247,16.1843 -66.1205,14.5874 -64.1334,14.5874 Z" fill="#f7f9fe" fill-opacity="1" />
		<path d="M-79.6129,2.54751 C-80.435,2.54751 -81.0988,1.87781 -81.0988,1.06161 C-81.0988,1.8808 -81.7625,2.54751 -82.5847,2.54751 C-81.7625,2.54751 -81.0988,3.21124 -81.0988,4.03043 C-81.0988,3.20825 -80.435,2.54751 -79.6129,2.54751 Z" fill="#f7f9fe" fill-opacity="1" />
		<path d="M-58.5655,0.698201 C-61.2906,0.698201 -63.4905,-1.52151 -63.4905,-4.22678 C-63.4905,-1.5116 -65.6904,0.698201 -68.4155,0.698201 C-65.6904,0.698201 -63.4905,2.89809 -63.4905,5.61327 C-63.4905,2.88818 -61.2906,0.698201 -58.5655,0.698201 Z" fill="#f7f9fe" fill-opacity="1" />
		<path d="M-82.4117,-12.1149 C-82.4117,-14.6694 -80.3309,-16.7316 -77.795,-16.7316 C-80.3402,-16.7316 -82.4117,-18.7938 -82.4117,-21.3483 C-82.4117,-18.7938 -84.4739,-16.7316 -87.0191,-16.7316 C-84.4646,-16.7316 -82.4117,-14.6694 -82.4117,-12.1149 Z" fill="#f7f9fe" fill-opacity="1" />
		<path d="M-63.2419,-38.9119 C-63.2419,-42.4152 -60.3884,-45.2432 -56.9107,-45.2432 C-60.4011,-45.2432 -63.2419,-48.0713 -63.2419,-51.5745 C-63.2419,-48.0713 -66.07,-45.2432 -69.5605,-45.2432 C-66.0573,-45.2432 -63.2419,-42.4152 -63.2419,-38.9119 Z" fill="#f7f9fe" fill-opacity="1" />
		<path d="M-42.6619,-56.8237 C-42.6619,-59.3782 -40.5811,-61.4404 -38.0452,-61.4404 C-40.5904,-61.4404 -42.6619,-63.5026 -42.6619,-66.0571 C-42.6619,-63.5026 -44.7241,-61.4404 -47.2693,-61.4404 C-44.7148,-61.4404 -42.6619,-59.3782 -42.6619,-56.8237 Z" fill="#f7f9fe" fill-opacity="1" />
		<path d="M-84.6019,-34.3058 C-82.0474,-34.3058 -79.9852,-32.225 -79.9852,-29.6891 C-79.9852,-32.2343 -77.923,-34.3058 -75.3685,-34.3058 C-77.923,-34.3058 -79.9852,-36.368 -79.9852,-38.9132 C-79.9852,-36.3587 -82.0474,-34.3058 -84.6019,-34.3058 Z" fill="#f7f9fe" fill-opacity="1" />
		<path d="M-92.0773,138.969 C-92.0773,136.982 -90.4587,135.378 -88.4861,135.378 C-90.4659,135.378 -92.0773,133.774 -92.0773,131.787 C-92.0773,133.774 -93.6815,135.378 -95.6613,135.378 C-93.6742,135.378 -92.0773,136.982 -92.0773,138.969 Z" fill="#f7f9fe" fill-opacity="1" />
		<path d="M-87.953,149.262 C-87.953,147.275 -86.3344,145.67 -84.3618,145.67 C-86.3417,145.67 -87.953,144.066 -87.953,142.079 C-87.953,144.066 -89.5572,145.67 -91.537,145.67 C-89.5499,145.67 -87.953,147.275 -87.953,149.262 Z" fill="#f7f9fe" fill-opacity="1" />
		<path d="M-80.9086,26.6088 C-83.4631,26.6088 -85.5253,24.528 -85.5253,21.9921 C-85.5253,24.5373 -87.5875,26.6088 -90.142,26.6088 C-87.5875,26.6088 -85.5253,28.671 -85.5253,31.2162 C-85.5253,28.6617 -83.4631,26.6088 -80.9086,26.6088 Z" fill="#f7f9fe" fill-opacity="1" />
		<path d="M-69.1447,30.1136 C-69.1447,27.5591 -67.0639,25.4969 -64.528,25.4969 C-67.0732,25.4969 -69.1447,23.4347 -69.1447,20.8802 C-69.1447,23.4347 -71.2069,25.4969 -73.7521,25.4969 C-71.1976,25.4969 -69.1447,27.5591 -69.1447,30.1136 Z" fill="#f7f9fe" fill-opacity="1" />
		<path d="M-120.138,94.2304 C-120.138,90.7272 -117.284,87.8991 -113.806,87.8991 C-117.297,87.8991 -120.138,85.0711 -120.138,81.5678 C-120.138,85.0711 -122.966,87.8991 -126.456,87.8991 C-122.953,87.8991 -120.138,90.7272 -120.138,94.2304 Z" fill="#f7f9fe" fill-opacity="1" />
		<path d="M-30.7094,19.3596 C-30.7094,16.8051 -28.6286,14.7429 -26.0927,14.7429 C-28.6379,14.7429 -30.7094,12.6807 -30.7094,10.1262 C-30.7094,12.6807 -32.7716,14.7429 -35.3168,14.7429 C-32.7623,14.7429 -30.7094,16.8051 -30.7094,19.3596 Z" fill="#f7f9fe" fill-opacity="1" />
		<path d="M122.784,-129.774 C120.797,-129.774 119.193,-131.393 119.193,-133.366 C119.193,-131.386 117.589,-129.774 115.602,-129.774 C117.589,-129.774 119.193,-128.17 119.193,-126.19 C119.193,-128.177 120.797,-129.774 122.784,-129.774 Z" fill="#f7f9fe" fill-opacity="1" />
		<path d="M107.305,-141.814 C106.483,-141.814 105.819,-142.484 105.819,-143.3 C105.819,-142.481 105.155,-141.814 104.333,-141.814 C105.155,-141.814 105.819,-141.15 105.819,-140.331 C105.819,-141.153 106.483,-141.814 107.305,-141.814 Z" fill="#f7f9fe" fill-opacity="1" />
		<path d="M128.352,-143.663 C125.627,-143.663 123.427,-145.883 123.427,-148.588 C123.427,-145.873 121.227,-143.663 118.502,-143.663 C121.227,-143.663 123.427,-141.464 123.427,-138.748 C123.427,-141.474 125.627,-143.663 128.352,-143.663 Z" fill="#f7f9fe" fill-opacity="1" />
		<path d="M131.935,-127.048 C131.935,-129.035 133.554,-130.639 135.527,-130.639 C133.547,-130.639 131.935,-132.243 131.935,-134.23 C131.935,-132.243 130.331,-130.639 128.351,-130.639 C130.338,-130.639 131.935,-129.035 131.935,-127.048 Z" fill="#f7f9fe" fill-opacity="1" />
		<path d="M109.766,-129.175 C107.779,-129.175 106.175,-130.794 106.175,-132.766 C106.175,-130.786 104.571,-129.175 102.584,-129.175 C104.571,-129.175 106.175,-127.571 106.175,-125.591 C106.175,-127.578 107.779,-129.175 109.766,-129.175 Z" fill="#f7f9fe" fill-opacity="1" />
		<path d="M94.2868,-141.215 C93.4646,-141.215 92.8009,-141.885 92.8009,-142.701 C92.8009,-141.882 92.1372,-141.215 91.315,-141.215 C92.1372,-141.215 92.8009,-140.551 92.8009,-139.732 C92.8009,-140.554 93.4646,-141.215 94.2868,-141.215 Z" fill="#f7f9fe" fill-opacity="1" />
		<path d="M115.334,-143.064 C112.609,-143.064 110.409,-145.284 110.409,-147.989 C110.409,-145.274 108.209,-143.064 105.484,-143.064 C108.209,-143.064 110.409,-140.864 110.409,-138.149 C110.409,-140.874 112.609,-143.064 115.334,-143.064 Z" fill="#f7f9fe" fill-opacity="1" />
		<path d="M118.917,-126.449 C118.917,-128.436 120.536,-130.04 122.508,-130.04 C120.528,-130.04 118.917,-131.644 118.917,-133.631 C118.917,-131.644 117.313,-130.04 115.333,-130.04 C117.32,-130.04 118.917,-128.436 118.917,-126.449 Z" fill="#f7f9fe" fill-opacity="1" />
		<path d="M143.19,-124.403 C143.19,-126.957 145.271,-129.019 147.807,-129.019 C145.262,-129.019 143.19,-131.082 143.19,-133.636 C143.19,-131.082 141.128,-129.019 138.583,-129.019 C141.137,-129.019 143.19,-126.957 143.19,-124.403 Z" fill="#f7f9fe" fill-opacity="1" />
		<path d="M-21.2588,42.3746 C-21.2588,39.8201 -19.178,37.7579 -16.6421,37.7579 C-19.1873,37.7579 -21.2588,35.6957 -21.2588,33.1412 C-21.2588,35.6957 -23.321,37.7579 -25.8662,37.7579 C-23.3117,37.7579 -21.2588,39.8201 -21.2588,42.3746 Z" fill="#f7f9fe" fill-opacity="1" />
		<path d="M-92.0546,54.8395 C-89.5,54.8395 -87.4379,56.9203 -87.4379,59.4562 C-87.4379,56.911 -85.3757,54.8395 -82.8211,54.8395 C-85.3757,54.8395 -87.4379,52.7773 -87.4379,50.2321 C-87.4379,52.7866 -89.5,54.8395 -92.0546,54.8395 Z" fill="#f7f9fe" fill-opacity="1" />
		<path d="M-72.1551,70.3173 C-71.0981,70.3173 -70.2449,71.1782 -70.2449,72.2275 C-70.2449,71.1744 -69.3916,70.3173 -68.3347,70.3173 C-69.3916,70.3173 -70.2449,69.4641 -70.2449,68.411 C-70.2449,69.4679 -71.0981,70.3173 -72.1551,70.3173 Z" fill="#f7f9fe" fill-opacity="1" />
		<path d="M-99.2123,72.6947 C-95.7091,72.6947 -92.881,75.5482 -92.881,79.026 C-92.881,75.5355 -90.053,72.6947 -86.5498,72.6947 C-90.053,72.6947 -92.881,69.8666 -92.881,66.3761 C-92.881,69.8794 -95.7091,72.6947 -99.2123,72.6947 Z" fill="#f7f9fe" fill-opacity="1" />
		<path d="M-70.6924,51.9158 C-67.9673,51.9158 -65.7674,54.1355 -65.7674,56.8408 C-65.7674,54.1256 -63.5675,51.9158 -60.8424,51.9158 C-63.5675,51.9158 -65.7674,49.7159 -65.7674,47.0007 C-65.7674,49.7258 -67.9673,51.9158 -70.6924,51.9158 Z" fill="#f7f9fe" fill-opacity="1" />
		<path d="M-62.3648,87.9025 C-64.224,87.9025 -65.7248,86.3881 -65.7248,84.5424 C-65.7248,86.3949 -67.2257,87.9025 -69.0849,87.9025 C-67.2257,87.9025 -65.7248,89.4034 -65.7248,91.2558 C-65.7248,89.3966 -64.224,87.9025 -62.3648,87.9025 Z" fill="#f7f9fe" fill-opacity="1" />
		<path d="M-37.7126,35.6195 C-40.2671,35.6195 -42.3293,33.5388 -42.3293,31.0028 C-42.3293,33.5481 -44.3915,35.6195 -46.946,35.6195 C-44.3915,35.6195 -42.3293,37.6817 -42.3293,40.2269 C-42.3293,37.6724 -40.2671,35.6195 -37.7126,35.6195 Z" fill="#f7f9fe" fill-opacity="1" />
		<path d="M-48.8586,63.8502 C-46.304,63.8502 -44.2419,65.931 -44.2419,68.4669 C-44.2419,65.9217 -42.1797,63.8502 -39.6251,63.8502 C-42.1797,63.8502 -44.2419,61.788 -44.2419,59.2428 C-44.2419,61.7973 -46.304,63.8502 -48.8586,63.8502 Z" fill="#f7f9fe" fill-opacity="1" />
		<path d="M-44.3564,73.8699 C-40.8531,73.8699 -38.0251,76.7235 -38.0251,80.2012 C-38.0251,76.7107 -35.197,73.8699 -31.6938,73.8699 C-35.197,73.8699 -38.0251,71.0419 -38.0251,67.5514 C-38.0251,71.0546 -40.8531,73.8699 -44.3564,73.8699 Z" fill="#f7f9fe" fill-opacity="1" />
		<path d="M-107.012,95.3858 C-107.012,92.8312 -104.931,90.7691 -102.395,90.7691 C-104.94,90.7691 -107.012,88.7069 -107.012,86.1523 C-107.012,88.7069 -109.074,90.7691 -111.619,90.7691 C-109.065,90.7691 -107.012,92.8312 -107.012,95.3858 Z" fill="#f7f9fe" fill-opacity="1" />
		<path d="M-36.8098,89.4094 C-34.2553,89.4094 -32.1931,91.4901 -32.1931,94.0261 C-32.1931,91.4808 -30.131,89.4094 -27.5764,89.4094 C-30.131,89.4094 -32.1931,87.3472 -32.1931,84.8019 C-32.1931,87.3565 -34.2553,89.4094 -36.8098,89.4094 Z" fill="#f7f9fe" fill-opacity="1" />
		<path d="M-53.461,140.065 C-53.461,137.51 -51.3802,135.448 -48.8443,135.448 C-51.3895,135.448 -53.461,133.386 -53.461,130.831 C-53.461,133.386 -55.5232,135.448 -58.0684,135.448 C-55.5139,135.448 -53.461,137.51 -53.461,140.065 Z" fill="#f7f9fe" fill-opacity="1" />
		<path d="M-72.3152,145.268 C-71.2583,145.268 -70.405,146.129 -70.405,147.178 C-70.405,146.125 -69.5518,145.268 -68.4948,145.268 C-69.5518,145.268 -70.405,144.415 -70.405,143.362 C-70.405,144.418 -71.2583,145.268 -72.3152,145.268 Z" fill="#f7f9fe" fill-opacity="1" />
		<path d="M-22.895,138.521 C-22.895,141.071 -24.9718,143.129 -27.503,143.129 C-24.9626,143.129 -22.895,145.187 -22.895,147.737 C-22.895,145.187 -20.8368,143.129 -18.2964,143.129 C-20.846,143.129 -22.895,141.071 -22.895,138.521 Z" fill="#f7f9fe" fill-opacity="1" />
		<path d="M-7.34911,135.169 C-9.2083,135.169 -10.7092,133.654 -10.7092,131.809 C-10.7092,133.661 -12.2101,135.169 -14.0692,135.169 C-12.2101,135.169 -10.7092,136.67 -10.7092,138.522 C-10.7092,136.663 -9.2083,135.169 -7.34911,135.169 Z" fill="#f7f9fe" fill-opacity="1" />
		<path d="M0.005,145.674 C-1.85419,145.674 -3.35507,144.159 -3.35507,142.314 C-3.35507,144.166 -4.85594,145.674 -6.71513,145.674 C-4.85594,145.674 -3.35507,147.175 -3.35507,149.027 C-3.35507,147.168 -1.85419,145.674 0.005,145.674 Z" fill="#f7f9fe" fill-opacity="1" />
		<path d="M20.0848,145.177 C18.2256,145.177 16.7247,143.662 16.7247,141.817 C16.7247,143.669 15.2239,145.177 13.3647,145.177 C15.2239,145.177 16.7247,146.678 16.7247,148.53 C16.7247,146.671 18.2256,145.177 20.0848,145.177 Z" fill="#f7f9fe" fill-opacity="1" />
		<path d="M-71.8993,136.629 C-73.7585,136.629 -75.2594,135.115 -75.2594,133.269 C-75.2594,135.121 -76.7603,136.629 -78.6195,136.629 C-76.7603,136.629 -75.2594,138.13 -75.2594,139.982 C-75.2594,138.123 -73.7585,136.629 -71.8993,136.629 Z" fill="#f7f9fe" fill-opacity="1" />
		<path d="M-46.3444,138.136 C-43.7899,138.136 -41.7277,140.217 -41.7277,142.753 C-41.7277,140.207 -39.6655,138.136 -37.111,138.136 C-39.6655,138.136 -41.7277,136.074 -41.7277,133.528 C-41.7277,136.083 -43.7899,138.136 -46.3444,138.136 Z" fill="#f7f9fe" fill-opacity="1" />
		<path d="M105.331,104.307 C108.056,104.307 110.256,106.527 110.256,109.232 C110.256,106.517 112.456,104.307 115.181,104.307 C112.456,104.307 110.256,102.107 110.256,99.3918 C110.256,102.117 108.056,104.307 105.331,104.307 Z" fill="#f7f9fe" fill-opacity="1" />
		<path d="M113.659,140.294 C111.799,140.294 110.299,138.779 110.299,136.933 C110.299,138.786 108.798,140.294 106.938,140.294 C108.798,140.294 110.299,141.794 110.299,143.647 C110.299,141.788 111.799,140.294 113.659,140.294 Z" fill="#f7f9fe" fill-opacity="1" />
		<path d="M150.534,111.367 C149.477,111.367 148.623,110.506 148.623,109.457 C148.623,110.51 147.77,111.367 146.713,111.367 C147.77,111.367 148.623,112.22 148.623,113.273 C148.623,112.216 149.477,111.367 150.534,111.367 Z" fill="#f7f9fe" fill-opacity="1" />
		<path d="M146.243,103.14 C142.74,103.14 139.912,100.286 139.912,96.8083 C139.912,100.299 137.084,103.14 133.581,103.14 C137.084,103.14 139.912,105.968 139.912,109.458 C139.912,105.955 142.74,103.14 146.243,103.14 Z" fill="#f7f9fe" fill-opacity="1" />
		<path d="M143.503,143.658 C141.516,143.658 139.912,142.039 139.912,140.067 C139.912,142.046 138.308,143.658 136.321,143.658 C138.308,143.658 139.912,145.262 139.912,147.242 C139.912,145.255 141.516,143.658 143.503,143.658 Z" fill="#f7f9fe" fill-opacity="1" />
		<path d="M128.024,131.618 C127.201,131.618 126.538,130.948 126.538,130.132 C126.538,130.951 125.874,131.618 125.052,131.618 C125.874,131.618 126.538,132.282 126.538,133.101 C126.538,132.279 127.201,131.618 128.024,131.618 Z" fill="#f7f9fe" fill-opacity="1" />
		<path d="M149.071,129.769 C146.346,129.769 144.146,127.549 144.146,124.844 C144.146,127.559 141.946,129.769 139.221,129.769 C141.946,129.769 144.146,131.968 144.146,134.684 C144.146,131.959 146.346,129.769 149.071,129.769 Z" fill="#f7f9fe" fill-opacity="1" />
		<path d="M126.539,83.0007 C126.539,80.4461 128.62,78.3839 131.156,78.3839 C128.611,78.3839 126.539,76.3218 126.539,73.7672 C126.539,76.3218 124.477,78.3839 121.932,78.3839 C124.486,78.3839 126.539,80.4461 126.539,83.0007 Z" fill="#f7f9fe" fill-opacity="1" />
		<path d="M144.395,90.1584 C144.395,86.6552 147.248,83.8271 150.726,83.8271 C147.235,83.8271 144.395,80.9991 144.395,77.4959 C144.395,80.9991 141.567,83.8271 138.076,83.8271 C141.579,83.8271 144.395,86.6552 144.395,90.1584 Z" fill="#f7f9fe" fill-opacity="1" />
		<path d="M123.035,94.7646 C125.589,94.7646 127.651,96.8453 127.651,99.3813 C127.651,96.836 129.713,94.7646 132.268,94.7646 C129.713,94.7646 127.651,92.7024 127.651,90.1571 C127.651,92.7117 125.589,94.7646 123.035,94.7646 Z" fill="#f7f9fe" fill-opacity="1" />
	</g>
</svg>